<svg fill="none" height="147" viewBox="0 0 276 147" width="276" xmlns="http://www.w3.org/2000/svg" xmlns:xlink="http://www.w3.org/1999/xlink"><clipPath id="a"><path d="m.145264.013672h275.231v146.385h-275.231z"/></clipPath><g clip-path="url(#a)"><path d="m275.377 146.395h-275.231736v-146.234844h275.231736z" fill="#fff"/><g fill="#89959f"><path d="m146.799 47.8379c-.659 0-1.291.2658-1.758.7389-.465.4732-.727 1.1149-.727 1.784 0 .6692.262 1.3108.727 1.784.467.4731 1.099.7389 1.758.7389h100.548c.658 0 1.291-.2658 1.757-.7389.465-.4732.727-1.1148.727-1.784 0-.6691-.262-1.3108-.727-1.784-.466-.4731-1.099-.7389-1.757-.7389z"/><path d="m147.633 72.1836c-.659-.0014-1.292.2629-1.758.735-.468.4721-.731 1.1133-.732 1.7824-.002.6691.259 1.3114.724 1.7856.464.4741 1.096.7414 1.755.7428h74.737c.658 0 1.291-.2658 1.756-.7389.466-.4731.728-1.1148.728-1.784 0-.669-.262-1.3108-.728-1.7839-.465-.4732-1.098-.739-1.756-.739z"/><path d="m147.272 94.6152c-.66-.0014-1.292.263-1.759.7351s-.73 1.1132-.731 1.7823c-.003.6692.258 1.3114.724 1.7856.464.4742 1.095.7414 1.755.7429h75.098c.658 0 1.29-.2659 1.756-.7389.466-.4732.728-1.1149.728-1.7841 0-.6691-.262-1.3108-.728-1.784-.466-.473-1.098-.7389-1.756-.7389z"/><path d="m275.377 146.395h-275.231736v-146.234844h275.231736zm-271.03011-4.256h266.82711v-137.7237h-266.82711z"/></g><path d="m112.641 21.2324h-84.0989c-3.6191 0-6.5531 2.9791-6.5531 6.6539v89.8267c0 3.676 2.934 6.654 6.5531 6.654h84.0989c3.619 0 6.553-2.978 6.553-6.654v-89.8267c0-3.6748-2.934-6.6539-6.553-6.6539z" fill="#c1cad1" fill-opacity=".13"/><path d="m112.641 23.1719h-84.0988c-2.5636 0-4.6418 2.1101-4.6418 4.7131v89.827c0 2.603 2.0782 4.713 4.6418 4.713h84.0988c2.563 0 4.641-2.11 4.641-4.713v-89.827c0-2.603-2.078-4.7131-4.641-4.7131z" stroke="#89959f" stroke-linejoin="round" stroke-width="3.5"/><path d="m70.812 71.7573c2.726.0007 5.368-.9585 7.4756-2.714 2.1077-1.7556 3.5506-4.1988 4.0829-6.9134.5324-2.7147.121-5.5328-1.1636-7.9741s-3.3633-4.3549-5.8816-5.4145c-2.5185-1.0595-5.3208-1.1997-7.9295-.3964-2.6088.8031-4.8626 2.4999-6.3772 4.8013-1.5148 2.3013-2.1967 5.0648-1.9297 7.8195.2671 2.7545 1.4666 5.3299 3.3941 7.2872 1.0806 1.1285 2.3767 2.0214 3.8088 2.6239 1.4321.6026 2.9702.9021 4.5202.8805zm-6.303-18.3613c1.4581-1.479 3.3761-2.3989 5.4272-2.6031 2.0511-.2043 4.1086.32 5.8218 1.4833 1.7131 1.1633 2.9761 2.8937 3.5737 4.8965.5976 2.0027.4928 4.1539-.2964 6.0871-.7893 1.9332-2.2143 3.5286-4.0321 4.5146-1.8179.986-3.9162 1.3016-5.9375.893-2.0213-.4087-3.8405-1.5163-5.1478-3.1341-1.3072-1.6179-2.0216-3.6459-2.0214-5.7385-.0223-1.1918.1983-2.3754.6479-3.4765.4495-1.1011 1.1184-2.096 1.9646-2.9223z" fill="#f2971b" stroke="#f2971b" stroke-width=".6"/><path d="m91.5645 85.9036c-.0795-1.0872-.2162-2.1693-.4096-3.2416-.1911-1.1027-.4534-2.1914-.7853-3.2592-.336-1.0567-.7785-2.0753-1.3204-3.0397-.5337-.9709-1.2036-1.8579-1.9889-2.6327-.8277-.7899-1.7984-1.409-2.8583-1.8232-1.1641-.4536-2.4022-.6794-3.649-.6654-.7278.0791-1.4161.3755-1.9779.8517-.5931.3926-1.2866.8462-2.0599 1.3485-.8368.5076-1.7323.9081-2.666 1.1922-2.1168.7133-4.4037.7133-6.5204 0-.9331-.2838-1.828-.6843-2.6638-1.1922-.7645-.4979-1.4603-.9515-2.0621-1.3496-.5617-.4759-1.2495-.7723-1.9768-.8517-1.2469-.0123-2.4846.2154-3.6479.6709-1.0602.4144-2.031 1.0339-2.8583 1.8243-.7852.7746-1.4551 1.6611-1.9889 2.6316-.5417.9645-.9838 1.9831-1.3193 3.0397-.332 1.0674-.5944 2.1557-.7854 3.2582-.1939 1.0726-.3306 2.155-.4096 3.2426-.0666.9792-.1004 1.9962-.1004 3.0286-.0522 1.1914.1427 2.3807.5718 3.4907.4291 1.1101 1.0831 2.1163 1.9195 2.9536 1.7471 1.6216 4.0548 2.4763 6.4199 2.3776h24.3263c2.365.0985 4.6726-.7562 6.4199-2.3776.8366-.8373 1.4908-1.8436 1.9199-2.9539.4292-1.1104.6239-2.2999.5714-3.4915 0-1.0336-.035-2.0527-.1016-3.0297zm-4.431 7.297c-.5932.5392-1.2855.954-2.0372 1.2204-.7516.2665-1.5477.3794-2.3425.3322h-24.3274c-.7947.0471-1.5905-.0658-2.3421-.3323-.7514-.2664-1.4435-.6812-2.0365-1.2203-.5439-.5581-.9652-1.2267-1.2363-1.9621s-.3858-1.5205-.3364-2.3041c0-.9615.0317-1.9108.0939-2.8212.0716-.9794.1952-1.9542.3703-2.92.1678-.9717.3984-1.9311.6902-2.8722.2731-.8592.6328-1.6876 1.0736-2.4719.3924-.7167.8849-1.3719 1.4625-1.9452.551-.5218 1.1968-.9298 1.9014-1.201.745-.2896 1.5343-.4442 2.3319-.4569.1092.0555.2883.1619.5876.3604.6083.4026 1.3105.8628 2.0849 1.3652 1.0488.6457 2.173 1.1558 3.3465 1.5182 2.7089.9076 5.6333.9076 8.3422 0 1.1739-.3625 2.2985-.873 3.3474-1.5193.794-.5157 1.4757-.9615 2.084-1.3641.2993-.1973.4839-.3049.5876-.3604.798.0126 1.5875.1673 2.3328.4569.7045.2716 1.3503.6796 1.9016 1.201.5774.5732 1.0696 1.2285 1.4614 1.9452.4411.7838.8012 1.6118 1.0747 2.4708.2918.9414.5224 1.9012.6903 2.8733.1747.966.2983 1.9406.3702 2.92.0634.9071.0939 1.8564.095 2.8201.0491.7836-.0656 1.5687-.3367 2.3041-.2711.7353-.6923 1.404-1.2361 1.9621z" fill="#f2971b" stroke="#f2971b" stroke-width=".6"/></g></svg>