<svg height="44.994" viewBox="0 0 201.001 44.994" width="201.001" xmlns="http://www.w3.org/2000/svg"><path d="m0 43.794h201" fill="none" stroke="#fff" stroke-miterlimit="10" stroke-width="2.4"/><circle cx="119.108" cy="20.359" fill="#ff981d" r="20.359"/><g fill="#fff"><path d="m625.293 458.223a20.357 20.357 0 0 0 -12.069-18.56 8.721 8.721 0 0 0 -2.83 3.136c-2.318 4.331-2.5 8.136-2.311 8.845a11.586 11.586 0 0 0 .931 2.029s-3.562 5.445-3.344 6.328 2.671 1.362 2.671 1.362a2.838 2.838 0 0 1 -.224 1.808c-.442 1.2.83 2.578 1.209 3.064s-.529 1.989-.223 2.825a3.408 3.408 0 0 0 3.473 1.641c1.7-.223 3.866-.622 4.621-.756 1.705 3.981-2.4 6.018-2.4 6.018h.052a20.327 20.327 0 0 0 10.444-17.74z" transform="translate(-485.748 -437.847)"/><path d="m15.06-13.151q-.438-.213-1.011-.455a9.57 9.57 0 0 0 -1.308-.432 14.83 14.83 0 0 0 -1.656-.32 14.791 14.791 0 0 0 -2.044-.129 16.656 16.656 0 0 0 -2.42.157 6.838 6.838 0 0 0 -1.8.489 2.854 2.854 0 0 0 -1.121.841 1.917 1.917 0 0 0 -.387 1.2 1.548 1.548 0 0 0 .365 1.022 3.32 3.32 0 0 0 .988.775 8.976 8.976 0 0 0 1.46.612q.837.275 1.774.517t1.932.489q.994.247 1.932.533a18.219 18.219 0 0 1 1.774.64 6.789 6.789 0 0 1 1.462.822 3.832 3.832 0 0 1 .988 1.078 2.669 2.669 0 0 1 .365 1.4 3.314 3.314 0 0 1 -.326 1.51 3.484 3.484 0 0 1 -.882 1.112 4.962 4.962 0 0 1 -1.3.775 9.1 9.1 0 0 1 -1.595.489 13.8 13.8 0 0 1 -1.755.256q-.904.07-1.78.07a20.8 20.8 0 0 1 -3.644-.289 21.205 21.205 0 0 1 -3.116-.8v-1.711a10.107 10.107 0 0 0 3.228 1.242 18.385 18.385 0 0 0 3.577.337 17.711 17.711 0 0 0 2.448-.157 7.893 7.893 0 0 0 1.943-.5 3.227 3.227 0 0 0 1.275-.893 2.045 2.045 0 0 0 .455-1.348 1.811 1.811 0 0 0 -.365-1.123 3.316 3.316 0 0 0 -.988-.848 7.8 7.8 0 0 0 -1.46-.646q-.837-.281-1.769-.522t-1.927-.471q-.994-.23-1.926-.5a18.466 18.466 0 0 1 -1.769-.606 6.73 6.73 0 0 1 -1.46-.792 3.69 3.69 0 0 1 -.988-1.05 2.589 2.589 0 0 1 -.365-1.381 3.109 3.109 0 0 1 .292-1.376 3.193 3.193 0 0 1 .8-1.039 4.7 4.7 0 0 1 1.2-.736 8.087 8.087 0 0 1 1.466-.472 13 13 0 0 1 1.623-.253q.842-.079 1.662-.079.9 0 1.7.079t1.55.208q.747.129 1.46.3t1.443.359zm24.257 13.151v-13.128l-8.479 13.128h-1.246l-8.492-13.185v13.185h-1.4v-15.431h1.5l9.054 13.982 8.951-13.982h1.495v15.431zm20.709 0-2.126-4.065h-10.474l-2.126 4.065h-1.535l8.075-15.431h1.65l8.075 15.431zm-7.356-14.072-4.56 8.715h9.108zm13.33 7.472v6.6h-1.4v-15.431h7.682a14.336 14.336 0 0 1 3.021.275 5.76 5.76 0 0 1 2.061.831 3.313 3.313 0 0 1 1.174 1.387 4.734 4.734 0 0 1 .371 1.943 4.052 4.052 0 0 1 -.909 2.769 5.008 5.008 0 0 1 -2.931 1.421l5.262 6.805h-1.763l-4.975-6.648q-.314.022-.64.034t-.674.011zm11.455-4.391a3.22 3.22 0 0 0 -.348-1.6 2.278 2.278 0 0 0 -1.134-.949 6.946 6.946 0 0 0 -2.06-.46q-1.275-.118-3.128-.118h-4.785v6.2h4.74q1.853 0 3.133-.107a7.027 7.027 0 0 0 2.078-.438 2.3 2.3 0 0 0 1.149-.931 3.139 3.139 0 0 0 .356-1.601zm12.557-3.159v14.15h-1.393v-14.15h-7.019v-1.28h15.431v1.28z" transform="translate(-1.864 35.505)"/><path d="m19.754-9.822a7.283 7.283 0 0 1 -.337 2.266 4.417 4.417 0 0 1 -1.084 1.782 5.06 5.06 0 0 1 -1.933 1.166 8.789 8.789 0 0 1 -2.9.419h-6.919v5.189h-4.166v-16.431h11.085a8.906 8.906 0 0 1 2.9.413 5 5 0 0 1 1.937 1.16 4.422 4.422 0 0 1 1.084 1.776 7.227 7.227 0 0 1 .333 2.26zm-4.211.072a2.866 2.866 0 0 0 -.152-.987 1.461 1.461 0 0 0 -.5-.676 2.341 2.341 0 0 0 -.91-.389 6.448 6.448 0 0 0 -1.381-.126h-6.019v4.233h6.019a7.922 7.922 0 0 0 1.381-.1 2.269 2.269 0 0 0 .91-.347 1.366 1.366 0 0 0 .5-.64 2.713 2.713 0 0 0 .152-.968zm26.557 2.523a10.955 10.955 0 0 1 -.326 2.8 7.375 7.375 0 0 1 -.915 2.135 6.135 6.135 0 0 1 -1.412 1.547 7.155 7.155 0 0 1 -1.836 1.016 10.486 10.486 0 0 1 -2.179.556 16.585 16.585 0 0 1 -2.432.173h-9.8v-16.431h9.771a16.585 16.585 0 0 1 2.437.173 10.6 10.6 0 0 1 2.184.556 7.33 7.33 0 0 1 1.847 1.011 5.957 5.957 0 0 1 1.421 1.543 7.471 7.471 0 0 1 .915 2.135 10.832 10.832 0 0 1 .325 2.786zm-4.2 0a6.618 6.618 0 0 0 -.286-2.057 3.252 3.252 0 0 0 -.921-1.441 4.05 4.05 0 0 0 -1.656-.849 9.526 9.526 0 0 0 -2.493-.281h-5.175v9.28h5.177a9.526 9.526 0 0 0 2.493-.281 3.969 3.969 0 0 0 1.661-.861 3.337 3.337 0 0 0 .921-1.453 6.618 6.618 0 0 0 .279-2.057zm16.644-4.628v12.855h-4.164v-12.855h-6.547v-3.576h17.267v3.576z" transform="translate(139.895 35.225)"/></g><circle cx="132.722" cy="12.632" fill="#005392" r="4.392"/></svg>