<svg height="22.293" viewBox="0 0 24 22.293" width="24" xmlns="http://www.w3.org/2000/svg"><path d="m-21232.633 7139.282a4.374 4.374 0 0 1 -4.367-4.37v-11.261a4.375 4.375 0 0 1 4.148-4.368v-1.474a.819.819 0 0 1 .82-.818.819.819 0 0 1 .818.819v1.466h5.459v-1.461a.819.819 0 0 1 .818-.818.818.818 0 0 1 .818.818v1.467h5.459v-1.467a.819.819 0 0 1 .82-.818.817.817 0 0 1 .816.818v1.48a4.377 4.377 0 0 1 4.02 4.356v11.261a4.376 4.376 0 0 1 -4.367 4.371zm-2.73-4.37a2.73 2.73 0 0 0 2.73 2.729h15.266a2.729 2.729 0 0 0 2.729-2.729v-9.181h-20.727zm20.727-10.819v-.442a2.737 2.737 0 0 0 -2.383-2.71v.7a.818.818 0 0 1 -.816.819.82.82 0 0 1 -.82-.819v-.719h-5.459v.718a.822.822 0 0 1 -.82.819.819.819 0 0 1 -.818-.819v-.719h-5.459v.718a.819.819 0 0 1 -.818.819.82.82 0 0 1 -.82-.819v-.71a2.736 2.736 0 0 0 -2.512 2.724v.442zm-11.117 10.1v-1.911h-1.91a.819.819 0 0 1 -.82-.818.82.82 0 0 1 .82-.819h1.91v-1.911a.819.819 0 0 1 .818-.818.818.818 0 0 1 .818.818v1.911h1.91a.819.819 0 0 1 .818.819.819.819 0 0 1 -.818.818h-1.91v1.911a.822.822 0 0 1 -.82.819.819.819 0 0 1 -.817-.819z" fill="#fff" transform="translate(21237 -7116.99)"/></svg>