<svg fill="none" height="294" viewBox="0 0 1075 294" width="1075" xmlns="http://www.w3.org/2000/svg" xmlns:xlink="http://www.w3.org/1999/xlink"><filter id="a" color-interpolation-filters="sRGB" filterUnits="userSpaceOnUse" height="292.229" width="1075" x="0" y=".886"><feFlood flood-opacity="0" result="BackgroundImageFix"/><feColorMatrix in="SourceAlpha" result="hardAlpha" type="matrix" values="0 0 0 0 0 0 0 0 0 0 0 0 0 0 0 0 0 0 127 0"/><feOffset dy="5"/><feGaussianBlur stdDeviation="5"/><feColorMatrix type="matrix" values="0 0 0 0 0 0 0 0 0 0.32549 0 0 0 0 0.572549 0 0 0 0.078 0"/><feBlend in2="BackgroundImageFix" mode="normal" result="effect1_dropShadow_1616_2086"/><feBlend in="SourceGraphic" in2="effect1_dropShadow_1616_2086" mode="normal" result="shape"/></filter><g filter="url(#a)"><path d="m1055.05 6h-1035.0972c-5.4968 0-9.9528 2.07283-9.9528 4.6298v262.7402c0 2.557 4.456 4.63 9.9528 4.63h1035.0972c5.49 0 9.95-2.073 9.95-4.63v-262.7402c0-2.55697-4.46-4.6298-9.95-4.6298z" fill="#fff"/><path d="m1055.05 6.38574h-1035.097c-5.0387 0-9.1234 1.90009-9.1234 4.24396v262.7403c0 2.344 4.0847 4.244 9.1234 4.244h1035.097c5.04 0 9.12-1.9 9.12-4.244v-262.7403c0-2.34387-4.08-4.24396-9.12-4.24396z" stroke="#d9e4ee"/></g><path d="m365.98 56c-.133 0-.253-.0467-.36-.14-.093-.1067-.14-.2267-.14-.36v-10.36h-3.56c-.133 0-.253-.0467-.36-.14-.093-.1067-.14-.2267-.14-.36v-2.14c0-.1467.047-.2667.14-.36.107-.0933.227-.14.36-.14h10.76c.147 0 .267.0467.36.14s.14.2133.14.36v2.14c0 .1467-.047.2667-.14.36s-.213.14-.36.14h-3.56v10.36c0 .1333-.047.2533-.14.36-.093.0933-.213.14-.36.14zm11.84.2c-1.6 0-2.86-.4333-3.78-1.3s-1.4-2.1267-1.44-3.78v-.7c.053-1.5733.54-2.8 1.46-3.68.933-.8933 2.18-1.34 3.74-1.34 1.133 0 2.087.2333 2.86.7.787.4533 1.373 1.08 1.76 1.88.4.8.6 1.72.6 2.76v.48c0 .1333-.047.2533-.14.36-.093.0933-.213.14-.36.14h-6.4v.14c.027.6267.18 1.1333.46 1.52s.687.58 1.22.58c.333 0 .607-.0667.82-.2.213-.1467.407-.32.58-.52.12-.1467.213-.2333.28-.26.08-.04.2-.06.36-.06h2.48c.12 0 .22.04.3.12.093.0667.14.16.14.28 0 .3467-.2.7467-.6 1.2-.387.4533-.953.8467-1.7 1.18s-1.627.5-2.64.5zm1.68-6.46v-.04c0-.6533-.153-1.1667-.46-1.54-.293-.3867-.707-.58-1.24-.58-.52 0-.933.1933-1.24.58-.293.3733-.44.8867-.44 1.54v.04zm10.175 6.46c-1.507 0-2.727-.4-3.66-1.2-.933-.8133-1.433-1.94-1.5-3.38l-.02-.8.02-.82c.053-1.44.547-2.5667 1.48-3.38.947-.8133 2.173-1.22 3.68-1.22 1.133 0 2.087.2067 2.86.62.787.4 1.367.8867 1.74 1.46.387.56.593 1.0733.62 1.54.013.1333-.033.2533-.14.36-.093.0933-.213.14-.36.14h-2.54c-.147 0-.26-.0333-.34-.1s-.153-.1667-.22-.3c-.16-.4133-.367-.7067-.62-.88-.24-.1733-.553-.26-.94-.26-1.093 0-1.66.7067-1.7 2.12l-.02.76.02.66c.027.72.18 1.2533.46 1.6.293.3333.707.5 1.24.5.413 0 .74-.0867.98-.26s.433-.4667.58-.88c.067-.1333.14-.2333.22-.3s.193-.1.34-.1h2.54c.133 0 .247.0467.34.14.107.08.16.1867.16.32 0 .4267-.187.9267-.56 1.5-.36.5733-.933 1.08-1.72 1.52-.787.4267-1.767.64-2.94.64zm7.517-.2c-.134 0-.254-.0467-.36-.14-.094-.1067-.14-.2267-.14-.36v-13.2c0-.1467.046-.2667.14-.36.106-.0933.226-.14.36-.14h2.56c.146 0 .266.0467.36.14.093.0933.14.2133.14.36v4.46c.8-.9067 1.853-1.36 3.16-1.36.773 0 1.46.1733 2.06.52.613.3467 1.093.86 1.44 1.54.346.68.52 1.5.52 2.46v5.58c0 .1333-.047.2533-.14.36-.094.0933-.214.14-.36.14h-2.58c-.134 0-.254-.0467-.36-.14-.094-.1067-.14-.2267-.14-.36v-5.46c0-.6267-.154-1.1067-.46-1.44-.294-.3467-.727-.52-1.3-.52-.574 0-1.027.1733-1.36.52-.32.3333-.48.8133-.48 1.44v5.46c0 .1467-.047.2667-.14.36-.094.0933-.214.14-.36.14zm13.008 0c-.147 0-.267-.0467-.36-.14-.094-.0933-.14-.2133-.14-.36v-9.4c0-.1467.046-.2667.14-.36.093-.0933.213-.14.36-.14h2.3c.146 0 .266.0467.36.14.106.0933.16.2133.16.36v.76c.36-.44.82-.7933 1.38-1.06.573-.2667 1.22-.4 1.94-.4 1.173 0 2.126.4 2.86 1.2.733.7867 1.1 1.8933 1.1 3.32v5.58c0 .1333-.047.2533-.14.36-.094.0933-.214.14-.36.14h-2.52c-.134 0-.254-.0467-.36-.14-.094-.1067-.14-.2267-.14-.36v-5.46c0-.6267-.154-1.1067-.46-1.44-.307-.3467-.747-.52-1.32-.52-.56 0-1 .1733-1.32.52-.32.3333-.48.8133-.48 1.44v5.46c0 .1333-.047.2533-.14.36-.094.0933-.214.14-.36.14zm12.831-11.9c-.147 0-.267-.0467-.36-.14s-.14-.2133-.14-.36v-1.8c0-.1467.047-.2667.14-.36s.213-.14.36-.14h2.4c.147 0 .267.0467.36.14s.14.2133.14.36v1.8c0 .1467-.047.2667-.14.36s-.213.14-.36.14zm.02 11.9c-.147 0-.267-.0467-.36-.14s-.14-.2133-.14-.36v-9.4c0-.1467.047-.2667.14-.36s.213-.14.36-.14h2.36c.147 0 .267.0467.36.14s.14.2133.14.36v9.4c0 .1333-.047.2533-.14.36-.093.0933-.213.14-.36.14zm10.003.2c-1.507 0-2.727-.4-3.66-1.2-.934-.8133-1.434-1.94-1.5-3.38l-.02-.8.02-.82c.053-1.44.546-2.5667 1.48-3.38.946-.8133 2.173-1.22 3.68-1.22 1.133 0 2.086.2067 2.86.62.786.4 1.366.8867 1.74 1.46.386.56.593 1.0733.62 1.54.013.1333-.034.2533-.14.36-.094.0933-.214.14-.36.14h-2.54c-.147 0-.26-.0333-.34-.1s-.154-.1667-.22-.3c-.16-.4133-.367-.7067-.62-.88-.24-.1733-.554-.26-.94-.26-1.094 0-1.66.7067-1.7 2.12l-.02.76.02.66c.026.72.18 1.2533.46 1.6.293.3333.706.5 1.24.5.413 0 .74-.0867.98-.26s.433-.4667.58-.88c.066-.1333.14-.2333.22-.3s.193-.1.34-.1h2.54c.133 0 .246.0467.34.14.106.08.16.1867.16.32 0 .4267-.187.9267-.56 1.5-.36.5733-.934 1.08-1.72 1.52-.787.4267-1.767.64-2.94.64zm10.137 0c-.707 0-1.354-.1333-1.94-.4-.574-.28-1.027-.6533-1.36-1.12-.32-.48-.48-1.0067-.48-1.58 0-.92.373-1.66 1.12-2.22.76-.56 1.8-.9467 3.12-1.16l2.5-.38v-.28c0-.5067-.107-.88-.32-1.12-.214-.24-.574-.36-1.08-.36-.307 0-.56.0533-.76.16s-.407.2533-.62.44c-.187.16-.327.2667-.42.32-.04.1067-.114.16-.22.16h-2.18c-.134 0-.247-.04-.34-.12-.08-.0933-.114-.2-.1-.32.013-.36.186-.76.52-1.2.346-.44.866-.82 1.56-1.14.706-.32 1.573-.48 2.6-.48 1.64 0 2.853.3667 3.64 1.1.786.72 1.18 1.6933 1.18 2.92v6.08c0 .1333-.047.2533-.14.36-.094.0933-.214.14-.36.14h-2.32c-.134 0-.254-.0467-.36-.14-.094-.1067-.14-.2267-.14-.36v-.7c-.294.4133-.707.7533-1.24 1.02-.52.2533-1.14.38-1.86.38zm.94-2.28c.613 0 1.106-.2 1.48-.6.386-.4.58-.9867.58-1.76v-.28l-1.7.3c-1.2.2133-1.8.6333-1.8 1.26 0 .3333.14.6.42.8.28.1867.62.28 1.02.28zm8.237 2.08c-.134 0-.254-.0467-.361-.14-.093-.1067-.139-.2267-.139-.36v-13.2c0-.1467.046-.2667.139-.36.107-.0933.227-.14.361-.14h2.36c.146 0 .266.0467.36.14.093.0933.14.2133.14.36v13.2c0 .1467-.047.2667-.14.36-.094.0933-.214.14-.36.14zm10.2 0c-.133 0-.253-.0467-.36-.14-.093-.1067-.14-.2267-.14-.36v-13c0-.1467.047-.2667.14-.36.107-.0933.227-.14.36-.14h2.68c.147 0 .267.0467.36.14.107.0933.16.2133.16.36v13c0 .1467-.053.2667-.16.36-.093.0933-.213.14-.36.14zm6.264 0c-.146 0-.266-.0467-.36-.14-.093-.0933-.14-.2133-.14-.36v-9.4c0-.1467.047-.2667.14-.36.094-.0933.214-.14.36-.14h2.3c.147 0 .267.0467.36.14.107.0933.16.2133.16.36v.76c.36-.44.82-.7933 1.38-1.06.574-.2667 1.22-.4 1.94-.4 1.174 0 2.127.4 2.86 1.2.734.7867 1.1 1.8933 1.1 3.32v5.58c0 .1333-.046.2533-.14.36-.093.0933-.213.14-.36.14h-2.52c-.133 0-.253-.0467-.36-.14-.093-.1067-.14-.2267-.14-.36v-5.46c0-.6267-.153-1.1067-.46-1.44-.306-.3467-.746-.52-1.32-.52-.56 0-1 .1733-1.32.52-.32.3333-.48.8133-.48 1.44v5.46c0 .1333-.046.2533-.14.36-.093.0933-.213.14-.36.14zm13.915 0c-.134 0-.254-.0467-.36-.14-.094-.1067-.14-.2267-.14-.36v-7.28h-1.52c-.147 0-.267-.0467-.36-.14-.094-.0933-.14-.2133-.14-.36v-1.62c0-.1467.046-.2667.14-.36.093-.0933.213-.14.36-.14h1.52v-.64c0-1.32.373-2.2733 1.12-2.86.76-.6 1.846-.9 3.26-.9h1.56c.146 0 .266.0467.36.14.093.0933.14.2133.14.36v1.62c0 .1333-.047.2533-.14.36-.094.0933-.214.14-.36.14h-1.4c-.44 0-.754.1067-.94.32-.187.2-.28.5067-.28.92v.54h2.42c.146 0 .266.0467.36.14.093.0933.14.2133.14.36v1.62c0 .1333-.047.2533-.14.36-.094.0933-.214.14-.36.14h-2.42v7.28c0 .1333-.047.2533-.14.36-.094.0933-.214.14-.36.14zm11.97.2c-1.653 0-2.926-.3933-3.82-1.18-.893-.7867-1.38-1.8933-1.46-3.32-.013-.1733-.02-.4733-.02-.9s.007-.7267.02-.9c.08-1.4133.58-2.5133 1.5-3.3.92-.8 2.18-1.2 3.78-1.2 1.614 0 2.88.4 3.8 1.2.92.7867 1.42 1.8867 1.5 3.3.014.1733.02.4733.02.9s-.006.7267-.02.9c-.08 1.4267-.566 2.5333-1.46 3.32-.893.7867-2.173 1.18-3.84 1.18zm0-2.44c.587 0 1.02-.1733 1.3-.52.28-.36.44-.9067.48-1.64.014-.1333.02-.4.02-.8s-.006-.6667-.02-.8c-.04-.72-.206-1.26-.5-1.62-.28-.36-.706-.54-1.28-.54-1.106 0-1.693.72-1.76 2.16l-.02.8.02.8c.027.7333.18 1.28.46 1.64.294.3467.727.52 1.3.52zm7.807 2.24c-.147 0-.267-.0467-.36-.14-.094-.0933-.14-.2133-.14-.36v-9.4c0-.1467.046-.2667.14-.36.093-.0933.213-.14.36-.14h2.3c.146 0 .266.0533.36.16.106.0933.16.2067.16.34v.8c.733-.8667 1.72-1.3 2.96-1.3h.88c.146 0 .266.0467.36.14.093.0933.14.2133.14.36v2.06c0 .1333-.047.2533-.14.36-.094.0933-.214.14-.36.14h-1.94c-.547 0-.974.1533-1.28.46-.294.2933-.44.7133-.44 1.26v5.12c0 .1467-.054.2667-.16.36-.094.0933-.214.14-.36.14zm9.082 0c-.147 0-.267-.0467-.36-.14-.094-.0933-.14-.2133-.14-.36v-9.4c0-.1467.046-.2667.14-.36.093-.0933.213-.14.36-.14h2.18c.146 0 .266.0467.36.14.093.0933.14.2133.14.36v.68c.306-.4.713-.7267 1.22-.98.52-.2667 1.1-.4 1.74-.4 1.466 0 2.48.5733 3.04 1.72.32-.5067.766-.92 1.34-1.24.573-.32 1.186-.48 1.84-.48 1.093 0 1.98.3733 2.66 1.12.693.7333 1.04 1.8333 1.04 3.3v5.68c0 .1333-.047.2533-.14.36-.094.0933-.214.14-.36.14h-2.32c-.147 0-.274-.0467-.38-.14-.094-.0933-.14-.2133-.14-.36v-5.54c0-.6667-.14-1.1467-.42-1.44-.267-.2933-.634-.44-1.1-.44-.427 0-.78.1533-1.06.46-.28.2933-.42.7667-.42 1.42v5.54c0 .1333-.047.2533-.14.36-.094.0933-.214.14-.36.14h-2.32c-.147 0-.267-.0467-.36-.14-.094-.0933-.14-.2133-.14-.36v-5.54c0-.6533-.147-1.1267-.44-1.42-.28-.3067-.64-.46-1.08-.46-.427 0-.787.1533-1.08.46-.28.2933-.42.76-.42 1.4v5.56c0 .1333-.047.2533-.14.36-.094.0933-.214.14-.36.14zm20.94.2c-.707 0-1.353-.1333-1.94-.4-.573-.28-1.027-.6533-1.36-1.12-.32-.48-.48-1.0067-.48-1.58 0-.92.373-1.66 1.12-2.22.76-.56 1.8-.9467 3.12-1.16l2.5-.38v-.28c0-.5067-.107-.88-.32-1.12s-.573-.36-1.08-.36c-.307 0-.56.0533-.76.16s-.407.2533-.62.44c-.187.16-.327.2667-.42.32-.04.1067-.113.16-.22.16h-2.18c-.133 0-.247-.04-.34-.12-.08-.0933-.113-.2-.1-.32.013-.36.187-.76.52-1.2.347-.44.867-.82 1.56-1.14.707-.32 1.573-.48 2.6-.48 1.64 0 2.853.3667 3.64 1.1.787.72 1.18 1.6933 1.18 2.92v6.08c0 .1333-.047.2533-.14.36-.093.0933-.213.14-.36.14h-2.32c-.133 0-.253-.0467-.36-.14-.093-.1067-.14-.2267-.14-.36v-.7c-.293.4133-.707.7533-1.24 1.02-.52.2533-1.14.38-1.86.38zm.94-2.28c.613 0 1.107-.2 1.48-.6.387-.4.58-.9867.58-1.76v-.28l-1.7.3c-1.2.2133-1.8.6333-1.8 1.26 0 .3333.14.6.42.8.28.1867.62.28 1.02.28zm12.979 2.08c-2.76 0-4.14-1.3133-4.14-3.94v-3.84h-1.56c-.147 0-.273-.0467-.38-.14-.093-.0933-.14-.2133-.14-.36v-1.62c0-.1467.047-.2667.14-.36.107-.0933.233-.14.38-.14h1.56v-3.3c0-.1467.047-.2667.14-.36.107-.0933.227-.14.36-.14h2.32c.147 0 .267.0467.36.14s.14.2133.14.36v3.3h2.5c.147 0 .267.0467.36.14.107.0933.16.2133.16.36v1.62c0 .1467-.053.2667-.16.36-.093.0933-.213.14-.36.14h-2.5v3.56c0 .9867.38 1.48 1.14 1.48h1.54c.147 0 .267.0467.36.14s.14.2133.14.36v1.74c0 .1333-.047.2533-.14.36-.093.0933-.213.14-.36.14zm4.496-11.9c-.147 0-.267-.0467-.36-.14-.094-.0933-.14-.2133-.14-.36v-1.8c0-.1467.046-.2667.14-.36.093-.0933.213-.14.36-.14h2.4c.146 0 .266.0467.36.14.093.0933.14.2133.14.36v1.8c0 .1467-.047.2667-.14.36-.094.0933-.214.14-.36.14zm.02 11.9c-.147 0-.267-.0467-.36-.14-.094-.0933-.14-.2133-.14-.36v-9.4c0-.1467.046-.2667.14-.36.093-.0933.213-.14.36-.14h2.36c.146 0 .266.0467.36.14.093.0933.14.2133.14.36v9.4c0 .1333-.047.2533-.14.36-.094.0933-.214.14-.36.14zm10.142.2c-1.653 0-2.926-.3933-3.82-1.18-.893-.7867-1.38-1.8933-1.46-3.32-.013-.1733-.02-.4733-.02-.9s.007-.7267.02-.9c.08-1.4133.58-2.5133 1.5-3.3.92-.8 2.18-1.2 3.78-1.2 1.614 0 2.88.4 3.8 1.2.92.7867 1.42 1.8867 1.5 3.3.014.1733.02.4733.02.9s-.006.7267-.02.9c-.08 1.4267-.566 2.5333-1.46 3.32-.893.7867-2.173 1.18-3.84 1.18zm0-2.44c.587 0 1.02-.1733 1.3-.52.28-.36.44-.9067.48-1.64.014-.1333.02-.4.02-.8s-.006-.6667-.02-.8c-.04-.72-.206-1.26-.5-1.62-.28-.36-.706-.54-1.28-.54-1.106 0-1.693.72-1.76 2.16l-.02.8.02.8c.027.7333.18 1.28.46 1.64.294.3467.727.52 1.3.52zm7.807 2.24c-.147 0-.267-.0467-.36-.14s-.14-.2133-.14-.36v-9.4c0-.1467.047-.2667.14-.36s.213-.14.36-.14h2.3c.147 0 .267.0467.36.14.107.0933.16.2133.16.36v.76c.36-.44.82-.7933 1.38-1.06.573-.2667 1.22-.4 1.94-.4 1.173 0 2.127.4 2.86 1.2.733.7867 1.1 1.8933 1.1 3.32v5.58c0 .1333-.047.2533-.14.36-.093.0933-.213.14-.36.14h-2.52c-.133 0-.253-.0467-.36-.14-.093-.1067-.14-.2267-.14-.36v-5.46c0-.6267-.153-1.1067-.46-1.44-.307-.3467-.747-.52-1.32-.52-.56 0-1 .1733-1.32.52-.32.3333-.48.8133-.48 1.44v5.46c0 .1333-.047.2533-.14.36-.093.0933-.213.14-.36.14zm21.312 2.862c-1.032 0-1.86-.294-2.484-.882-.612-.588-1.056-1.494-1.332-2.718-.264-1.224-.396-2.832-.396-4.824s.132-3.6.396-4.824c.276-1.224.72-2.124 1.332-2.7.624-.588 1.452-.882 2.484-.882.12 0 .216.042.288.126.084.072.126.168.126.288v.63c0 .108-.036.204-.108.288s-.156.126-.252.126c-.684.012-1.218.24-1.602.684s-.66 1.164-.828 2.16-.252 2.364-.252 4.104.084 3.108.252 4.104.444 1.716.828 2.16c.384.456.918.69 1.602.702.096 0 .18.042.252.126s.108.18.108.288v.63c0 .12-.042.216-.126.288-.072.084-.168.126-.288.126zm6.056-2.682c-.996 0-1.86-.156-2.592-.468-.72-.312-1.272-.72-1.656-1.224-.384-.516-.588-1.068-.612-1.656 0-.096.036-.18.108-.252.084-.084.18-.126.288-.126h.918c.228 0 .384.12.468.36.108.504.414.936.918 1.296.516.36 1.236.54 2.16.54.996 0 1.746-.174 2.25-.522.504-.36.756-.858.756-1.494 0-.408-.126-.738-.378-.99-.24-.252-.6-.474-1.08-.666s-1.2-.432-2.16-.72c-.936-.264-1.68-.546-2.232-.846s-.966-.672-1.242-1.116-.414-1.002-.414-1.674c0-.648.174-1.23.522-1.746.36-.516.87-.918 1.53-1.206.66-.3 1.446-.45 2.358-.45.936 0 1.74.168 2.412.504.672.324 1.182.738 1.53 1.242s.534 1.008.558 1.512c0 .096-.036.18-.108.252-.06.072-.15.108-.27.108h-.954c-.252 0-.408-.114-.468-.342-.072-.504-.354-.918-.846-1.242-.492-.336-1.11-.504-1.854-.504-.816 0-1.458.156-1.926.468s-.702.774-.702 1.386c0 .408.108.744.324 1.008.228.264.57.498 1.026.702.456.192 1.122.414 1.998.666 1.02.276 1.824.564 2.412.864.588.288 1.026.654 1.314 1.098.288.432.432.984.432 1.656 0 1.116-.432 1.992-1.296 2.628s-2.028.954-3.492.954zm7.345 3.24c-.12 0-.222-.042-.306-.126-.072-.072-.108-.168-.108-.288v-11.952c0-.12.036-.216.108-.288.084-.084.186-.126.306-.126h.828c.12 0 .216.042.288.126.084.072.126.168.126.288v.792c.672-.924 1.656-1.386 2.952-1.386 1.26 0 2.202.396 2.826 1.188.636.792.978 1.812 1.026 3.06.012.132.018.336.018.612s-.006.48-.018.612c-.048 1.236-.39 2.256-1.026 3.06-.636.792-1.578 1.188-2.826 1.188s-2.22-.45-2.916-1.35v4.176c0 .12-.036.216-.108.288-.072.084-.168.126-.288.126zm3.816-4.698c.852 0 1.47-.264 1.854-.792.396-.528.612-1.224.648-2.088.012-.12.018-.294.018-.522 0-2.268-.84-3.402-2.52-3.402-.828 0-1.452.276-1.872.828-.408.54-.63 1.188-.666 1.944l-.018.684.018.702c.024.708.252 1.326.684 1.854s1.05.792 1.854.792zm10.219 1.458c-1.236 0-2.226-.378-2.97-1.134-.732-.768-1.134-1.812-1.206-3.132l-.018-.612.018-.594c.084-1.296.492-2.328 1.224-3.096.744-.768 1.722-1.152 2.934-1.152 1.332 0 2.364.426 3.096 1.278.732.84 1.098 1.98 1.098 3.42v.306c0 .12-.042.222-.126.306-.072.072-.168.108-.288.108h-6.228v.162c.036.78.27 1.446.702 1.998.444.54 1.026.81 1.746.81.552 0 1.002-.108 1.35-.324.36-.228.624-.462.792-.702.108-.144.186-.228.234-.252.06-.036.162-.054.306-.054h.882c.108 0 .198.03.27.09s.108.144.108.252c0 .264-.168.582-.504.954-.324.372-.786.696-1.386.972-.588.264-1.266.396-2.034.396zm2.466-5.544v-.054c0-.828-.228-1.5-.684-2.016-.444-.528-1.044-.792-1.8-.792s-1.356.264-1.8.792c-.432.516-.648 1.188-.648 2.016v.054zm7.642 5.544c-1.284 0-2.292-.36-3.024-1.08-.72-.732-1.104-1.752-1.152-3.06l-.018-.72.018-.72c.048-1.308.432-2.322 1.152-3.042.732-.732 1.74-1.098 3.024-1.098.864 0 1.596.156 2.196.468s1.044.696 1.332 1.152c.3.456.462.912.486 1.368.012.12-.024.216-.108.288s-.186.108-.306.108h-.864c-.12 0-.21-.024-.27-.072s-.12-.144-.18-.288c-.204-.576-.492-.984-.864-1.224-.372-.252-.84-.378-1.404-.378-.744 0-1.338.234-1.782.702-.432.456-.666 1.158-.702 2.106l-.018.648.018.612c.036.96.27 1.668.702 2.124s1.026.684 1.782.684c.564 0 1.032-.12 1.404-.36.372-.252.66-.666.864-1.242.06-.144.12-.24.18-.288.06-.06.15-.09.27-.09h.864c.12 0 .222.042.306.126.084.072.12.168.108.288-.024.444-.186.9-.486 1.368-.288.456-.732.84-1.332 1.152-.588.312-1.32.468-2.196.468zm6.421-11.286c-.12 0-.222-.036-.306-.108-.072-.084-.108-.186-.108-.306v-.972c0-.12.036-.222.108-.306.084-.084.186-.126.306-.126h1.134c.12 0 .222.042.306.126s.126.186.126.306v.972c0 .12-.042.222-.126.306-.084.072-.186.108-.306.108zm.144 11.106c-.12 0-.222-.036-.306-.108-.072-.084-.108-.186-.108-.306v-8.532c0-.12.036-.216.108-.288.084-.084.186-.126.306-.126h.864c.12 0 .216.042.288.126.084.072.126.168.126.288v8.532c0 .12-.042.222-.126.306-.072.072-.168.108-.288.108zm5.296 0c-.12 0-.222-.036-.306-.108-.072-.084-.108-.186-.108-.306v-7.506h-1.53c-.12 0-.222-.036-.306-.108-.072-.084-.108-.186-.108-.306v-.612c0-.12.036-.216.108-.288.084-.084.186-.126.306-.126h1.53v-.9c0-2.04 1.032-3.06 3.096-3.06h2.772c.12 0 .216.042.288.126.084.072.126.168.126.288v.612c0 .12-.042.222-.126.306-.072.072-.168.108-.288.108h-2.736c-.54 0-.918.144-1.134.432-.216.276-.324.702-.324 1.278v.81h4.194c.12 0 .216.042.288.126.084.072.126.168.126.288v8.532c0 .12-.042.222-.126.306-.072.072-.168.108-.288.108h-.828c-.12 0-.222-.036-.306-.108-.072-.084-.108-.186-.108-.306v-7.506h-2.952v7.506c0 .12-.042.222-.126.306-.072.072-.168.108-.288.108zm12.309.18c-1.284 0-2.292-.36-3.024-1.08-.72-.732-1.104-1.752-1.152-3.06l-.018-.72.018-.72c.048-1.308.432-2.322 1.152-3.042.732-.732 1.74-1.098 3.024-1.098.864 0 1.596.156 2.196.468s1.044.696 1.332 1.152c.3.456.462.912.486 1.368.012.12-.024.216-.108.288s-.186.108-.306.108h-.864c-.12 0-.21-.024-.27-.072s-.12-.144-.18-.288c-.204-.576-.492-.984-.864-1.224-.372-.252-.84-.378-1.404-.378-.744 0-1.338.234-1.782.702-.432.456-.666 1.158-.702 2.106l-.018.648.018.612c.036.96.27 1.668.702 2.124s1.026.684 1.782.684c.564 0 1.032-.12 1.404-.36.372-.252.66-.666.864-1.242.06-.144.12-.24.18-.288.06-.06.15-.09.27-.09h.864c.12 0 .222.042.306.126.084.072.12.168.108.288-.024.444-.186.9-.486 1.368-.288.456-.732.84-1.332 1.152-.588.312-1.32.468-2.196.468zm8.761 0c-.588 0-1.134-.12-1.638-.36s-.906-.564-1.206-.972c-.288-.42-.432-.882-.432-1.386 0-.792.324-1.44.972-1.944.66-.516 1.548-.852 2.664-1.008l2.682-.378v-.522c0-1.224-.702-1.836-2.106-1.836-.528 0-.96.114-1.296.342-.336.216-.588.474-.756.774-.036.108-.084.186-.144.234-.048.048-.12.072-.216.072h-.774c-.108 0-.204-.036-.288-.108-.072-.084-.108-.18-.108-.288.012-.288.144-.612.396-.972.264-.372.666-.69 1.206-.954.54-.276 1.206-.414 1.998-.414 1.344 0 2.31.318 2.898.954.588.624.882 1.404.882 2.34v5.832c0 .12-.042.222-.126.306-.072.072-.168.108-.288.108h-.828c-.12 0-.222-.036-.306-.108-.072-.084-.108-.186-.108-.306v-.774c-.264.384-.648.708-1.152.972s-1.146.396-1.926.396zm.378-1.35c.78 0 1.416-.252 1.908-.756.504-.516.756-1.254.756-2.214v-.504l-2.088.306c-.852.12-1.494.324-1.926.612-.432.276-.648.63-.648 1.062 0 .48.198.852.594 1.116.396.252.864.378 1.404.378zm10.51 1.17c-1.896 0-2.844-1.056-2.844-3.168v-4.752h-1.404c-.12 0-.222-.036-.306-.108-.072-.084-.108-.186-.108-.306v-.612c0-.12.036-.216.108-.288.084-.084.186-.126.306-.126h1.404v-3.006c0-.12.036-.216.108-.288.084-.084.186-.126.306-.126h.846c.12 0 .216.042.288.126.084.072.126.168.126.288v3.006h2.232c.12 0 .216.042.288.126.084.072.126.168.126.288v.612c0 .12-.042.222-.126.306-.072.072-.168.108-.288.108h-2.232v4.626c0 .6.102 1.056.306 1.368.204.3.54.45 1.008.45h1.098c.12 0 .216.042.288.126.084.072.126.168.126.288v.648c0 .12-.042.222-.126.306-.072.072-.168.108-.288.108zm3.647-11.106c-.12 0-.222-.036-.306-.108-.072-.084-.108-.186-.108-.306v-.972c0-.12.036-.222.108-.306.084-.084.186-.126.306-.126h1.134c.12 0 .222.042.306.126s.126.186.126.306v.972c0 .12-.042.222-.126.306-.084.072-.186.108-.306.108zm.144 11.106c-.12 0-.222-.036-.306-.108-.072-.084-.108-.186-.108-.306v-8.532c0-.12.036-.216.108-.288.084-.084.186-.126.306-.126h.864c.12 0 .216.042.288.126.084.072.126.168.126.288v8.532c0 .12-.042.222-.126.306-.072.072-.168.108-.288.108zm7.78.18c-1.32 0-2.346-.372-3.078-1.116-.72-.744-1.104-1.734-1.152-2.97l-.018-.774.018-.774c.048-1.224.438-2.208 1.17-2.952.732-.756 1.752-1.134 3.06-1.134s2.328.378 3.06 1.134c.732.744 1.122 1.728 1.17 2.952.012.132.018.39.018.774s-.006.642-.018.774c-.048 1.236-.438 2.226-1.17 2.97-.72.744-1.74 1.116-3.06 1.116zm0-1.386c.756 0 1.35-.24 1.782-.72.444-.48.684-1.17.72-2.07.012-.12.018-.348.018-.684s-.006-.564-.018-.684c-.036-.9-.276-1.59-.72-2.07-.432-.48-1.026-.72-1.782-.72s-1.356.24-1.8.72-.678 1.17-.702 2.07l-.018.684.018.684c.024.9.258 1.59.702 2.07s1.044.72 1.8.72zm6.916 1.206c-.12 0-.222-.036-.306-.108-.072-.084-.108-.186-.108-.306v-8.532c0-.12.036-.216.108-.288.084-.084.186-.126.306-.126h.846c.12 0 .216.042.288.126.084.072.126.168.126.288v.792c.348-.444.756-.786 1.224-1.026.48-.24 1.074-.36 1.782-.36 1.152 0 2.046.372 2.682 1.116.648.732.972 1.71.972 2.934v5.076c0 .12-.042.222-.126.306-.072.072-.168.108-.288.108h-.9c-.12 0-.222-.036-.306-.108-.072-.084-.108-.186-.108-.306v-4.986c0-.852-.21-1.512-.63-1.98-.408-.468-1.002-.702-1.782-.702-.756 0-1.356.24-1.8.72-.444.468-.666 1.122-.666 1.962v4.986c0 .12-.042.222-.126.306-.072.072-.168.108-.288.108zm13.742.18c-.84 0-1.548-.132-2.124-.396-.564-.276-.99-.588-1.278-.936-.276-.348-.414-.636-.414-.864 0-.12.042-.21.126-.27.096-.072.192-.108.288-.108h.81c.12 0 .228.06.324.18.288.336.6.6.936.792s.786.288 1.35.288c.624 0 1.128-.12 1.512-.36.396-.252.594-.594.594-1.026 0-.288-.084-.522-.252-.702-.156-.192-.432-.354-.828-.486-.384-.144-.96-.3-1.728-.468-1.044-.228-1.788-.558-2.232-.99-.432-.432-.648-.99-.648-1.674 0-.456.132-.888.396-1.296.276-.42.672-.756 1.188-1.008.528-.264 1.158-.396 1.89-.396.768 0 1.422.126 1.962.378s.942.552 1.206.9c.276.336.414.618.414.846 0 .108-.042.198-.126.27-.072.072-.162.108-.27.108h-.756c-.144 0-.264-.06-.36-.18-.192-.228-.36-.402-.504-.522-.132-.132-.33-.246-.594-.342-.252-.096-.576-.144-.972-.144-.576 0-1.02.126-1.332.378-.312.24-.468.558-.468.954 0 .252.066.468.198.648.132.168.384.324.756.468.384.144.936.294 1.656.45 1.14.24 1.944.588 2.412 1.044.48.444.72 1.014.72 1.71 0 .516-.15.984-.45 1.404s-.744.75-1.332.99c-.576.24-1.266.36-2.07.36zm4.711 2.682c-.108 0-.204-.042-.288-.126-.084-.072-.126-.168-.126-.288v-.63c0-.108.036-.204.108-.288.084-.084.174-.126.27-.126.672-.012 1.2-.246 1.584-.702.396-.444.678-1.164.846-2.16s.252-2.364.252-4.104-.084-3.108-.252-4.104-.45-1.716-.846-2.16c-.384-.444-.912-.672-1.584-.684-.096 0-.186-.042-.27-.126-.072-.084-.108-.18-.108-.288v-.63c0-.12.042-.216.126-.288.084-.084.18-.126.288-.126 1.044 0 1.872.294 2.484.882.612.576 1.05 1.476 1.314 2.7.276 1.212.414 2.82.414 4.824s-.138 3.618-.414 4.842c-.264 1.212-.702 2.112-1.314 2.7s-1.44.882-2.484.882z" fill="#303c45"/><path d="m944.121 231c-.107 0-.198-.032-.272-.096-.064-.075-.096-.165-.096-.272v-.512c0-.245.133-.48.4-.704l3.392-3.392c.821-.683 1.386-1.237 1.696-1.664.309-.437.464-.896.464-1.376 0-.619-.176-1.104-.528-1.456-.342-.352-.843-.528-1.504-.528-.619 0-1.115.187-1.488.56-.374.363-.603.848-.688 1.456-.022.128-.075.224-.16.288-.075.053-.16.08-.256.08h-.832c-.096 0-.176-.027-.24-.08-.064-.064-.096-.139-.096-.224.021-.576.176-1.125.464-1.648.288-.533.709-.965 1.264-1.296.565-.341 1.242-.512 2.032-.512 1.205 0 2.112.315 2.72.944.618.619.928 1.408.928 2.368 0 .672-.171 1.28-.512 1.824-.331.533-.848 1.109-1.552 1.728l-3.072 3.12h4.992c.117 0 .208.037.272.112.074.064.112.149.112.256v.656c0 .107-.038.197-.112.272-.075.064-.166.096-.272.096zm10.622 0c-.096 0-.176-.032-.24-.096-.053-.075-.08-.16-.08-.256l.032-.144 3.984-9.312h-5.248c-.106 0-.197-.032-.272-.096-.064-.075-.096-.165-.096-.272v-.64c0-.117.032-.208.096-.272.075-.075.166-.112.272-.112h6.56c.118 0 .208.037.272.112.075.064.112.155.112.272v.592c0 .192-.042.4-.128.624l-3.936 9.2c-.053.117-.117.213-.192.288-.064.075-.154.112-.272.112zm10.541 0c-.085 0-.165-.032-.24-.096-.064-.064-.096-.144-.096-.24s.038-.192.112-.288l2.784-3.632-2.608-3.44c-.074-.085-.112-.181-.112-.288 0-.096.032-.176.096-.24s.144-.096.24-.096h.816c.16 0 .299.085.416.256l2.128 2.768 2.128-2.752c.064-.085.123-.149.176-.192.064-.053.144-.08.24-.08h.784c.096 0 .176.032.24.096s.096.144.096.24c0 .107-.037.203-.112.288l-2.64 3.472 2.784 3.6c.075.096.112.192.112.288s-.032.176-.096.24-.144.096-.24.096h-.848c-.16 0-.298-.08-.416-.24l-2.24-2.928-2.272 2.928c-.064.075-.128.133-.192.176-.053.043-.128.064-.224.064zm12.899 0c-.106 0-.197-.032-.272-.096-.064-.075-.096-.165-.096-.272v-.512c0-.245.134-.48.4-.704l3.392-3.392c.822-.683 1.387-1.237 1.696-1.664.31-.437.464-.896.464-1.376 0-.619-.176-1.104-.528-1.456-.341-.352-.842-.528-1.504-.528-.618 0-1.114.187-1.488.56-.373.363-.602.848-.688 1.456-.021.128-.074.224-.16.288-.074.053-.16.08-.256.08h-.832c-.096 0-.176-.027-.24-.08-.064-.064-.096-.139-.096-.224.022-.576.176-1.125.464-1.648.288-.533.71-.965 1.264-1.296.566-.341 1.243-.512 2.032-.512 1.206 0 2.112.315 2.72.944.619.619.928 1.408.928 2.368 0 .672-.17 1.28-.512 1.824-.33.533-.848 1.109-1.552 1.728l-3.072 3.12h4.992c.118 0 .208.037.272.112.075.064.112.149.112.256v.656c0 .107-.037.197-.112.272-.074.064-.165.096-.272.096zm13.007.16c-.843 0-1.573-.133-2.192-.4-.608-.277-1.072-.635-1.392-1.072-.309-.437-.475-.896-.496-1.376 0-.096.032-.171.096-.224.064-.064.144-.096.24-.096h.784c.224 0 .373.117.448.352.139.533.437.912.896 1.136.459.213.997.32 1.616.32.757 0 1.36-.176 1.808-.528.448-.363.672-.88.672-1.552 0-1.291-.784-1.936-2.352-1.936h-1.52c-.107 0-.197-.032-.272-.096-.064-.075-.096-.165-.096-.272v-.432c0-.149.059-.293.176-.432l3.104-3.392h-4.72c-.107 0-.197-.032-.272-.096-.064-.075-.096-.165-.096-.272v-.608c0-.107.032-.197.096-.272.075-.075.165-.112.272-.112h6.384c.117 0 .208.037.272.112.075.064.112.155.112.272v.576c0 .128-.059.251-.176.368l-3.088 3.44.256.016c1.088.032 1.947.315 2.576.848s.944 1.312.944 2.336c0 .693-.176 1.296-.528 1.808s-.837.907-1.456 1.184c-.619.267-1.317.4-2.096.4zm13.31 0c-1.14 0-2.04-.32-2.69-.96-.64-.651-.98-1.557-1.02-2.72l-.02-.64.02-.64c.04-1.163.38-2.064 1.02-2.704.65-.651 1.55-.976 2.69-.976.77 0 1.42.139 1.95.416s.93.619 1.18 1.024c.27.405.41.811.44 1.216.01.107-.03.192-.1.256-.08.064-.17.096-.27.096h-.77c-.11 0-.19-.021-.24-.064s-.11-.128-.16-.256c-.18-.512-.44-.875-.77-1.088-.33-.224-.75-.336-1.25-.336-.66 0-1.19.208-1.58.624-.38.405-.59 1.029-.62 1.872l-.02.576.02.544c.03.853.24 1.483.62 1.888s.91.608 1.58.608c.5 0 .92-.107 1.25-.32.33-.224.59-.592.77-1.104.05-.128.11-.213.16-.256.05-.053.13-.08.24-.08h.77c.1 0 .19.037.27.112.07.064.11.149.1.256-.03.395-.17.8-.44 1.216-.25.405-.65.747-1.18 1.024-.52.277-1.17.416-1.95.416zm5.83-.16c-.1 0-.19-.032-.27-.096-.06-.075-.09-.165-.09-.272v-7.584c0-.107.03-.192.09-.256.08-.075.17-.112.27-.112h.72c.11 0 .2.037.26.112.07.064.11.149.11.256v.56c.56-.725 1.33-1.088 2.32-1.088 1.19 0 2.02.491 2.51 1.472.26-.448.62-.805 1.09-1.072s1-.4 1.59-.4c.87 0 1.58.299 2.14.896.55.597.83 1.461.83 2.592v4.624c0 .107-.04.197-.11.272-.06.064-.15.096-.26.096h-.75c-.11 0-.2-.032-.27-.096-.06-.075-.1-.165-.1-.272v-4.48c0-.832-.17-1.429-.52-1.792s-.8-.544-1.36-.544c-.51 0-.94.187-1.3.56-.36.363-.54.955-.54 1.776v4.48c0 .107-.04.197-.12.272-.06.064-.15.096-.25.096h-.75c-.11 0-.2-.032-.28-.096-.06-.075-.09-.165-.09-.272v-4.48c0-.832-.18-1.429-.55-1.792-.35-.363-.8-.544-1.34-.544-.5 0-.93.187-1.3.56-.36.363-.54.949-.54 1.76v4.496c0 .107-.04.197-.11.272-.07.064-.15.096-.26.096z" fill="#696f83"/><path d="m50.632 231.01c-.1067 0-.1973-.038-.272-.112-.0747-.075-.112-.166-.112-.272v-10.416c0-.118.032-.214.096-.288.0747-.075.1707-.112.288-.112h3.904c3.136 0 4.736 1.45 4.8 4.352.0213.618.032 1.034.032 1.248 0 .202-.0107.613-.032 1.232-.0427 1.493-.4427 2.597-1.2 3.312-.7573.704-1.9307 1.056-3.52 1.056zm3.904-1.84c.896 0 1.5413-.198 1.936-.592.3947-.406.6027-1.067.624-1.984.0213-.64.032-1.04.032-1.2 0-.171-.0107-.566-.032-1.184-.0213-.875-.2453-1.52-.672-1.936-.416-.416-1.072-.624-1.968-.624h-1.984v7.52zm7.09-7.856c-.1067 0-.1973-.038-.272-.112-.0747-.075-.112-.166-.112-.272v-1.152c0-.107.0373-.198.112-.272.0747-.075.1653-.112.272-.112h1.456c.1067 0 .1973.037.272.112.0853.074.128.165.128.272v1.152c0 .106-.0373.197-.112.272-.0747.074-.1707.112-.288.112zm.064 9.696c-.1067 0-.1973-.038-.272-.112-.0747-.075-.112-.166-.112-.272v-7.552c0-.107.0373-.198.112-.272.0747-.075.1653-.112.272-.112h1.328c.1173 0 .208.037.272.112.0747.064.112.154.112.272v7.552c0 .106-.0373.197-.112.272-.064.074-.1547.112-.272.112zm4.2188 0c-.1067 0-.1974-.038-.272-.112-.0747-.075-.1121-.166-.1121-.272v-7.552c0-.107.0374-.198.1121-.272.0746-.075.1653-.112.272-.112h1.248c.1066 0 .1973.037.272.112.0746.074.112.165.112.272v.544c.5546-.726 1.328-1.088 2.32-1.088 1.184 0 2.0106.474 2.48 1.424.256-.427.6186-.768 1.088-1.024.4693-.267.976-.4 1.52-.4.8746 0 1.5893.298 2.144.896.5546.597.832 1.466.832 2.608v4.592c0 .106-.0374.197-.112.272-.064.074-.1547.112-.272.112h-1.312c-.1067 0-.1974-.038-.272-.112-.0747-.075-.112-.166-.112-.272v-4.464c0-.672-.144-1.158-.432-1.456-.2774-.31-.6507-.464-1.12-.464-.416 0-.7734.154-1.072.464-.288.309-.432.794-.432 1.456v4.464c0 .106-.0374.197-.112.272-.0747.074-.1654.112-.272.112h-1.312c-.1067 0-.1974-.038-.272-.112-.0747-.075-.112-.166-.112-.272v-4.464c0-.672-.1494-1.158-.448-1.456-.288-.31-.656-.464-1.104-.464-.4267 0-.7894.154-1.088.464-.288.309-.432.794-.432 1.456v4.464c0 .106-.0374.197-.112.272-.0747.074-.1654.112-.272.112zm17.6375.16c-1.184 0-2.128-.342-2.832-1.024-.6934-.694-1.0614-1.664-1.104-2.912l-.016-.4.016-.4c.0533-1.216.4266-2.171 1.12-2.864.704-.694 1.6426-1.04 2.816-1.04 1.2586 0 2.2293.384 2.912 1.152.6933.768 1.04 1.792 1.04 3.072v.336c0 .106-.0374.197-.112.272-.0747.074-.1707.112-.288.112h-5.312v.128c.0213.586.1813 1.082.48 1.488.3093.394.7306.592 1.264.592.6293 0 1.136-.246 1.52-.736.096-.118.1706-.192.224-.224.064-.032.1546-.048.272-.048h1.376c.096 0 .176.032.24.096.0746.053.112.122.112.208 0 .256-.1547.56-.464.912-.2987.341-.7307.64-1.296.896-.5654.256-1.2214.384-1.968.384zm1.776-5.04v-.048c0-.63-.16-1.136-.48-1.52-.3094-.384-.7414-.576-1.296-.576-.5547 0-.9867.192-1.296.576-.3094.384-.464.89-.464 1.52v.048zm4.2583 4.88c-.1066 0-.1973-.038-.272-.112-.0746-.075-.112-.166-.112-.272v-7.552c0-.107.0374-.198.112-.272.0747-.075.1654-.112.272-.112h1.312c.1067 0 .1974.037.272.112.0747.074.112.165.112.272v.656c.6294-.8 1.52-1.2 2.672-1.2.9814 0 1.76.325 2.336.976.576.64.864 1.514.864 2.624v4.496c0 .106-.0373.197-.112.272-.064.074-.1546.112-.272.112h-1.408c-.1066 0-.1973-.038-.272-.112-.0746-.075-.112-.166-.112-.272v-4.4c0-.63-.1546-1.115-.464-1.456-.2986-.352-.736-.528-1.312-.528-.5653 0-1.0133.176-1.344.528-.32.352-.48.837-.48 1.456v4.4c0 .106-.0373.197-.112.272-.064.074-.1546.112-.272.112zm12.7524.16c-.8 0-1.472-.118-2.016-.352-.544-.246-.9493-.528-1.216-.848-.256-.331-.384-.614-.384-.848 0-.107.0373-.192.112-.256s.16-.096.256-.096h1.264c.096 0 .176.037.24.112.043.032.155.128.336.288.181.17.395.304.64.4s.517.144.816.144c.427 0 .779-.086 1.056-.256.277-.171.416-.406.416-.704 0-.224-.064-.406-.192-.544-.117-.139-.336-.262-.656-.368-.32-.118-.795-.24-1.424-.368-.907-.192-1.579-.486-2.016-.88-.4267-.395-.64-.918-.64-1.568 0-.427.128-.827.384-1.2.256-.384.6347-.694 1.136-.928.512-.246 1.12-.368 1.824-.368.715 0 1.333.117 1.856.352.523.224.917.496 1.184.816.277.309.416.586.416.832 0 .096-.037.181-.112.256-.064.064-.144.096-.24.096h-1.184c-.085 0-.176-.038-.272-.112-.075-.054-.192-.155-.352-.304-.16-.15-.347-.267-.56-.352-.213-.086-.464-.128-.752-.128-.395 0-.704.085-.928.256-.213.17-.32.394-.32.672 0 .202.053.368.16.496s.315.25.624.368c.309.117.773.234 1.392.352 1.024.202 1.755.517 2.192.944.448.426.672.949.672 1.568 0 .746-.325 1.354-.976 1.824-.651.469-1.563.704-2.736.704zm5.684-9.856c-.107 0-.198-.038-.272-.112-.075-.075-.112-.166-.112-.272v-1.152c0-.107.037-.198.112-.272.074-.075.165-.112.272-.112h1.456c.106 0 .197.037.272.112.085.074.128.165.128.272v1.152c0 .106-.038.197-.112.272-.075.074-.171.112-.288.112zm.064 9.696c-.107 0-.198-.038-.272-.112-.075-.075-.112-.166-.112-.272v-7.552c0-.107.037-.198.112-.272.074-.075.165-.112.272-.112h1.328c.117 0 .208.037.272.112.074.064.112.154.112.272v7.552c0 .106-.038.197-.112.272-.064.074-.155.112-.272.112zm7.514.16c-1.248 0-2.213-.32-2.896-.96-.682-.651-1.05-1.536-1.104-2.656l-.016-.704.016-.704c.054-1.11.427-1.99 1.12-2.64.694-.651 1.654-.976 2.88-.976 1.227 0 2.187.325 2.88.976.694.65 1.067 1.53 1.12 2.64.011.128.016.362.016.704 0 .341-.005.576-.016.704-.053 1.12-.421 2.005-1.104 2.656-.682.64-1.648.96-2.896.96zm0-1.584c.566 0 1.003-.176 1.312-.528.31-.363.48-.891.512-1.584.011-.107.016-.315.016-.624 0-.31-.005-.518-.016-.624-.032-.694-.202-1.216-.512-1.568-.309-.363-.746-.544-1.312-.544-.565 0-1.002.181-1.312.544-.309.352-.48.874-.512 1.568l-.016.624.016.624c.032.693.203 1.221.512 1.584.31.352.747.528 1.312.528zm6.173 1.424c-.107 0-.197-.038-.272-.112-.075-.075-.112-.166-.112-.272v-7.552c0-.107.037-.198.112-.272.075-.075.165-.112.272-.112h1.312c.107 0 .197.037.272.112.075.074.112.165.112.272v.656c.629-.8 1.52-1.2 2.672-1.2.981 0 1.76.325 2.336.976.576.64.864 1.514.864 2.624v4.496c0 .106-.037.197-.112.272-.064.074-.155.112-.272.112h-1.408c-.107 0-.197-.038-.272-.112-.075-.075-.112-.166-.112-.272v-4.4c0-.63-.155-1.115-.464-1.456-.299-.352-.736-.528-1.312-.528-.565 0-1.013.176-1.344.528-.32.352-.48.837-.48 1.456v4.4c0 .106-.037.197-.112.272-.064.074-.155.112-.272.112zm16.937.16c-1.248 0-2.214-.32-2.896-.96-.683-.651-1.051-1.536-1.104-2.656l-.016-.704.016-.704c.053-1.11.426-1.99 1.12-2.64.693-.651 1.653-.976 2.88-.976 1.226 0 2.186.325 2.88.976.693.65 1.066 1.53 1.12 2.64.01.128.016.362.016.704 0 .341-.006.576-.016.704-.054 1.12-.422 2.005-1.104 2.656-.683.64-1.648.96-2.896.96zm0-1.584c.565 0 1.002-.176 1.312-.528.309-.363.48-.891.512-1.584.01-.107.016-.315.016-.624 0-.31-.006-.518-.016-.624-.032-.694-.203-1.216-.512-1.568-.31-.363-.747-.544-1.312-.544-.566 0-1.003.181-1.312.544-.31.352-.48.874-.512 1.568l-.016.624.016.624c.032.693.202 1.221.512 1.584.309.352.746.528 1.312.528zm6.975 1.424c-.107 0-.198-.038-.272-.112-.075-.075-.112-.166-.112-.272v-6.24h-1.296c-.107 0-.198-.038-.272-.112-.075-.086-.112-.182-.112-.288v-.912c0-.107.037-.198.112-.272.074-.075.165-.112.272-.112h1.296v-.656c0-1.91 1.045-2.864 3.136-2.864h1.088c.117 0 .208.037.272.112.074.064.112.154.112.272v.912c0 .117-.038.213-.112.288-.075.074-.166.112-.272.112h-1.024c-.416 0-.71.101-.88.304-.16.202-.24.517-.24.944v.576h1.984c.117 0 .208.037.272.112.074.064.112.154.112.272v.912c0 .117-.038.213-.112.288-.075.074-.166.112-.272.112h-1.984v6.24c0 .106-.038.197-.112.272-.075.074-.166.112-.272.112zm12.105 0c-.971 0-1.702-.251-2.192-.752-.48-.512-.72-1.259-.72-2.24v-3.632h-1.264c-.107 0-.198-.038-.272-.112-.075-.086-.112-.182-.112-.288v-.912c0-.107.037-.198.112-.272.074-.075.165-.112.272-.112h1.264v-2.656c0-.118.037-.208.112-.272.074-.075.165-.112.272-.112h1.296c.117 0 .208.037.272.112.074.064.112.154.112.272v2.656h2c.117 0 .208.037.272.112.074.064.112.154.112.272v.912c0 .117-.038.213-.112.288-.075.074-.166.112-.272.112h-2v3.472c0 .458.08.805.24 1.04.16.234.426.352.8.352h1.104c.106 0 .197.037.272.112.074.074.112.165.112.272v.992c0 .106-.038.197-.112.272-.064.074-.155.112-.272.112zm3.499 0c-.107 0-.197-.038-.272-.112-.075-.075-.112-.166-.112-.272v-10.592c0-.118.037-.208.112-.272.075-.075.165-.112.272-.112h1.424c.117 0 .208.037.272.112.075.064.112.154.112.272v3.648c.64-.768 1.504-1.152 2.592-1.152.981 0 1.765.325 2.352.976.587.64.88 1.514.88 2.624v4.496c0 .106-.037.197-.112.272-.064.074-.155.112-.272.112h-1.44c-.107 0-.197-.038-.272-.112-.075-.075-.112-.166-.112-.272v-4.4c0-.63-.155-1.115-.464-1.456-.299-.352-.736-.528-1.312-.528-.565 0-1.013.176-1.344.528s-.496.837-.496 1.456v4.4c0 .106-.037.197-.112.272-.064.074-.155.112-.272.112zm13.247.16c-1.184 0-2.128-.342-2.832-1.024-.694-.694-1.062-1.664-1.104-2.912l-.016-.4.016-.4c.053-1.216.426-2.171 1.12-2.864.704-.694 1.642-1.04 2.816-1.04 1.258 0 2.229.384 2.912 1.152.693.768 1.04 1.792 1.04 3.072v.336c0 .106-.038.197-.112.272-.075.074-.171.112-.288.112h-5.312v.128c.021.586.181 1.082.48 1.488.309.394.73.592 1.264.592.629 0 1.136-.246 1.52-.736.096-.118.17-.192.224-.224.064-.032.154-.048.272-.048h1.376c.096 0 .176.032.24.096.074.053.112.122.112.208 0 .256-.155.56-.464.912-.299.341-.731.64-1.296.896-.566.256-1.222.384-1.968.384zm1.776-5.04v-.048c0-.63-.16-1.136-.48-1.52-.31-.384-.742-.576-1.296-.576-.555 0-.987.192-1.296.576-.31.384-.464.89-.464 1.52v.048zm11.13 5.04c-1.173 0-2.112-.326-2.816-.976-.693-.651-1.061-1.552-1.104-2.704l-.016-.64.016-.64c.043-1.152.411-2.054 1.104-2.704.704-.651 1.643-.976 2.816-.976.832 0 1.536.149 2.112.448.587.298 1.019.666 1.296 1.104.288.426.443.832.464 1.216.011.106-.026.197-.112.272-.074.074-.165.112-.272.112h-1.408c-.106 0-.192-.022-.256-.064-.053-.054-.106-.139-.16-.256-.16-.416-.373-.715-.64-.896-.256-.182-.586-.272-.992-.272-.544 0-.97.176-1.28.528-.309.341-.474.864-.496 1.568l-.016.592.016.528c.043 1.397.635 2.096 1.776 2.096.416 0 .752-.091 1.008-.272.256-.182.464-.48.624-.896.054-.118.107-.198.16-.24.064-.054.15-.08.256-.08h1.408c.107 0 .198.037.272.112.086.074.123.165.112.272-.021.373-.17.773-.448 1.2-.277.426-.704.794-1.28 1.104-.576.309-1.29.464-2.144.464zm8.629 0c-.981 0-1.755-.32-2.32-.96-.565-.651-.848-1.531-.848-2.64v-4.496c0-.107.037-.198.112-.272.075-.075.165-.112.272-.112h1.408c.117 0 .208.037.272.112.075.064.112.154.112.272v4.4c0 1.322.581 1.984 1.744 1.984.555 0 .992-.176 1.312-.528.331-.352.496-.838.496-1.456v-4.4c0-.107.037-.198.112-.272.075-.075.165-.112.272-.112h1.408c.117 0 .208.037.272.112.075.064.112.154.112.272v7.552c0 .106-.037.197-.112.272-.064.074-.155.112-.272.112h-1.296c-.107 0-.197-.038-.272-.112-.075-.075-.112-.166-.112-.272v-.656c-.597.8-1.488 1.2-2.672 1.2zm7.249 2.88c-.106 0-.197-.038-.272-.112-.074-.064-.112-.155-.112-.272v-10.592c0-.118.038-.208.112-.272.075-.075.166-.112.272-.112h1.264c.118 0 .208.037.272.112.075.064.112.154.112.272v.64c.598-.79 1.451-1.184 2.56-1.184 1.078 0 1.904.341 2.48 1.024.576.672.886 1.584.928 2.736.011.128.016.314.016.56 0 .256-.005.448-.016.576-.042 1.12-.352 2.026-.928 2.72-.576.682-1.402 1.024-2.48 1.024-1.077 0-1.898-.379-2.464-1.136v3.632c0 .117-.037.208-.112.272-.064.074-.154.112-.272.112zm3.616-4.592c1.152 0 1.766-.71 1.84-2.128.011-.107.016-.267.016-.48 0-.214-.005-.374-.016-.48-.074-1.419-.688-2.128-1.84-2.128-.618 0-1.077.197-1.376.592-.298.394-.464.88-.496 1.456l-.016.608.016.624c.022.533.187.992.496 1.376.32.373.779.56 1.376.56zm9.493 1.712c-1.248 0-2.214-.32-2.896-.96-.683-.651-1.051-1.536-1.104-2.656l-.016-.704.016-.704c.053-1.11.426-1.99 1.12-2.64.693-.651 1.653-.976 2.88-.976 1.226 0 2.186.325 2.88.976.693.65 1.066 1.53 1.12 2.64.01.128.016.362.016.704 0 .341-.006.576-.016.704-.054 1.12-.422 2.005-1.104 2.656-.683.64-1.648.96-2.896.96zm0-1.584c.565 0 1.002-.176 1.312-.528.309-.363.48-.891.512-1.584.01-.107.016-.315.016-.624 0-.31-.006-.518-.016-.624-.032-.694-.203-1.216-.512-1.568-.31-.363-.747-.544-1.312-.544-.566 0-1.003.181-1.312.544-.31.352-.48.874-.512 1.568l-.016.624.016.624c.032.693.202 1.221.512 1.584.309.352.746.528 1.312.528zm6.188 1.424c-.106 0-.197-.038-.272-.112-.074-.075-.112-.166-.112-.272v-10.592c0-.118.038-.208.112-.272.075-.075.166-.112.272-.112h1.328c.118 0 .208.037.272.112.075.064.112.154.112.272v10.592c0 .106-.037.197-.112.272-.064.074-.154.112-.272.112zm6.251.16c-.544 0-1.046-.107-1.504-.32-.448-.224-.806-.523-1.072-.896-.256-.374-.384-.784-.384-1.232 0-.726.293-1.312.88-1.76.586-.448 1.392-.752 2.416-.912l2.192-.32v-.336c0-.47-.118-.822-.352-1.056-.235-.235-.614-.352-1.136-.352-.352 0-.64.069-.864.208-.214.128-.384.256-.512.384-.128.138-.214.229-.256.272-.043.128-.123.192-.24.192h-1.232c-.096 0-.182-.032-.256-.096-.064-.064-.096-.15-.096-.256.01-.267.138-.571.384-.912.256-.342.645-.635 1.168-.88.522-.246 1.162-.368 1.92-.368 1.258 0 2.176.282 2.752.848.576.565.864 1.306.864 2.224v5.024c0 .106-.038.197-.112.272-.064.074-.155.112-.272.112h-1.296c-.107 0-.198-.038-.272-.112-.075-.075-.112-.166-.112-.272v-.624c-.235.341-.571.624-1.008.848-.427.213-.96.32-1.6.32zm.544-1.52c.586 0 1.066-.192 1.44-.576.373-.384.56-.944.56-1.68v-.336l-1.6.256c-.619.096-1.088.25-1.408.464-.31.213-.464.474-.464.784 0 .341.144.608.432.8s.634.288 1.04.288z" fill="#303c45"/><path d="m49 201.556h975" stroke="#d9e4ee"/><path d="m983.808 173.863c-.096 0-.224-.053-.384-.16l-5.04-3.472c-.16-.117-.278-.229-.352-.336-.075-.107-.112-.235-.112-.384v-.272c0-.149.032-.277.096-.384.074-.107.197-.224.368-.352l5.04-3.456c.16-.107.288-.16.384-.16s.17.032.224.096c.064.053.096.128.096.224v.704c0 .117-.032.213-.096.288-.054.075-.144.155-.272.24l-4.288 2.928 4.288 2.928c.138.096.234.181.288.256.053.075.08.171.08.288v.704c0 .096-.032.176-.096.24-.054.053-.128.08-.224.08zm9.748 1.136c-.106 0-.197-.032-.272-.096-.064-.075-.096-.165-.096-.272v-8.96l-2.656 2.048c-.074.064-.154.096-.24.096-.096 0-.186-.053-.272-.16l-.416-.528c-.053-.075-.08-.149-.08-.224 0-.128.054-.229.16-.304l3.488-2.688c.118-.075.256-.112.416-.112h.816c.107 0 .192.037.256.112.075.064.112.149.112.256v10.464c0 .107-.037.197-.112.272-.064.064-.149.096-.256.096zm7.504.16c-1.38 0-2.388-.4-3.028-1.2s-.981-1.851-1.024-3.152c-.01-.288-.016-.752-.016-1.392 0-.661.006-1.141.016-1.44.032-1.28.374-2.32 1.024-3.12.651-.811 1.659-1.216 3.028-1.216 1.37 0 2.39.405 3.04 1.216.65.8.99 1.84 1.02 3.12.02.597.03 1.077.03 1.44 0 .352-.01.816-.03 1.392-.04 1.301-.38 2.352-1.02 3.152s-1.66 1.2-3.04 1.2zm0-1.376c.8 0 1.4-.267 1.8-.8.42-.533.64-1.285.66-2.256.02-.619.03-1.067.03-1.344 0-.299-.01-.736-.03-1.312-.02-.96-.23-1.712-.64-2.256s-1.01-.816-1.82-.816c-.8 0-1.412.272-1.828.816-.405.544-.618 1.296-.64 2.256l-.016 1.312.016 1.344c.022.971.235 1.723.64 2.256.416.533 1.028.8 1.828.8zm12.03 1.216c-.28 0-.44-.144-.49-.432l-2.07-10.272c-.01-.053-.01-.112-.01-.176 0-.085.03-.16.09-.224.07-.064.14-.096.23-.096h.83c.22 0 .35.091.38.272l1.63 8.256 1.73-5.664c.1-.256.27-.384.51-.384h.6c.13 0 .24.037.32.112s.14.165.17.272l1.75 5.664 1.61-8.256c.03-.181.17-.272.4-.272h.83c.09 0 .16.032.23.096.06.064.09.139.09.224l-.01.176-2.07 10.272c-.06.288-.23.432-.49.432h-.63c-.27 0-.45-.133-.52-.4l-1.99-6.096-1.97 6.096c-.08.267-.26.4-.52.4z" fill="#696f83"/><path d="m50.648 174.505c-.1173 0-.2133-.032-.288-.096-.0747-.075-.112-.171-.112-.288v-10.416c0-.117.0373-.213.112-.288s.1707-.112.288-.112h1.264c.224 0 .384.101.48.304l3.088 5.76 3.12-5.76c.1067-.203.2667-.304.48-.304h1.248c.1173 0 .2133.037.288.112s.112.171.112.288v10.416c0 .117-.0373.213-.112.288-.0747.064-.1707.096-.288.096h-1.344c-.1067 0-.1973-.037-.272-.112s-.112-.165-.112-.272v-6.928l-2.24 4.272c-.1387.235-.32.352-.544.352h-.656c-.224 0-.4053-.117-.544-.352l-2.24-4.272v6.928c0 .107-.0373.197-.112.272-.064.075-.1547.112-.272.112zm14.7928.16c-.544 0-1.0454-.107-1.504-.32-.448-.224-.8054-.523-1.072-.896-.256-.373-.384-.784-.384-1.232 0-.725.2933-1.312.88-1.76.5866-.448 1.392-.752 2.416-.912l2.192-.32v-.336c0-.469-.1174-.821-.352-1.056-.2347-.235-.6134-.352-1.136-.352-.352 0-.64.069-.864.208-.2134.128-.384.256-.512.384-.128.139-.2134.229-.256.272-.0427.128-.1227.192-.24.192h-1.232c-.096 0-.1814-.032-.256-.096-.064-.064-.0961-.149-.0961-.256.0107-.267.1387-.571.3841-.912.256-.341.6453-.635 1.168-.88.5226-.245 1.1626-.368 1.92-.368 1.2586 0 2.176.283 2.752.848s.864 1.307.864 2.224v5.024c0 .107-.0374.197-.112.272-.064.075-.1547.112-.272.112h-1.296c-.1067 0-.1974-.037-.272-.112-.0747-.075-.112-.165-.112-.272v-.624c-.2347.341-.5707.624-1.008.848-.4267.213-.96.32-1.6.32zm.544-1.52c.5866 0 1.0666-.192 1.44-.576.3733-.384.56-.944.56-1.68v-.336l-1.6.256c-.6187.096-1.088.251-1.408.464-.3094.213-.464.475-.464.784 0 .341.144.608.432.8s.6346.288 1.04.288zm5.8286 1.36c-.096 0-.1814-.032-.256-.096-.064-.075-.096-.16-.096-.256s.0373-.187.112-.272l2.72-3.648-2.528-3.424c-.064-.085-.096-.176-.096-.272s.032-.176.096-.24c.0746-.075.16-.112.256-.112h1.392c.1066 0 .1866.027.24.08.064.043.128.107.192.192l1.808 2.4 1.808-2.4c.0106-.011.0533-.059.128-.144.064-.085.1653-.128.304-.128h1.328c.096 0 .176.037.24.112.0746.064.112.139.112.224 0 .107-.032.203-.096.288l-2.56 3.456 2.736 3.616c.0746.085.112.176.112.272s-.0374.181-.112.256c-.064.064-.144.096-.24.096h-1.456c-.1707 0-.3147-.085-.432-.256l-1.92-2.544-1.952 2.544c-.1174.171-.2614.256-.432.256zm13.4395 3.04c-.1067 0-.1974-.037-.272-.112-.0747-.064-.112-.155-.112-.272v-10.592c0-.117.0373-.208.112-.272.0746-.075.1653-.112.272-.112h1.264c.1173 0 .208.037.272.112.0746.064.112.155.112.272v.64c.5973-.789 1.4506-1.184 2.56-1.184 1.0773 0 1.904.341 2.48 1.024.576.672.8853 1.584.928 2.736.0106.128.016.315.016.56 0 .256-.0054.448-.016.576-.0427 1.12-.352 2.027-.928 2.72-.576.683-1.4027 1.024-2.48 1.024-1.0774 0-1.8987-.379-2.464-1.136v3.632c0 .117-.0374.208-.112.272-.064.075-.1547.112-.272.112zm3.616-4.592c1.152 0 1.7653-.709 1.84-2.128.0106-.107.016-.267.016-.48s-.0054-.373-.016-.48c-.0747-1.419-.688-2.128-1.84-2.128-.6187 0-1.0774.197-1.376.592-.2987.395-.464.88-.496 1.456l-.016.608.016.624c.0213.533.1866.992.496 1.376.32.373.7786.56 1.376.56zm9.4921 1.712c-1.248 0-2.2133-.32-2.896-.96-.6827-.651-1.0507-1.536-1.104-2.656l-.016-.704.016-.704c.0533-1.109.4267-1.989 1.12-2.64s1.6533-.976 2.88-.976 2.187.325 2.88.976 1.067 1.531 1.12 2.64c.011.128.016.363.016.704s-.005.576-.016.704c-.053 1.12-.421 2.005-1.104 2.656-.683.64-1.648.96-2.896.96zm0-1.584c.5653 0 1.0027-.176 1.312-.528.3093-.363.48-.891.512-1.584.011-.107.016-.315.016-.624s-.005-.517-.016-.624c-.032-.693-.2027-1.216-.512-1.568-.3093-.363-.7467-.544-1.312-.544s-1.0027.181-1.312.544c-.3093.352-.48.875-.512 1.568l-.016.624.016.624c.032.693.2027 1.221.512 1.584.3093.352.7467.528 1.312.528zm7.826 1.424c-.138 0-.25-.032-.336-.096-.074-.075-.138-.176-.192-.304l-2.288-7.424c-.01-.032-.016-.08-.016-.144 0-.096.032-.176.096-.24.075-.075.155-.112.24-.112h1.184c.118 0 .214.032.288.096.075.064.123.133.144.208l1.568 5.296 1.664-5.248c.032-.096.086-.176.16-.24.086-.075.192-.112.32-.112h.8c.128 0 .23.037.304.112.086.064.144.144.176.24l1.664 5.248 1.568-5.296c.011-.075.054-.144.128-.208.086-.064.182-.096.288-.096h1.184c.096 0 .176.037.24.112.075.064.112.144.112.24l-.032.144-2.288 7.424c-.042.128-.106.229-.192.304-.074.064-.181.096-.32.096h-1.04c-.277 0-.453-.133-.528-.4l-1.664-5.056-1.664 5.056c-.085.267-.266.4-.544.4zm14.203.16c-1.184 0-2.128-.341-2.832-1.024-.693-.693-1.061-1.664-1.104-2.912l-.016-.4.016-.4c.053-1.216.427-2.171 1.12-2.864.704-.693 1.643-1.04 2.816-1.04 1.259 0 2.229.384 2.912 1.152.693.768 1.04 1.792 1.04 3.072v.336c0 .107-.037.197-.112.272s-.171.112-.288.112h-5.312v.128c.021.587.181 1.083.48 1.488.309.395.731.592 1.264.592.629 0 1.136-.245 1.52-.736.096-.117.171-.192.224-.224.064-.032.155-.048.272-.048h1.376c.096 0 .176.032.24.096.075.053.112.123.112.208 0 .256-.155.56-.464.912-.299.341-.731.64-1.296.896s-1.221.384-1.968.384zm1.776-5.04v-.048c0-.629-.16-1.136-.48-1.52-.309-.384-.741-.576-1.296-.576s-.987.192-1.296.576-.464.891-.464 1.52v.048zm4.258 4.88c-.106 0-.197-.037-.272-.112-.074-.075-.112-.165-.112-.272v-7.536c0-.107.038-.197.112-.272.075-.085.166-.128.272-.128h1.296c.118 0 .214.037.288.112.075.075.112.171.112.288v.656c.256-.341.576-.603.96-.784.395-.181.843-.272 1.344-.272h.656c.118 0 .208.037.272.112.075.064.112.155.112.272v1.152c0 .107-.037.197-.112.272-.064.075-.154.112-.272.112h-1.248c-.501 0-.896.144-1.184.432s-.432.683-.432 1.184v4.4c0 .107-.037.197-.112.272-.074.075-.17.112-.288.112zm13.201.16c-1.174 0-2.112-.325-2.816-.976-.694-.651-1.062-1.552-1.104-2.704l-.016-.64.016-.64c.042-1.152.41-2.053 1.104-2.704.704-.651 1.642-.976 2.816-.976.832 0 1.536.149 2.112.448.586.299 1.018.667 1.296 1.104.288.427.442.832.464 1.216.01.107-.027.197-.112.272-.075.075-.166.112-.272.112h-1.408c-.107 0-.192-.021-.256-.064-.054-.053-.107-.139-.16-.256-.16-.416-.374-.715-.64-.896-.256-.181-.587-.272-.992-.272-.544 0-.971.176-1.28.528-.31.341-.475.864-.496 1.568l-.016.592.016.528c.042 1.397.634 2.096 1.776 2.096.416 0 .752-.091 1.008-.272s.464-.48.624-.896c.053-.117.106-.197.16-.24.064-.053.149-.08.256-.08h1.408c.106 0 .197.037.272.112.085.075.122.165.112.272-.022.373-.171.773-.448 1.2-.278.427-.704.795-1.28 1.104s-1.291.464-2.144.464zm9.22 0c-1.248 0-2.213-.32-2.896-.96-.682-.651-1.05-1.536-1.104-2.656l-.016-.704.016-.704c.054-1.109.427-1.989 1.12-2.64.694-.651 1.654-.976 2.88-.976 1.227 0 2.187.325 2.88.976.694.651 1.067 1.531 1.12 2.64.011.128.016.363.016.704s-.005.576-.016.704c-.053 1.12-.421 2.005-1.104 2.656-.682.64-1.648.96-2.896.96zm0-1.584c.566 0 1.003-.176 1.312-.528.31-.363.48-.891.512-1.584.011-.107.016-.315.016-.624s-.005-.517-.016-.624c-.032-.693-.202-1.216-.512-1.568-.309-.363-.746-.544-1.312-.544-.565 0-1.002.181-1.312.544-.309.352-.48.875-.512 1.568l-.016.624.016.624c.032.693.203 1.221.512 1.584.31.352.747.528 1.312.528zm6.173 1.424c-.107 0-.197-.037-.272-.112s-.112-.165-.112-.272v-7.552c0-.107.037-.197.112-.272s.165-.112.272-.112h1.312c.107 0 .197.037.272.112s.112.165.112.272v.656c.629-.8 1.52-1.2 2.672-1.2.981 0 1.76.325 2.336.976.576.64.864 1.515.864 2.624v4.496c0 .107-.037.197-.112.272-.064.075-.155.112-.272.112h-1.408c-.107 0-.197-.037-.272-.112s-.112-.165-.112-.272v-4.4c0-.629-.155-1.115-.464-1.456-.299-.352-.736-.528-1.312-.528-.565 0-1.013.176-1.344.528-.32.352-.48.837-.48 1.456v4.4c0 .107-.037.197-.112.272-.064.075-.155.112-.272.112zm12.753.16c-.8 0-1.472-.117-2.016-.352-.544-.245-.95-.528-1.216-.848-.256-.331-.384-.613-.384-.848 0-.107.037-.192.112-.256.074-.064.16-.096.256-.096h1.264c.096 0 .176.037.24.112.042.032.154.128.336.288.181.171.394.304.64.4.245.096.517.144.816.144.426 0 .778-.085 1.056-.256.277-.171.416-.405.416-.704 0-.224-.064-.405-.192-.544-.118-.139-.336-.261-.656-.368-.32-.117-.795-.24-1.424-.368-.907-.192-1.579-.485-2.016-.88-.427-.395-.64-.917-.64-1.568 0-.427.128-.827.384-1.2.256-.384.634-.693 1.136-.928.512-.245 1.12-.368 1.824-.368.714 0 1.333.117 1.856.352.522.224.917.496 1.184.816.277.309.416.587.416.832 0 .096-.038.181-.112.256-.064.064-.144.096-.24.096h-1.184c-.086 0-.176-.037-.272-.112-.075-.053-.192-.155-.352-.304s-.347-.267-.56-.352c-.214-.085-.464-.128-.752-.128-.395 0-.704.085-.928.256-.214.171-.32.395-.32.672 0 .203.053.368.16.496.106.128.314.251.624.368.309.117.773.235 1.392.352 1.024.203 1.754.517 2.192.944.448.427.672.949.672 1.568 0 .747-.326 1.355-.976 1.824-.651.469-1.563.704-2.736.704zm8.451 0c-.981 0-1.755-.32-2.32-.96-.565-.651-.848-1.531-.848-2.64v-4.496c0-.107.037-.197.112-.272s.165-.112.272-.112h1.408c.117 0 .208.037.272.112.075.064.112.155.112.272v4.4c0 1.323.581 1.984 1.744 1.984.555 0 .992-.176 1.312-.528.331-.352.496-.837.496-1.456v-4.4c0-.107.037-.197.112-.272s.165-.112.272-.112h1.408c.117 0 .208.037.272.112.075.064.112.155.112.272v7.552c0 .107-.037.197-.112.272-.064.075-.155.112-.272.112h-1.296c-.107 0-.197-.037-.272-.112s-.112-.165-.112-.272v-.656c-.597.8-1.488 1.2-2.672 1.2zm7.234-.16c-.107 0-.198-.037-.272-.112-.075-.075-.112-.165-.112-.272v-7.552c0-.107.037-.197.112-.272.074-.075.165-.112.272-.112h1.248c.106 0 .197.037.272.112.074.075.112.165.112.272v.544c.554-.725 1.328-1.088 2.32-1.088 1.184 0 2.01.475 2.48 1.424.256-.427.618-.768 1.088-1.024.469-.267.976-.4 1.52-.4.874 0 1.589.299 2.144.896.554.597.832 1.467.832 2.608v4.592c0 .107-.038.197-.112.272-.064.075-.155.112-.272.112h-1.312c-.107 0-.198-.037-.272-.112-.075-.075-.112-.165-.112-.272v-4.464c0-.672-.144-1.157-.432-1.456-.278-.309-.651-.464-1.12-.464-.416 0-.774.155-1.072.464-.288.309-.432.795-.432 1.456v4.464c0 .107-.038.197-.112.272-.075.075-.166.112-.272.112h-1.312c-.107 0-.198-.037-.272-.112-.075-.075-.112-.165-.112-.272v-4.464c0-.672-.15-1.157-.448-1.456-.288-.309-.656-.464-1.104-.464-.427 0-.79.155-1.088.464-.288.309-.432.795-.432 1.456v4.464c0 .107-.038.197-.112.272-.075.075-.166.112-.272.112zm14.453 3.04c-.107 0-.197-.037-.272-.112-.075-.064-.112-.155-.112-.272v-10.592c0-.117.037-.208.112-.272.075-.075.165-.112.272-.112h1.264c.117 0 .208.037.272.112.075.064.112.155.112.272v.64c.597-.789 1.451-1.184 2.56-1.184 1.077 0 1.904.341 2.48 1.024.576.672.885 1.584.928 2.736.011.128.016.315.016.56 0 .256-.005.448-.016.576-.043 1.12-.352 2.027-.928 2.72-.576.683-1.403 1.024-2.48 1.024s-1.899-.379-2.464-1.136v3.632c0 .117-.037.208-.112.272-.064.075-.155.112-.272.112zm3.616-4.592c1.152 0 1.765-.709 1.84-2.128.011-.107.016-.267.016-.48s-.005-.373-.016-.48c-.075-1.419-.688-2.128-1.84-2.128-.619 0-1.077.197-1.376.592s-.464.88-.496 1.456l-.016.608.016.624c.021.533.187.992.496 1.376.32.373.779.56 1.376.56zm9.51 1.552c-.971 0-1.702-.251-2.192-.752-.48-.512-.72-1.259-.72-2.24v-3.632h-1.264c-.107 0-.198-.037-.272-.112-.075-.085-.112-.181-.112-.288v-.912c0-.107.037-.197.112-.272.074-.075.165-.112.272-.112h1.264v-2.656c0-.117.037-.208.112-.272.074-.075.165-.112.272-.112h1.296c.117 0 .208.037.272.112.074.064.112.155.112.272v2.656h2c.117 0 .208.037.272.112.074.064.112.155.112.272v.912c0 .117-.038.213-.112.288-.075.075-.166.112-.272.112h-2v3.472c0 .459.08.805.24 1.04s.426.352.8.352h1.104c.106 0 .197.037.272.112.074.075.112.165.112.272v.992c0 .107-.038.197-.112.272-.064.075-.155.112-.272.112zm3.419-9.696c-.107 0-.197-.037-.272-.112s-.112-.165-.112-.272v-1.152c0-.107.037-.197.112-.272s.165-.112.272-.112h1.456c.107 0 .197.037.272.112.085.075.128.165.128.272v1.152c0 .107-.037.197-.112.272s-.171.112-.288.112zm.064 9.696c-.107 0-.197-.037-.272-.112s-.112-.165-.112-.272v-7.552c0-.107.037-.197.112-.272s.165-.112.272-.112h1.328c.117 0 .208.037.272.112.075.064.112.155.112.272v7.552c0 .107-.037.197-.112.272-.064.075-.155.112-.272.112zm7.515.16c-1.248 0-2.213-.32-2.896-.96-.683-.651-1.051-1.536-1.104-2.656l-.016-.704.016-.704c.053-1.109.427-1.989 1.12-2.64s1.653-.976 2.88-.976 2.187.325 2.88.976 1.067 1.531 1.12 2.64c.011.128.016.363.016.704s-.005.576-.016.704c-.053 1.12-.421 2.005-1.104 2.656-.683.64-1.648.96-2.896.96zm0-1.584c.565 0 1.003-.176 1.312-.528.309-.363.48-.891.512-1.584.011-.107.016-.315.016-.624s-.005-.517-.016-.624c-.032-.693-.203-1.216-.512-1.568-.309-.363-.747-.544-1.312-.544s-1.003.181-1.312.544c-.309.352-.48.875-.512 1.568l-.016.624.016.624c.032.693.203 1.221.512 1.584.309.352.747.528 1.312.528zm6.173 1.424c-.107 0-.198-.037-.272-.112-.075-.075-.112-.165-.112-.272v-7.552c0-.107.037-.197.112-.272.074-.075.165-.112.272-.112h1.312c.106 0 .197.037.272.112.074.075.112.165.112.272v.656c.629-.8 1.52-1.2 2.672-1.2.981 0 1.76.325 2.336.976.576.64.864 1.515.864 2.624v4.496c0 .107-.038.197-.112.272-.064.075-.155.112-.272.112h-1.408c-.107 0-.198-.037-.272-.112-.075-.075-.112-.165-.112-.272v-4.4c0-.629-.155-1.115-.464-1.456-.299-.352-.736-.528-1.312-.528-.566 0-1.014.176-1.344.528-.32.352-.48.837-.48 1.456v4.4c0 .107-.038.197-.112.272-.064.075-.155.112-.272.112z" fill="#303c45"/><path d="m49 145.051h975" stroke="#d9e4ee"/><path d="m991.682 118c-.107 0-.197-.032-.272-.096-.064-.075-.096-.165-.096-.272v-10.464c0-.107.032-.192.096-.256.075-.075.165-.112.272-.112h.848c.107 0 .192.037.256.112.075.064.112.149.112.256v10.464c0 .107-.037.197-.112.272-.064.064-.149.096-.256.096zm4.375 0c-.107 0-.197-.032-.272-.096-.064-.075-.096-.165-.096-.272v-10.448c0-.117.032-.208.096-.272.075-.075.165-.112.272-.112h4.063c1.21 0 2.16.293 2.85.88s1.04 1.435 1.04 2.544-.35 1.957-1.04 2.544c-.68.576-1.63.864-2.85.864h-2.831v4c0 .107-.037.197-.112.272-.075.064-.165.096-.272.096zm3.983-5.712c.78 0 1.37-.176 1.76-.528.41-.352.61-.864.61-1.536s-.2-1.184-.59-1.536c-.4-.363-.99-.544-1.78-.544h-2.767v4.144zm9.19 5.872c-.81 0-1.5-.144-2.09-.432s-1.04-.667-1.36-1.136c-.31-.469-.48-.971-.5-1.504v-.032c0-.085.03-.155.1-.208.06-.053.14-.08.22-.08h.87c.22 0 .36.117.43.352.15.565.44.987.86 1.264.43.277.92.416 1.47.416.72 0 1.31-.213 1.78-.64.48-.437.72-1.04.72-1.808 0-.693-.24-1.253-.72-1.68-.47-.427-1.06-.64-1.78-.64-.38 0-.69.053-.92.16-.24.096-.47.235-.71.416-.13.096-.24.171-.33.224-.09.043-.18.064-.29.064h-.83c-.1 0-.18-.032-.26-.096-.07-.075-.11-.16-.1-.256l.52-5.344c.01-.128.04-.224.11-.288.07-.075.17-.112.29-.112h5.58c.11 0 .19.037.26.112.07.064.11.149.11.256v.624c0 .107-.04.197-.11.272-.07.064-.15.096-.26.096h-4.61l-.3 3.152c.57-.363 1.27-.544 2.08-.544.7 0 1.35.144 1.93.432.6.288 1.07.704 1.41 1.248.35.544.53 1.184.53 1.92 0 .789-.18 1.472-.53 2.048-.34.565-.82.997-1.44 1.296s-1.33.448-2.13.448zm11.25-.16c-.11 0-.2-.032-.27-.096-.07-.075-.1-.165-.1-.272v-2.304h-5.18c-.11 0-.2-.032-.28-.096-.06-.075-.09-.165-.09-.272v-.64c0-.16.06-.32.17-.48l4.8-6.768c.06-.085.14-.149.24-.192.11-.053.23-.08.36-.08h1.15c.11 0 .19.037.25.112.08.064.12.149.12.256v6.768h1.44c.1 0 .19.037.27.112.07.064.11.149.11.256v.656c0 .107-.04.197-.11.272-.07.064-.15.096-.26.096h-1.45v2.304c0 .107-.04.197-.12.272-.06.064-.14.096-.25.096zm-.35-4.032v-5.488l-3.86 5.488z" fill="#696f83"/><path d="m50.632 118c-.1067 0-.1973-.037-.272-.112s-.112-.165-.112-.272v-10.416c0-.117.032-.213.096-.288.0747-.075.1707-.112.288-.112h4.288c1.28 0 2.288.304 3.024.912.736.597 1.104 1.477 1.104 2.64s-.368 2.043-1.104 2.64c-.7253.587-1.7333.88-3.024.88h-2.384v3.744c0 .107-.0373.197-.112.272-.064.075-.1547.112-.272.112zm4.208-5.904c.6187 0 1.0933-.144 1.424-.432.3307-.299.496-.736.496-1.312 0-.555-.16-.987-.48-1.296-.32-.32-.8-.48-1.44-.48h-2.336v3.52zm6.1469 5.904c-.1067 0-.1974-.037-.272-.112-.0747-.075-.112-.165-.112-.272v-7.536c0-.107.0373-.197.112-.272.0746-.085.1653-.128.272-.128h1.296c.1173 0 .2133.037.288.112.0746.075.112.171.112.288v.656c.256-.341.576-.603.96-.784.3946-.181.8426-.272 1.344-.272h.656c.1173 0 .208.037.272.112.0746.064.112.155.112.272v1.152c0 .107-.0374.197-.112.272-.064.075-.1547.112-.272.112h-1.248c-.5014 0-.896.144-1.184.432s-.432.683-.432 1.184v4.4c0 .107-.0374.197-.112.272-.0747.075-.1707.112-.288.112zm9.8585.16c-1.248 0-2.2134-.32-2.896-.96-.6827-.651-1.0507-1.536-1.104-2.656l-.016-.704.016-.704c.0533-1.109.4266-1.989 1.12-2.64.6933-.651 1.6533-.976 2.88-.976 1.2266 0 2.1866.325 2.88.976.6933.651 1.0666 1.531 1.12 2.64.0106.128.016.363.016.704s-.0054.576-.016.704c-.0534 1.12-.4214 2.005-1.104 2.656-.6827.64-1.648.96-2.896.96zm0-1.584c.5653 0 1.0026-.176 1.312-.528.3093-.363.48-.891.512-1.584.0106-.107.016-.315.016-.624s-.0054-.517-.016-.624c-.032-.693-.2027-1.216-.512-1.568-.3094-.363-.7467-.544-1.312-.544-.5654 0-1.0027.181-1.312.544-.3094.352-.48.875-.512 1.568l-.016.624.016.624c.032.693.2026 1.221.512 1.584.3093.352.7466.528 1.312.528zm9.4862 1.424c-.9706 0-1.7013-.251-2.192-.752-.48-.512-.72-1.259-.72-2.24v-3.632h-1.264c-.1066 0-.1973-.037-.272-.112-.0746-.085-.112-.181-.112-.288v-.912c0-.107.0374-.197.112-.272.0747-.075.1654-.112.272-.112h1.264v-2.656c0-.117.0374-.208.112-.272.0747-.075.1654-.112.272-.112h1.296c.1174 0 .208.037.272.112.0747.064.112.155.112.272v2.656h2c.1174 0 .208.037.272.112.0747.064.112.155.112.272v.912c0 .117-.0373.213-.112.288-.0746.075-.1653.112-.272.112h-2v3.472c0 .459.08.805.24 1.04s.4267.352.8.352h1.104c.1067 0 .1974.037.272.112.0747.075.112.165.112.272v.992c0 .107-.0373.197-.112.272-.064.075-.1546.112-.272.112zm6.6834.16c-1.184 0-2.128-.341-2.832-1.024-.6933-.693-1.0613-1.664-1.104-2.912l-.016-.4.016-.4c.0533-1.216.4267-2.171 1.12-2.864.704-.693 1.6427-1.04 2.816-1.04 1.2587 0 2.2293.384 2.912 1.152.6933.768 1.04 1.792 1.04 3.072v.336c0 .107-.0373.197-.112.272s-.1707.112-.288.112h-5.312v.128c.0213.587.1813 1.083.48 1.488.3093.395.7307.592 1.264.592.6293 0 1.136-.245 1.52-.736.096-.117.1707-.192.224-.224.064-.032.1547-.048.272-.048h1.376c.096 0 .176.032.24.096.0747.053.112.123.112.208 0 .256-.1547.56-.464.912-.2987.341-.7307.64-1.296.896s-1.2213.384-1.968.384zm1.776-5.04v-.048c0-.629-.16-1.136-.48-1.52-.3093-.384-.7413-.576-1.296-.576s-.9867.192-1.296.576-.464.891-.464 1.52v.048zm7.4744 5.04c-1.1734 0-2.112-.325-2.816-.976-.6934-.651-1.0614-1.552-1.104-2.704l-.016-.64.016-.64c.0426-1.152.4106-2.053 1.104-2.704.704-.651 1.6426-.976 2.816-.976.832 0 1.536.149 2.112.448.5866.299 1.0186.667 1.296 1.104.288.427.4426.832.4636 1.216.011.107-.026.197-.112.272-.0743.075-.165.112-.2716.112h-1.408c-.1067 0-.192-.021-.256-.064-.0534-.053-.1067-.139-.16-.256-.16-.416-.3734-.715-.64-.896-.256-.181-.5867-.272-.992-.272-.544 0-.9707.176-1.28.528-.3094.341-.4747.864-.496 1.568l-.016.592.016.528c.0426 1.397.6346 2.096 1.776 2.096.416 0 .752-.091 1.008-.272s.464-.48.624-.896c.0533-.117.1066-.197.16-.24.064-.053.1493-.08.256-.08h1.408c.1066 0 .1973.037.2716.112.086.075.123.165.112.272-.021.373-.1703.773-.4476 1.2-.2774.427-.704.795-1.28 1.104s-1.2907.464-2.144.464zm9.3006-.16c-.971 0-1.701-.251-2.192-.752-.48-.512-.72-1.259-.72-2.24v-3.632h-1.264c-.107 0-.197-.037-.272-.112-.075-.085-.112-.181-.112-.288v-.912c0-.107.037-.197.112-.272s.165-.112.272-.112h1.264v-2.656c0-.117.037-.208.112-.272.075-.075.165-.112.272-.112h1.296c.117 0 .208.037.272.112.075.064.112.155.112.272v2.656h2c.117 0 .208.037.272.112.075.064.112.155.112.272v.912c0 .117-.037.213-.112.288s-.165.112-.272.112h-2v3.472c0 .459.08.805.24 1.04s.427.352.8.352h1.104c.107 0 .197.037.272.112s.112.165.112.272v.992c0 .107-.037.197-.112.272-.064.075-.155.112-.272.112zm3.419-9.696c-.106 0-.197-.037-.272-.112-.074-.075-.112-.165-.112-.272v-1.152c0-.107.038-.197.112-.272.075-.075.166-.112.272-.112h1.456c.107 0 .198.037.272.112.086.075.128.165.128.272v1.152c0 .107-.037.197-.112.272-.074.075-.17.112-.288.112zm.064 9.696c-.106 0-.197-.037-.272-.112-.074-.075-.112-.165-.112-.272v-7.552c0-.107.038-.197.112-.272.075-.075.166-.112.272-.112h1.328c.118 0 .208.037.272.112.075.064.112.155.112.272v7.552c0 .107-.037.197-.112.272-.064.075-.154.112-.272.112zm7.515.16c-1.248 0-2.213-.32-2.896-.96-.683-.651-1.051-1.536-1.104-2.656l-.016-.704.016-.704c.053-1.109.427-1.989 1.12-2.64s1.653-.976 2.88-.976 2.187.325 2.88.976 1.067 1.531 1.12 2.64c.011.128.016.363.016.704s-.005.576-.016.704c-.053 1.12-.421 2.005-1.104 2.656-.683.64-1.648.96-2.896.96zm0-1.584c.565 0 1.003-.176 1.312-.528.309-.363.48-.891.512-1.584.011-.107.016-.315.016-.624s-.005-.517-.016-.624c-.032-.693-.203-1.216-.512-1.568-.309-.363-.747-.544-1.312-.544s-1.003.181-1.312.544c-.309.352-.48.875-.512 1.568l-.016.624.016.624c.032.693.203 1.221.512 1.584.309.352.747.528 1.312.528zm6.173 1.424c-.107 0-.197-.037-.272-.112s-.112-.165-.112-.272v-7.552c0-.107.037-.197.112-.272s.165-.112.272-.112h1.312c.107 0 .197.037.272.112s.112.165.112.272v.656c.629-.8 1.52-1.2 2.672-1.2.981 0 1.76.325 2.336.976.576.64.864 1.515.864 2.624v4.496c0 .107-.037.197-.112.272-.064.075-.155.112-.272.112h-1.408c-.107 0-.197-.037-.272-.112s-.112-.165-.112-.272v-4.4c0-.629-.155-1.115-.464-1.456-.299-.352-.736-.528-1.312-.528-.565 0-1.013.176-1.344.528-.32.352-.48.837-.48 1.456v4.4c0 .107-.037.197-.112.272-.064.075-.155.112-.272.112z" fill="#303c45"/><path d="m49 88h975" stroke="#d9e4ee" stroke-linecap="round" stroke-width="2"/></svg>