<svg height="24" viewBox="0 0 24 24" width="24" xmlns="http://www.w3.org/2000/svg"><path d="m21262.3-11754.378a3.982 3.982 0 0 1 -2.158-2.62h-3.142a1 1 0 0 1 -1-1 1 1 0 0 1 1-1h3.145a3.982 3.982 0 0 1 2.158-2.621 3.986 3.986 0 0 1 3.395 0 3.982 3.982 0 0 1 2.162 2.621h11.14a1 1 0 0 1 1 1 1 1 0 0 1 -1 1h-11.143a3.982 3.982 0 0 1 -2.162 2.62 3.984 3.984 0 0 1 -1.7.38 3.984 3.984 0 0 1 -1.695-.38zm-.3-3.621a2 2 0 0 0 1.236 1.849 2 2 0 0 0 2.178-.434 2 2 0 0 0 .436-2.18 2 2 0 0 0 -1.85-1.235 2 2 0 0 0 -2 1.999zm8.3-4.38a3.975 3.975 0 0 1 -2.16-2.62h-11.14a1 1 0 0 1 -1-1 1 1 0 0 1 1-1h11.145a3.98 3.98 0 0 1 2.16-2.62 3.979 3.979 0 0 1 3.395 0 3.985 3.985 0 0 1 2.16 2.62h3.14a1 1 0 0 1 1 1 1 1 0 0 1 -1 1h-3.143a3.981 3.981 0 0 1 -2.16 2.62 3.97 3.97 0 0 1 -1.7.381 3.97 3.97 0 0 1 -1.697-.381zm-.3-3.619a2 2 0 0 0 1.232 1.848 2 2 0 0 0 2.182-.435 2 2 0 0 0 .434-2.18 2 2 0 0 0 -1.848-1.235 2 2 0 0 0 -2 2zm-7.7-4.381a3.976 3.976 0 0 1 -2.158-2.619h-3.142a1 1 0 0 1 -1-1 1 1 0 0 1 1-1h3.145a3.976 3.976 0 0 1 2.158-2.62 3.979 3.979 0 0 1 3.395 0 3.976 3.976 0 0 1 2.162 2.62h11.14a1 1 0 0 1 1 1 1 1 0 0 1 -1 1h-11.143a3.976 3.976 0 0 1 -2.162 2.619 3.97 3.97 0 0 1 -1.7.381 3.97 3.97 0 0 1 -1.695-.381zm-.3-3.62a2 2 0 0 0 1.236 1.848 2 2 0 0 0 2.178-.433 2 2 0 0 0 .436-2.18 2 2 0 0 0 -1.85-1.235 2 2 0 0 0 -2 1.999z" fill="#fff" transform="translate(-21256.002 11777.998)"/></svg>