<svg height="36" viewBox="0 0 37.161 36" width="37.161" xmlns="http://www.w3.org/2000/svg"><path d="m-4697.759-3246.531a5.23 5.23 0 0 1 -1.135-5.7 5.228 5.228 0 0 1 4.829-3.225 5.227 5.227 0 0 1 5.226 5.226 5.228 5.228 0 0 1 -3.225 4.829 5.223 5.223 0 0 1 -2 .4 5.226 5.226 0 0 1 -3.695-1.53zm2.462-4.926a1.745 1.745 0 0 0 -.378 1.9 1.742 1.742 0 0 0 1.61 1.075 1.742 1.742 0 0 0 1.742-1.742 1.744 1.744 0 0 0 -1.075-1.61 1.75 1.75 0 0 0 -.666-.132 1.742 1.742 0 0 0 -1.236.509zm-25.478 6.457a5.227 5.227 0 0 1 -5.226-5.226 5.227 5.227 0 0 1 5.226-5.226h13.355a5.228 5.228 0 0 1 5.226 5.226 5.227 5.227 0 0 1 -5.226 5.226zm-1.742-5.226a1.742 1.742 0 0 0 1.742 1.742h13.355a1.742 1.742 0 0 0 1.742-1.742 1.742 1.742 0 0 0 -1.742-1.742h-13.355a1.742 1.742 0 0 0 -1.741 1.742zm4.292-8.71 3.037-4.552a9.288 9.288 0 0 1 7.768-4.158 1.741 1.741 0 0 1 1.231.51l4.133 4.135h5.668v3.484h-6.387a1.747 1.747 0 0 1 -1.243-.51l-4.094-4.094a5.844 5.844 0 0 0 -4.185 2.565l-1.742 2.62zm13.525-11.354a5.228 5.228 0 0 1 1.134-5.7 5.228 5.228 0 0 1 5.695-1.134 5.227 5.227 0 0 1 3.226 4.829 5.228 5.228 0 0 1 -5.226 5.226 5.227 5.227 0 0 1 -4.829-3.221zm3.6-3.232a1.746 1.746 0 0 0 -.379 1.9 1.743 1.743 0 0 0 1.611 1.075 1.742 1.742 0 0 0 1.742-1.742 1.743 1.743 0 0 0 -1.075-1.611 1.747 1.747 0 0 0 -.665-.131 1.744 1.744 0 0 0 -1.234.509zm-19.672 6.458v-5.226h-5.228v-3.484h5.226v-5.226h3.484v5.226h5.226v3.484h-5.226v5.226z" fill="#005392" transform="translate(4726 3281)"/></svg>