<svg height="22" viewBox="0 0 19 22" width="19" xmlns="http://www.w3.org/2000/svg"><path d="m21002.037 14802.9h-10.049v-2.64h-2.453a1.776 1.776 0 0 1 -1.787-1.761v-3.082h-.893a1.13 1.13 0 0 1 -1.023-.462 1.1 1.1 0 0 1 .066-1.095l1.85-3.481v-1.118a8.244 8.244 0 0 1 2.484-5.913 8.574 8.574 0 0 1 12 0 8.249 8.249 0 0 1 2.484 5.913 8.137 8.137 0 0 1 -.723 3.374 8.336 8.336 0 0 1 -1.955 2.718v7.546zm-4.271-19.573a3.056 3.056 0 1 0 3.063 3.056 3.064 3.064 0 0 0 -3.063-3.057z" fill="#fff" transform="translate(-20985.715 -14780.899)"/></svg>