<svg height="20" viewBox="0 0 20 20" width="20" xmlns="http://www.w3.org/2000/svg" xmlns:xlink="http://www.w3.org/1999/xlink"><clipPath id="a"><path d="m.5 0h19a.5.5 0 0 1 .5.5v19a.5.5 0 0 1 -.5.5h-19a.5.5 0 0 1 -.5-.5v-19a.5.5 0 0 1 .5-.5z"/></clipPath><g clip-path="url(#a)"><path d="m.948 7.838 6.952-5.815c.7-.569.885-.632.885.19v3.6h3.855c9.1 0 9.165 6.574 6 13.337-.253.569-.7.253-.7-.127.253-5.183.253-7.9-5.31-7.9h-3.846v3.161c0 1.2-.316 1.138-1.075.506l-6.826-5.69c-.443-.44-.506-.819.063-1.263z" fill="#005392" fill-rule="evenodd" transform="translate(-.535 -.529)"/></g></svg>