<svg height="37.155" viewBox="0 0 37 37.155" width="37" xmlns="http://www.w3.org/2000/svg"><g fill="#005392"><path d="m54.518 47.667a1.885 1.885 0 0 0 -2.112 1.565 13.457 13.457 0 0 1 -3.873 7.786 13.675 13.675 0 0 1 -15.888 2.5l-2.545 2.861a17.525 17.525 0 0 0 8.765 2.348 17.386 17.386 0 0 0 17.218-14.988 1.84 1.84 0 0 0 -1.565-2.073z" transform="translate(-19.397 -29.989)"/><path d="m42.283 4.589a1.846 1.846 0 0 0 -1.839 1.879v2.621l-1.487-1.489a17.452 17.452 0 0 0 -24.613 0 17.2 17.2 0 0 0 -4.344 7.319 4.2 4.2 0 0 1 2.466-.783h1.8a13.878 13.878 0 0 1 2.739-3.913 13.7 13.7 0 0 1 19.33 0l1.448 1.487h-2.622a1.859 1.859 0 1 0 0 3.717h7.121a1.879 1.879 0 0 0 1.879-1.879v-7.12a1.87 1.87 0 0 0 -1.879-1.839z" transform="translate(-7.162 -2.524)"/><path d="m49.476 22.2a1.879 1.879 0 0 0 -1.876 1.877v7.786a1.879 1.879 0 0 0 1.37 1.8l5.714 1.6a2.244 2.244 0 0 0 .509.078 1.879 1.879 0 0 0 1.8-1.37 1.91 1.91 0 0 0 -1.293-2.302l-4.382-1.214v-6.378a1.871 1.871 0 0 0 -1.84-1.879z" transform="translate(-30.047 -14.5)"/><path d="m14.7 49.19h-3.13l3.913-6.966a1.028 1.028 0 0 0 -.9-1.525h-6.533a.973.973 0 0 0 -.939.665l-4.3 11.5a1.015 1.015 0 0 0 .939 1.37h2.27l-2.431 7.557a.847.847 0 0 0 1.448.822l10.41-11.739a1.012 1.012 0 0 0 -.747-1.684z" transform="translate(-2.746 -25.761)"/></g></svg>