<svg height="18" viewBox="0 0 17 18" width="17" xmlns="http://www.w3.org/2000/svg" class="icon-bin"><g fill="currentColor"><path d="m30.441 42.97a.638.638 0 0 0 .638-.638v-9.593a.638.638 0 1 0 -1.275 0v9.594a.637.637 0 0 0 .637.638z" transform="translate(-25.095 -27.451)"/><path d="m47.739 42.97a.638.638 0 0 0 .638-.638v-9.593a.638.638 0 1 0 -1.275 0v9.594a.638.638 0 0 0 .637.637z" transform="translate(-39.248 -27.451)"/><path d="m65.036 42.97a.638.638 0 0 0 .638-.638v-9.593a.638.638 0 1 0 -1.275 0v9.594a.612.612 0 0 0 .637.637z" transform="translate(-53.399 -27.451)"/><path d="m20.366 4.949h-4.052l-1.088-1.785a1.35 1.35 0 0 0 -1.16-.664h-3.352a1.351 1.351 0 0 0 -1.161.665l-1.068 1.784h-4.052a.551.551 0 0 0 0 1.1h.921v12.7a1.717 1.717 0 0 0 1.694 1.751h10.72a1.717 1.717 0 0 0 1.694-1.747v-12.683h.9a.543.543 0 0 0 .534-.55.559.559 0 0 0 -.533-.57zm-9.891-1.2a.286.286 0 0 1 .24-.133h3.371a.314.314 0 0 1 .24.133l.718 1.2h-5.288zm7.883 15.039a.623.623 0 0 1 -.608.627h-10.72a.623.623 0 0 1 -.608-.627v-12.718h11.954v12.722z" transform="translate(-3.899 -2.5)"/></g></svg>