<svg fill="none" height="38" viewBox="0 0 37 38" width="37" xmlns="http://www.w3.org/2000/svg"><g fill="#005392"><path d="m19.5908 3.63025c-.1431-.14716-.313-.26391-.5-.34357s-.3875-.12066-.59-.12066-.4029.041-.59.12066c-.187.07966-.3569.19641-.4999.34357l-13.87505 14.25005c-.21554.2214-.36231.5035-.42177.8106s-.02893.6254.08773.9146c.11666.2893.3142.5366.56767.7106.25346.1739.55147.2668.85633.2669h1.54167v11.0833c0 1.7465 1.38287 3.1667 3.08333 3.1667h18.49999c1.7005 0 3.0833-1.4202 3.0833-3.1667v-11.0833h1.5417c.3052.0007.6037-.0918.8577-.2656.2539-.1739.4518-.4213.5686-.7109s.1472-.6083.0873-.9156c-.0599-.3074-.2073-.5895-.4236-.8106zm8.1615 28.03605h-18.50149v-15.1778l9.24999-9.5 9.25 9.5v7.2612z"/><path d="m20.0428 15.834h-3.0833v4.75h-4.625v3.1667h4.625v4.75h3.0833v-4.75h4.625v-3.1667h-4.625z"/></g></svg>