<svg height="16.005" viewBox="0 0 16 16.005" width="16" xmlns="http://www.w3.org/2000/svg"><path d="m21406 12753.493a8 8 0 1 1 8 8.006 8.025 8.025 0 0 1 -8-8.006zm2 0a6 6 0 1 0 6-6 6.021 6.021 0 0 0 -6 6zm5.51 5.006a.492.492 0 0 1 .984 0 .492.492 0 0 1 -.984 0zm3.383-2.291-3.6-2.269v-2.414a.739.739 0 0 1 1.479 0v1.575l2.908 1.828a.776.776 0 0 1 .248 1.032.848.848 0 0 1 -.645.345.922.922 0 0 1 -.39-.097zm1.617-2.715a.5.5 0 0 1 .99 0 .5.5 0 1 1 -.99 0zm-10.01 0a.494.494 0 0 1 .988 0 .494.494 0 1 1 -.988 0zm5.01-5a.492.492 0 1 1 .984 0 .492.492 0 0 1 -.984 0z" fill="#4da0e6" transform="translate(-21406 -12745.494)"/></svg>