<svg height="16" viewBox="0 0 16 16" width="16" xmlns="http://www.w3.org/2000/svg"><path d="m8 16a8 8 0 1 1 8-8 8.01 8.01 0 0 1 -8 8zm-3.656-9.145c-.3 0-.58.3-.975.728l-.078.084a.787.787 0 0 0 -.291.55c.006.321.338.633.8 1.064.148.138.32.3.5.482l1.835 1.837a.667.667 0 0 0 .447.193c.377 0 .744-.381 1.207-.862l.023-.024c.146-.152.3-.31.463-.467l3.67-3.71c.109-.105.211-.2.3-.289l.082-.077c.432-.407.668-.63.67-.863 0-.212-.189-.435-.566-.8l-.031-.035c-.346-.359-.535-.558-.748-.558-.264 0-.566.311-1.23.992l-.088.091c-.244.231-.908.891-1.566 1.546-.924.919-2.068 2.063-2.18 2.13-.309-.285-.73-.714-1.141-1.129l-.033-.038c-.2-.207-.414-.42-.629-.634a.659.659 0 0 0 -.441-.211z" fill="#70d953"/></svg>