<svg height="26" viewBox="0 0 36.402 26" width="36.402" xmlns="http://www.w3.org/2000/svg"><path d="m21064.6 17178.492a13 13 0 0 1 13-13 11.986 11.986 0 0 1 1.3.068v3.924a9.228 9.228 0 0 0 -1.3-.092 9.1 9.1 0 0 0 -8.891 7.152h7.592v3.9h-7.592a9.1 9.1 0 0 0 8.891 7.146 9.229 9.229 0 0 0 1.3-.09v3.928a12.5 12.5 0 0 1 -1.3.063 13 13 0 0 1 -13-12.999zm-22.1 0a13.007 13.007 0 0 1 13.006-13 13.559 13.559 0 0 1 1.387.076v3.926a9.841 9.841 0 0 0 -1.387-.1 9.1 9.1 0 1 0 0 18.2 9.291 9.291 0 0 0 1.387-.1v3.928a12.533 12.533 0 0 1 -1.387.072 13 13 0 0 1 -13.006-13.002z" fill="#d9e4ee" transform="translate(-21042.498 -17165.496)"/></svg>