<svg height="23" viewBox="0 0 20.126 23" width="20.126" xmlns="http://www.w3.org/2000/svg"><path d="m10.713 22.861h2.857a.714.714 0 1 0 0-1.427h-2.857a.714.714 0 1 0 0 1.427z" fill="#d9e4ee" transform="translate(-9.999 -17.118)"/><path d="m10.713 48.571h2.857a.714.714 0 1 0 0-1.427h-2.857a.714.714 0 0 0 0 1.427z" fill="#d9e4ee" transform="translate(-9.999 -36.357)"/><path d="m33.677 4.285h-12.229a2.886 2.886 0 0 0 -2.878 2.876h1.439a2.119 2.119 0 0 1 2.158 2.156 2.163 2.163 0 0 1 -2.158 2.156h-1.439v2.156h1.439a2.119 2.119 0 0 1 2.158 2.156 2.163 2.163 0 0 1 -2.158 2.156h-1.439v2.159h1.439a2.119 2.119 0 0 1 2.158 2.156 2.163 2.163 0 0 1 -2.158 2.156h-1.439a2.886 2.886 0 0 0 2.878 2.876h12.229a2.886 2.886 0 0 0 2.878-2.876v-17.253a2.885 2.885 0 0 0 -2.878-2.874zm-4.677 5.751a2.516 2.516 0 1 1 -2.518 2.516 2.547 2.547 0 0 1 2.518-2.516zm3.74 11.5h-7.48a1.456 1.456 0 0 1 -1.439-1.653l.432-2.947c.144-.791 1.079-1.438 1.726-1.8a4.024 4.024 0 0 0 6.043 0c.647.36 1.582 1.006 1.726 1.8l.432 2.947a1.5 1.5 0 0 1 -1.439 1.653z" fill="#fff" transform="translate(-16.428 -4.285)"/><path d="m14.288 73.573a.674.674 0 0 0 -.714-.714h-2.856a.714.714 0 1 0 0 1.427h2.857a.674.674 0 0 0 .713-.713z" fill="#d9e4ee" transform="translate(-10.003 -55.6)"/></svg>