<svg height="17" viewBox="0 0 17.001 17" width="17.001" xmlns="http://www.w3.org/2000/svg"><path d="m.84 17a.859.859 0 0 1 0-1.717h15.321a.859.859 0 0 1 0 1.717zm.732-4.309a.868.868 0 0 1 -.22-.654l.271-3.284a.867.867 0 0 1 .244-.535l7.362-7.53a2.273 2.273 0 0 1 3.26 0l.934.95a2.4 2.4 0 0 1 0 3.339l-7.361 7.523a.827.827 0 0 1 -.541.249l-3.276.215h-.057a.83.83 0 0 1 -.617-.273zm1.7-3.481-.164 1.982 1.99-.13 5.477-5.6-1.819-1.862zm7.144-7.3-.472.482 1.816 1.856.472-.483a.657.657 0 0 0 0-.911l-.932-.948a.618.618 0 0 0 -.89 0z" fill="#4da0e6"/></svg>