<svg height="17" viewBox="0 0 17.001 17" width="17.001" xmlns="http://www.w3.org/2000/svg" class="icon-edit"><path d="m.84 17a.858.858 0 0 1 0-1.716h15.322a.858.858 0 0 1 0 1.716zm1.352-4.032a.834.834 0 0 1 -.62-.278.866.866 0 0 1 -.219-.654l.271-3.284a.863.863 0 0 1 .243-.534l7.362-7.529a2.273 2.273 0 0 1 3.26 0l.934.948a2.4 2.4 0 0 1 0 3.34l-7.362 7.523a.828.828 0 0 1 -.541.249l-3.276.215zm1.079-3.758-.164 1.981 1.99-.128 5.478-5.6-1.818-1.863zm7.144-7.3-.472.483 1.817 1.854.472-.482a.654.654 0 0 0 0-.91l-.932-.949a.62.62 0 0 0 -.89 0z" fill="currentColor"/></svg>