<svg height="15" viewBox="0 0 15 15" width="15" xmlns="http://www.w3.org/2000/svg"><path d="m41.511 40.3a.426.426 0 0 1 0-.6l3.974-3.974c.166-.166.3-.11.3.127v.932a.857.857 0 1 0 1.714 0v-3.425a.861.861 0 0 0 -.86-.86h-3.422a.857.857 0 1 0 0 1.714h.932c.236 0 .29.137.127.3l-3.976 3.974a.426.426 0 0 1 -.6 0l-3.974-3.974c-.166-.166-.11-.3.127-.3h.932a.857.857 0 1 0 0-1.714h-3.425a.861.861 0 0 0 -.86.86v3.422a.857.857 0 1 0 1.714 0v-.932c0-.236.137-.29.3-.127l3.974 3.977a.426.426 0 0 1 0 .6l-3.974 3.974c-.166.166-.3.11-.3-.127v-.932a.857.857 0 1 0 -1.714 0v3.422a.861.861 0 0 0 .86.86h3.422a.857.857 0 1 0 0-1.714h-.932c-.236 0-.29-.137-.127-.3l3.977-3.971a.426.426 0 0 1 .6 0l3.974 3.974c.166.166.11.3-.127.3h-.932a.857.857 0 1 0 0 1.714h3.422a.861.861 0 0 0 .86-.86v-3.423a.857.857 0 1 0 -1.714 0v.932c0 .236-.137.29-.3.127z" fill="#fff" fill-rule="evenodd" transform="translate(-32.5 -32.5)"/></svg>