<svg height="20.001" viewBox="0 0 20.001 20.001" width="20.001" xmlns="http://www.w3.org/2000/svg"><path d="m-12960.5-5037.5v-1.354a7.508 7.508 0 0 1 -6.148-6.146h-1.352a1.25 1.25 0 0 1 -1.25-1.25 1.25 1.25 0 0 1 1.25-1.25h1.354a7.509 7.509 0 0 1 6.148-6.148v-1.352a1.248 1.248 0 0 1 1.25-1.25 1.25 1.25 0 0 1 1.25 1.25v1.354a7.508 7.508 0 0 1 6.146 6.148h1.354a1.25 1.25 0 0 1 1.25 1.25 1.25 1.25 0 0 1 -1.25 1.25h-1.354a7.509 7.509 0 0 1 -6.146 6.146v1.354a1.25 1.25 0 0 1 -1.25 1.25 1.248 1.248 0 0 1 -1.252-1.252zm0-3.395v-.605a1.248 1.248 0 0 1 1.25-1.25 1.25 1.25 0 0 1 1.25 1.25v.6a5.518 5.518 0 0 0 4.1-4.1h-.605a1.251 1.251 0 0 1 -1.25-1.25 1.251 1.251 0 0 1 1.25-1.25h.605a5.518 5.518 0 0 0 -4.1-4.107v.6a1.25 1.25 0 0 1 -1.25 1.25 1.248 1.248 0 0 1 -1.25-1.25v-.605a5.518 5.518 0 0 0 -4.107 4.107h.605a1.25 1.25 0 0 1 1.25 1.25 1.25 1.25 0 0 1 -1.25 1.25h-.6a5.518 5.518 0 0 0 4.102 4.11z" fill="#fff" transform="translate(12969.251 5056.251)"/></svg>