<svg fill="none" height="22" viewBox="0 0 24 22" width="24" xmlns="http://www.w3.org/2000/svg"><path d="m20.1 5.52031h-4.0395c.068-.34584.1022-.69751.102-1.05 0-2.24597-1.644-3.899998-4.3125-3.899998-2.12414 0-2.67202 2.275168-3.54881 3.692998-.36258.58186-.7966 1.09299-1.21177 1.55874l-.00614.00684-.00605.00694c-.71807.81919-1.08829 1.10948-1.41473 1.10948h-.12558c-.26939-.23212-.6345-.375-1.03687-.375h-3.00005c-.828422 0-1.5.60441-1.5 1.35v10.79999c0 .7456.671578 1.35 1.5 1.35h3c.40238 0 .76748-.1429 1.03688-.375h.12557c1.34475 0 3.14705 1.875 5.96255 1.875h.9983c2.9317 0 4.6313-1.8121 4.6847-4.2724.5851-.835.8668-1.9118.7493-2.9433.167-.3278.2919-.6753.3717-1.0343h1.671c2.1298 0 3.9-1.7617 3.9-3.89999 0-2.11401-1.786-3.9-3.9-3.9zm0 5.54999h-4.2668c.6017.6876.6757 2.0074-.2321 2.8617.5263.9209.0791 2.1387-.6058 2.5137.3058 1.8341-.4723 2.8746-2.3719 2.8746h-.9984c-2.13239 0-3.61922-1.6834-5.625-1.8598v-8.2853c1.18308-.13893 2.01403-.99478 2.76914-1.85606.52852-.59297 1.01836-1.18594 1.44366-1.86914.6788-1.09631 1.225-2.62969 1.6372-2.62969 1.0957 0 2.0625.4125 2.0625 1.65 0 1.65-1.2375 2.48789-1.2375 3.3h7.425c.8637 0 1.65.77344 1.65 1.65 0 .88949-.7605 1.64999-1.65 1.64999zm-15.975 6c0 .6213-.50367 1.125-1.125 1.125s-1.125-.5037-1.125-1.125.50367-1.125 1.125-1.125 1.125.5037 1.125 1.125z" fill="#005392"/></svg>