<svg height="19" viewBox="0 0 19 19" width="19" xmlns="http://www.w3.org/2000/svg" xmlns:xlink="http://www.w3.org/1999/xlink"><clipPath id="a"><path d="m444 28h19v19h-19z"/></clipPath><g clip-path="url(#a)" transform="translate(-444 -28)"><path d="m-9038.649 21589.439-2.634-2.7a9.275 9.275 0 0 1 -4.65 1.385c-5.147 0-9.2-5.365-9.368-5.6a.653.653 0 0 1 0-.785 17.429 17.429 0 0 1 4.911-4.3l-2.687-2.748a.66.66 0 0 1 -.007-.924.625.625 0 0 1 .9-.006l3.307 3.381 2.477 2.531 2.882 2.945 2.786 2.848 2.985 3.057a.657.657 0 0 1 0 .916.625.625 0 0 1 -.448.189.624.624 0 0 1 -.454-.189zm-15.332-7.3c1.011 1.188 4.281 4.689 8.048 4.689a7.8 7.8 0 0 0 3.717-1.045l-1.664-1.707a2.772 2.772 0 0 1 -2.756.865 2.832 2.832 0 0 1 -2.04-2.086 2.9 2.9 0 0 1 .842-2.816l-1.623-1.656a16.125 16.125 0 0 0 -4.524 3.754zm6.564.371a1.549 1.549 0 0 0 1.126 1.15 1.515 1.515 0 0 0 1.514-.494l-2.162-2.209a1.581 1.581 0 0 0 -.478 1.551zm7.32 2.654a.658.658 0 0 1 .085-.91 17.744 17.744 0 0 0 2.125-2.115c-1-1.2-4.275-4.7-8.047-4.7a6.3 6.3 0 0 0 -1.224.123.643.643 0 0 1 -.739-.52.65.65 0 0 1 .51-.756 7.7 7.7 0 0 1 1.453-.143c5.152 0 9.2 5.365 9.373 5.6a.672.672 0 0 1 0 .785 18.038 18.038 0 0 1 -2.646 2.73.631.631 0 0 1 -.4.148.631.631 0 0 1 -.493-.244z" fill="#c1cad1" transform="translate(9499.433 -21544.576)"/></g></svg>