<svg height="20" viewBox="0 0 20 20" width="20" xmlns="http://www.w3.org/2000/svg"><path d="m16 26a10 10 0 1 0 -10-10 10 10 0 0 0 10 10zm0-1.818a8.182 8.182 0 1 0 -8.182-8.182 8.182 8.182 0 0 0 8.182 8.182zm1.591-12.5a1.323 1.323 0 0 1 -.39.963 1.262 1.262 0 0 1 -.937.4 1.278 1.278 0 0 1 -.943-.4 1.381 1.381 0 0 1 0-1.928 1.3 1.3 0 0 1 1.88 0 1.334 1.334 0 0 1 .39.968zm-.131 8.967c-.39.188-.7.33-.935.429a2.064 2.064 0 0 1 -.811.147 1.438 1.438 0 0 1 -1.1-.421 1.506 1.506 0 0 1 -.393-1.069 4.657 4.657 0 0 1 .029-.515c.02-.175.051-.373.095-.594l.488-2.1c.044-.2.081-.392.11-.573a2.97 2.97 0 0 0 .044-.492.873.873 0 0 0 -.137-.562.672.672 0 0 0 -.522-.159 1.137 1.137 0 0 0 -.388.073c-.133.047-.211-.511-.211-.511q.479-.238.918-.407a2.306 2.306 0 0 1 .83-.17 1.405 1.405 0 0 1 1.087.415 1.526 1.526 0 0 1 .382 1.076c0 .091-.009.252-.027.482a3.96 3.96 0 0 1 -.1.634l-.486 2.093c-.04.168-.075.36-.107.576a3.634 3.634 0 0 0 -.048.489.8.8 0 0 0 .154.569.751.751 0 0 0 .532.151 1.3 1.3 0 0 0 .4-.075c.149-.051.194.514.194.514z" fill="currentColor" fill-rule="evenodd" transform="translate(-6 -6)"/></svg>