<svg height="18" viewBox="0 0 18 18" width="18" xmlns="http://www.w3.org/2000/svg"><path d="m15 24a9 9 0 1 0 -9-9 9 9 0 0 0 9 9zm0-1.636a7.364 7.364 0 1 0 -7.364-7.364 7.363 7.363 0 0 0 7.364 7.364zm1.432-11.248a1.191 1.191 0 0 1 -.351.867 1.136 1.136 0 0 1 -.844.358 1.15 1.15 0 0 1 -.849-.358 1.243 1.243 0 0 1 0-1.735 1.172 1.172 0 0 1 1.692 0 1.2 1.2 0 0 1 .352.868zm-.117 8.07c-.351.169-.632.3-.841.386a1.857 1.857 0 0 1 -.729.133 1.294 1.294 0 0 1 -.993-.379 1.355 1.355 0 0 1 -.354-.962 4.192 4.192 0 0 1 .026-.463c.018-.157.046-.336.085-.535l.439-1.891c.039-.181.073-.352.1-.515a2.673 2.673 0 0 0 .04-.443.785.785 0 0 0 -.123-.506.6.6 0 0 0 -.47-.143 1.024 1.024 0 0 0 -.349.066c-.12.042-.19-.46-.19-.46q.431-.215.826-.366a2.075 2.075 0 0 1 .747-.153 1.265 1.265 0 0 1 .978.373 1.373 1.373 0 0 1 .344.968c0 .082-.008.227-.024.434a3.564 3.564 0 0 1 -.088.57l-.439 1.884c-.036.151-.068.324-.1.519a3.271 3.271 0 0 0 -.043.44.723.723 0 0 0 .138.512.676.676 0 0 0 .479.136 1.166 1.166 0 0 0 .362-.068c.134-.046.175.463.175.463z" fill="#f2971b" fill-rule="evenodd" transform="translate(-6 -6)"/></svg>