<svg xmlns="http://www.w3.org/2000/svg" width="22" height="24" viewBox="0 0 22 24"><defs><style>.a{fill:#fff}</style></defs><path class="a" d="M22,23.063V24H0v-.937A.576.576,0,0,1,.589,22.5h.982V5.625A1.153,1.153,0,0,1,2.75,4.5H7.071V1.125A1.153,1.153,0,0,1,8.25,0h5.5a1.153,1.153,0,0,1,1.179,1.125V4.5H19.25a1.153,1.153,0,0,1,1.179,1.125V22.5h.982A.576.576,0,0,1,22,23.063ZM15.125,9H13.161a.576.576,0,0,0-.589.563v1.875a.576.576,0,0,0,.589.563h1.964a.576.576,0,0,0,.589-.562V9.563A.576.576,0,0,0,15.125,9Zm-8.25,3H8.839a.576.576,0,0,0,.589-.562V9.563A.576.576,0,0,0,8.839,9H6.875a.576.576,0,0,0-.589.563v1.875A.576.576,0,0,0,6.875,12Zm5.107,6H10.018a.576.576,0,0,0-.589.563V22.5h3.143V18.563A.576.576,0,0,0,11.982,18Zm3.143-4.5H13.161a.576.576,0,0,0-.589.563v1.875a.576.576,0,0,0,.589.563h1.964a.576.576,0,0,0,.589-.562V14.063A.576.576,0,0,0,15.125,13.5Zm-5.7.563a.576.576,0,0,0-.589-.562H6.875a.576.576,0,0,0-.589.563v1.875a.576.576,0,0,0,.589.563H8.839a.576.576,0,0,0,.589-.562ZM8.938,4.5h1.277V5.719A.288.288,0,0,0,10.509,6h.982a.288.288,0,0,0,.295-.281V4.5h1.277a.288.288,0,0,0,.295-.281V3.281A.288.288,0,0,0,13.063,3H11.786V1.781a.288.288,0,0,0-.295-.281h-.982a.288.288,0,0,0-.295.281V3H8.938a.288.288,0,0,0-.295.281v.938A.288.288,0,0,0,8.938,4.5Z"/></svg>