<svg height="18" viewBox="0 0 18 18" width="18" xmlns="http://www.w3.org/2000/svg"><path d="m17.755 15.562-3.505-3.5a.843.843 0 0 0 -.6-.246h-.573a7.311 7.311 0 1 0 -1.266 1.265v.573a.843.843 0 0 0 .246.6l3.505 3.5a.84.84 0 0 0 1.192 0l.995-.995a.847.847 0 0 0 0-1.195zm-10.442-3.188a5.062 5.062 0 1 1 5.062-5.062 5.059 5.059 0 0 1 -5.062 5.062zm0-8.436a2.6 2.6 0 0 0 -2.6 2.6c0 1.159 1.7 3.271 2.347 4.038a.325.325 0 0 0 .5 0c.653-.776 2.35-2.884 2.35-4.043a2.6 2.6 0 0 0 -2.6-2.6zm0 3.375a.844.844 0 1 1 .844-.844.844.844 0 0 1 -.844.844z" fill="#fff"/></svg>