<svg height="20" viewBox="0 0 20 20" width="20" xmlns="http://www.w3.org/2000/svg" xmlns:xlink="http://www.w3.org/1999/xlink"><clipPath id="a"><path d="m.5 0h19a.5.5 0 0 1 .5.5v19a.5.5 0 0 1 -.5.5h-19a.5.5 0 0 1 -.5-.5v-19a.5.5 0 0 1 .5-.5z" transform="translate(1.267 1)"/></clipPath><g clip-path="url(#a)" transform="translate(-1.267 -1)"><path d="m1.748 9.92a1.785 1.785 0 0 0 2.7 1.411 1.767 1.767 0 0 0 .86-1.621 5.109 5.109 0 0 1 .042-1.137 5.242 5.242 0 1 1 5.56 5.98h-.021v-1.327a1.074 1.074 0 0 0 -1.643-.906l-4.992 3.118a1.064 1.064 0 0 0 0 1.812l4.991 3.117a1.073 1.073 0 0 0 1.643-.906v-1.348a8.794 8.794 0 1 0 -9.14-9.267 9 9 0 0 0 0 1.074z" fill="#fff" transform="translate(.728 .47)"/></g></svg>