<svg height="14.933" viewBox="0 0 24 14.933" width="24" xmlns="http://www.w3.org/2000/svg"><path d="m2.995 18.891a.75.75 0 0 0 -.626.311 12 12 0 0 0 0 14.317.752.752 0 0 0 1.207-.9 10.483 10.483 0 0 1 0-12.523.75.75 0 0 0 -.58-1.207zm17.987 0a.75.75 0 0 0 -.553 1.207 10.5 10.5 0 0 1 0 12.523.752.752 0 0 0 1.207.9 12.02 12.02 0 0 0 0-14.317.75.75 0 0 0 -.653-.311zm-15.491 2.209a.752.752 0 0 0 -.614.332 8.682 8.682 0 0 0 0 9.855.755.755 0 0 0 .484.321.751.751 0 0 0 .75-1.175 7.182 7.182 0 0 1 0-8.149.75.75 0 0 0 -.62-1.185zm12.995 0a.75.75 0 0 0 -.593 1.185 7.167 7.167 0 0 1 0 8.149.75.75 0 1 0 1.234.854 8.656 8.656 0 0 0 0-9.855.75.75 0 0 0 -.636-.332zm-6.486.189a5.071 5.071 0 1 0 5.071 5.071 5.083 5.083 0 0 0 -5.071-5.071z" fill="#205392" transform="translate(0 -18.89)"/></svg>