<svg height="94.979" fill="#303c45" viewBox="0 0 95.024 94.979" width="95.024" xmlns="http://www.w3.org/2000/svg"><g transform="translate(-2.546 -2.523)"><path d="m64.9 21.3a53.208 53.208 0 0 1 7.5 6.4 53.208 53.208 0 0 1 6.4 7.5l-14 14 5.4 5.4 24-24a11.529 11.529 0 0 0 0-16.3l-8.4-8.4a11.406 11.406 0 0 0 -16.2 0l-24 24 5.4 5.4zm15.4-10 8.5 8.4a3.8 3.8 0 0 1 0 5.4l-4.5 4.5a85.188 85.188 0 0 0 -6.4-7.5 61.217 61.217 0 0 0 -7.4-6.4l4.5-4.5a3.772 3.772 0 0 1 5.3.1z"/><path d="m9.9 4.5a3.817 3.817 0 0 0 -5.4 5.4l30.4 30.4-23.1 23.2a5.375 5.375 0 0 0 -1 1.6l-8.1 27.5a3.814 3.814 0 0 0 1 3.8 3.865 3.865 0 0 0 2.7 1.1 4.4 4.4 0 0 0 1.1-.2l27.5-8.2a3.363 3.363 0 0 0 1.6-1l23.1-23.1 30.4 30.4a3.858 3.858 0 0 0 5.4 0 3.8 3.8 0 0 0 0-5.4zm7.2 66.4a52.969 52.969 0 0 1 6.4 5.6 64.543 64.543 0 0 1 5.6 6.4l-17.1 5.1zm18.3 7.6a85.188 85.188 0 0 0 -6.4-7.5 53.367 53.367 0 0 0 -7.4-6.4l18.8-18.8 13.9 13.9z"/></g></svg>