<svg height="20" viewBox="0 0 20 20" width="20" xmlns="http://www.w3.org/2000/svg"><path d="m21581.43 5216.4a4.955 4.955 0 1 1 4.953 4.959 4.961 4.961 0 0 1 -4.953-4.959zm1.668 0a3.286 3.286 0 1 0 3.285-3.289 3.3 3.3 0 0 0 -3.283 3.289zm-8.154 4.73a3.59 3.59 0 0 1 -3.584-3.587v-11a3.586 3.586 0 0 1 3.584-3.583h1.451v-.769a.835.835 0 0 1 1.67 0v.769h6.57v-.769a.835.835 0 0 1 1.67 0v.769h1.457a3.583 3.583 0 0 1 3.578 3.583l.02 4.063a.836.836 0 0 1 -1.672 0l-.018-.475h-16.641v7.411a1.918 1.918 0 0 0 1.914 1.917h5.152a.835.835 0 1 1 0 1.671zm-1.914-14.586v1.917h16.641v-1.917a1.915 1.915 0 0 0 -1.908-1.912h-1.457v.769a.835.835 0 0 1 -1.67 0v-.769h-6.57v.769a.835.835 0 0 1 -1.67 0v-.769h-1.451a1.917 1.917 0 0 0 -1.91600000001 1.91zm12.525 11.687v-1h-1a.836.836 0 1 1 0-1.671h1v-1a.834.834 0 0 1 1.668 0v1h.99a.836.836 0 1 1 0 1.671h-.99v1a.834.834 0 0 1 -1.668 0z" fill="#005392" transform="translate(-21571.36 -5201.358)"/></svg>