<svg fill="none" height="20" viewBox="0 0 22 30" width="22" xmlns="http://www.w3.org/2000/svg"><path d="m11.0005 0c-5.80501 0-10.500012 4.695-10.500012 10.5 0 7.875 10.500012 19.5 10.500012 19.5s10.5-11.625 10.5-19.5c0-5.805-4.695-10.5-10.5-10.5zm0 14.25c-.9946 0-1.9484-.3951-2.65166-1.0983-.70326-.7033-1.09835-1.6571-1.09835-2.6517 0-.99456.39509-1.94839 1.09835-2.65165s1.65706-1.09835 2.65166-1.09835 1.9484.39509 2.6516 1.09835c.7033.70326 1.0984 1.65709 1.0984 2.65165 0 .9946-.3951 1.9484-1.0984 2.6517-.7032.7032-1.657 1.0983-2.6516 1.0983z" fill="#f2971b"/></svg>