<svg height="15.997" viewBox="0 0 16.002 15.997" width="16.002" xmlns="http://www.w3.org/2000/svg" xmlns:xlink="http://www.w3.org/1999/xlink"><linearGradient id="a" gradientUnits="objectBoundingBox" x1=".5" x2=".5" y2="1"><stop offset="0" stop-color="#f79818"/><stop offset="1" stop-color="#ffa324"/></linearGradient><path d="m8 16a8 8 0 1 1 8-8 8.011 8.011 0 0 1 -8 8zm4.5-9.5a1.5 1.5 0 1 0 1.5 1.5 1.5 1.5 0 0 0 -1.5-1.5zm-4.5 0a1.5 1.5 0 1 0 1.5 1.5 1.5 1.5 0 0 0 -1.5-1.5zm-4.5 0a1.5 1.5 0 1 0 1.5 1.5 1.5 1.5 0 0 0 -1.5-1.5z" fill="url(#a)" transform="translate(.002 -.002)"/></svg>