<svg height="17" viewBox="0 0 17 17" width="17" xmlns="http://www.w3.org/2000/svg"><g fill="#f2971b"><g opacity="0"><path d="m16.5 16.5h-16v-16h16z"/><path d="m1 1v15h15v-15zm-1-1h17v17h-17z" fill="#707070"/></g><path d="m-1990.54-15557.023v-3.09h1.04v3.09zm-7.269 0v-3.09h1.04v3.09zm9.466-1.03a5.617 5.617 0 0 0 -.588-5.239 5.715 5.715 0 0 0 -4.688-2.485h-.07a5.715 5.715 0 0 0 -4.69 2.484 5.616 5.616 0 0 0 -.588 5.24h-1.112a6.642 6.642 0 0 1 .372-5.034 6.733 6.733 0 0 1 3.812-3.344 4.117 4.117 0 0 1 -1.872-2.879 4.1 4.1 0 0 1 .97-3.288 4.172 4.172 0 0 1 3.142-1.425 4.173 4.173 0 0 1 3.143 1.425 4.1 4.1 0 0 1 .97 3.288 4.115 4.115 0 0 1 -1.873 2.879 6.734 6.734 0 0 1 3.807 3.346 6.647 6.647 0 0 1 .369 5.032zm-7.523-9.674a3.147 3.147 0 0 0 2.177.919h.07a3.138 3.138 0 0 0 2.188-.926 3.078 3.078 0 0 0 .891-2.187 3.079 3.079 0 0 0 -.924-2.173 3.135 3.135 0 0 0 -2.2-.893 3.132 3.132 0 0 0 -2.194.908 3.077 3.077 0 0 0 -.908 2.181 3.082 3.082 0 0 0 .899 2.17zm-.017 6.921a1.794 1.794 0 0 1 -.516-2 1.819 1.819 0 0 1 1.715-1.171 1.807 1.807 0 0 1 1.028.326 1.8 1.8 0 0 1 1.04-.326 1.82 1.82 0 0 1 1.705 1.174 1.8 1.8 0 0 1 -.516 2l-2.228 1.89zm.632-1.967a.765.765 0 0 0 -.244.6.77.77 0 0 0 .31.575l1.542 1.312 1.542-1.313v.006a.766.766 0 0 0 .263-.566.768.768 0 0 0 -.248-.575.785.785 0 0 0 -.6-.2.776.776 0 0 0 -.551.3l-.419.55-.415-.55a.777.777 0 0 0 -.557-.343.594.594 0 0 0 -.093-.007.779.779 0 0 0 -.531.211z" transform="translate(2002.159 15574.023)"/></g></svg>