<svg fill="none" height="28" viewBox="0 0 27 28" width="27" xmlns="http://www.w3.org/2000/svg"><path d="m11.8171 27.3778c-.9835-.1314-1.94907-.3762-2.87794-.7297-.82546-.2987-1.61824-.6833-2.36568-1.1478l2.26083-3.7605c.83763.5521 1.78549.9085 2.77529 1.0435 1.4026.2493 2.8424.1785 4.2147-.2074 1.0976-.2867 2.117-.822 2.9817-1.5658.856-.7431 1.5855-1.6244 2.1592-2.6083.5418-1.0399.8902-2.1722 1.0278-3.3403.1027-1.1567-.0008-2.3228-.3058-3.4422-.2824-1.1145-.8097-2.1495-1.5422-3.02753-.7096-.89034-1.5828-1.63229-2.571-2.18468-1.2839-.73412-2.7421-1.09516-4.2148-1.04354v-4.492456c2.1926.028626 4.3452.599596 6.2714 1.663466 1.5205.8204 2.8519 1.95975 3.9056 3.34244 1.0494 1.33922 1.8516 2.86006 2.3679 4.4891.4969 1.6905.6373 3.4685.4118 5.2178-.1992 1.7527-.7216 3.4517-1.54 5.0081-.8072 1.5451-1.9294 2.8977-3.2919 3.9679-1.3577 1.0637-2.8894 1.876-4.5249 2.3998-1.1608.35-2.366.5245-3.5769.5179-.5233.001-1.0461-.0323-1.5651-.0998zm-7.81244-3.9657c-.43554-.4646-.84711-.9517-1.23308-1.4594l3.495-2.6083c.24594.3374.52158.6514.82351.9382l.30909.3138-2.8801 3.3325zm-2.98167-4.7974c-.183282-.4732-.320461-.9635-.409575-1.4639l4.214755-1.0435c.10266.3138.20533.6277.30909 1.0435.12106.2357.22438.4804.30908.732l-4.01269 1.7743c-.10158-.3149-.308-.733-.41066-1.0424zm9.97491.2085-2.87788-2.9244c-.04752-.0366-.08606-.0839-.11258-.1381-.02653-.0543-.04034-.1141-.04034-.1746 0-.0606.01381-.1203.04034-.1746.02652-.0543.06506-.1015.11258-.1382l.81914-.8372c.03606-.0483.08263-.0874.13606-.1143.05344-.027.11228-.041.17194-.041.05965 0 .1185.014.17193.041.05343.0269.1.066.13606.1143l1.33795 1.3585c.0358.0484.0822.0877.1356.1148.0533.0271.1122.0412.1718.0412.0597 0 .1185-.0141.1719-.0412.0533-.0271.0998-.0664.1356-.1148l5.6553-5.6358c.0361-.0483.0827-.0874.1361-.1144.0534-.0269.1123-.0409.1719-.0409.0597 0 .1185.014.172.0409.0534.027.1.0661.136.1144l.9284.9404c.0475.0366.086.0839.1126.1381.0265.0543.0403.114.0403.1746s-.0138.1203-.0403.1746c-.0266.0542-.0651.1015-.1126.1381l-7.0992 7.0975c-.0782.0906-.1886.146-.3069.1541-.1162-.0084-.2248-.0615-.3037-.1486zm-10.79624-5.7401v-.3138c0-.3139.102666-.5223.102666-.8362l4.317414.7319c-.02416.176-.05844.3504-.10266.5224v1.1455l-4.31742.2096zm.92399-3.76051c.21306-.58582.48924-1.14593.82351-1.67012.15916-.22979.297-.47407.41175-.7297l3.70034 2.39982c-.08094.03947-.15118.09837-.20465.1716-.05348.07324-.08858.1586-.10226.2487-.21334.36101-.38591.74531-.51442 1.14561zm2.87901-4.48359c.49907-.54234 1.05089-1.03204 1.64702-1.46162.10266-.1109.20314-.2096.3069-.2096l2.46834 3.65185-.20642.10425c-.42402.29116-.8047.64259-1.13041 1.04354zm4.21584-3.0286c.7917-.33793 1.61926-.58168 2.4662-.72638l.5144 2.19244.4117 2.19244c-.5772.06194-1.1364.24028-1.6448.52455z" fill="#005392"/></svg>