<svg height="24" viewBox="0 0 24.001 24" width="24.001" xmlns="http://www.w3.org/2000/svg"><path d="m10.635 23.91a11.946 11.946 0 0 1 -2.635-.658 11.624 11.624 0 0 1 -2.166-1.035l2.07-3.391a6.178 6.178 0 0 0 2.541.941 8.785 8.785 0 0 0 3.859-.187 6.872 6.872 0 0 0 2.73-1.412 9.384 9.384 0 0 0 1.977-2.352 8.632 8.632 0 0 0 .941-3.012 8.708 8.708 0 0 0 -.28-3.104 6.873 6.873 0 0 0 -1.412-2.73 7.978 7.978 0 0 0 -2.354-1.97 7.348 7.348 0 0 0 -3.859-.941v-4.051a12.349 12.349 0 0 1 5.742 1.5 11.119 11.119 0 0 1 3.576 3.014 12.8 12.8 0 0 1 2.168 4.048 11.316 11.316 0 0 1 .377 4.705 12.673 12.673 0 0 1 -1.41 4.516 11.1 11.1 0 0 1 -3.014 3.578 13.362 13.362 0 0 1 -4.143 2.164 11.29 11.29 0 0 1 -3.275.467 11.115 11.115 0 0 1 -1.433-.09zm-7.153-3.576a16.771 16.771 0 0 1 -1.129-1.316l3.2-2.352a6.247 6.247 0 0 0 .754.846l.283.283-2.637 3.005zm-2.73-4.326a7.02 7.02 0 0 1 -.375-1.32l3.859-.941c.094.283.188.566.283.941a4.752 4.752 0 0 1 .283.66l-3.674 1.6c-.093-.284-.282-.661-.376-.94zm9.133.188-2.635-2.637a.354.354 0 0 1 0-.564l.75-.755a.354.354 0 0 1 .564 0l1.225 1.225a.352.352 0 0 0 .563 0l5.178-5.082a.354.354 0 0 1 .564 0l.85.848a.354.354 0 0 1 0 .564l-6.5 6.4a.41.41 0 0 1 -.281.139.418.418 0 0 1 -.278-.134zm-9.885-5.176v-.283c0-.283.094-.471.094-.754l3.953.66a4.11 4.11 0 0 1 -.094.471v1.033l-3.953.189zm.846-3.391a7.641 7.641 0 0 1 .754-1.506 4.1 4.1 0 0 0 .377-.658l3.388 2.164a.506.506 0 0 0 -.281.379 5.049 5.049 0 0 0 -.471 1.033zm2.636-4.043a9.927 9.927 0 0 1 1.508-1.318c.094-.1.186-.189.281-.189l2.26 3.293-.189.094a4.9 4.9 0 0 0 -1.035.941zm3.86-2.731a10.19 10.19 0 0 1 2.258-.655l.471 1.977.377 1.977a3.992 3.992 0 0 0 -1.506.473z" fill="#fff"/></svg>