<svg height="36" viewBox="0 0 35.442 36" width="35.442" xmlns="http://www.w3.org/2000/svg"><path d="m-4556.08-3245.149a3.569 3.569 0 0 1 -3.579-3.579v-23.5l-6.639-6.641 2.284-2.283 33.158 33.2-2.286 2.286-5-5v1.94a3.57 3.57 0 0 1 -3.579 3.579zm0-3.537h14.357v-5.561l-1.639-1.639h-12.719zm0-10.821h9.14l-9.14-9.14zm3.621 8.969v-3.579h7.2v3.579zm10.778-13.367v-13.495h-13.536l-2.933-2.932a3.415 3.415 0 0 1 2.07-.691h14.4a3.57 3.57 0 0 1 3.58 3.579v17.116zm0-13.494v-.043z" fill="#89959f" transform="translate(4566.297 3281.149)"/></svg>