<svg height="20" viewBox="0 0 16.349 22" width="24.3" xmlns="http://www.w3.org/2000/svg"><path d="m19.5 11.844h6.786v-3.644a3.394 3.394 0 1 0 -6.787 0v3.647zm9.059.177a3.635 3.635 0 0 1 2.507 3.444v5.445a3.632 3.632 0 0 1 -3.622 3.622h-9.1a3.632 3.632 0 0 1 -3.622-3.622v-5.445a3.635 3.635 0 0 1 2.507-3.444v-3.821a5.666 5.666 0 0 1 11.331 0v3.824zm-5.666 2.7a1.928 1.928 0 0 0 -.912 3.627v2.4a.912.912 0 1 0 1.823 0v-2.4a1.928 1.928 0 0 0 -.912-3.627z" fill="currentColor" transform="translate(-14.722 -2.532)"/></svg>