<svg height="16.8" viewBox="0 0 24 16.8" width="24" xmlns="http://www.w3.org/2000/svg"><path d="m3.6 9.45a2.4 2.4 0 1 0 -2.4-2.4 2.4 2.4 0 0 0 2.4 2.4zm16.8 0a2.4 2.4 0 1 0 -2.4-2.4 2.4 2.4 0 0 0 2.4 2.4zm1.2 1.2h-2.4a2.393 2.393 0 0 0 -1.691.7 5.485 5.485 0 0 1 2.816 4.1h2.475a1.2 1.2 0 0 0 1.2-1.2v-1.2a2.4 2.4 0 0 0 -2.4-2.4zm-9.6 0a4.2 4.2 0 1 0 -4.2-4.2 4.2 4.2 0 0 0 4.2 4.2zm2.88 1.2h-.311a5.8 5.8 0 0 1 -5.137 0h-.312a4.321 4.321 0 0 0 -4.32 4.32v1.08a1.8 1.8 0 0 0 1.8 1.8h10.8a1.8 1.8 0 0 0 1.8-1.8v-1.08a4.321 4.321 0 0 0 -4.32-4.32zm-8.389-.5a2.393 2.393 0 0 0 -1.691-.7h-2.4a2.4 2.4 0 0 0 -2.4 2.4v1.2a1.2 1.2 0 0 0 1.2 1.2h2.471a5.5 5.5 0 0 1 2.82-4.103z" fill="#fff" transform="translate(0 -2.25)"/></svg>