<svg height="20" viewBox="0 0 20.001 20" width="20.001" xmlns="http://www.w3.org/2000/svg"><path d="m8.862 19.925a9.955 9.955 0 0 1 -2.194-.549 9.687 9.687 0 0 1 -1.805-.863l1.725-2.826a5.148 5.148 0 0 0 2.118.785 7.321 7.321 0 0 0 3.216-.156 5.726 5.726 0 0 0 2.278-1.176 7.82 7.82 0 0 0 1.647-1.96 7.193 7.193 0 0 0 .785-2.51 7.257 7.257 0 0 0 -.236-2.588 5.727 5.727 0 0 0 -1.177-2.275 6.648 6.648 0 0 0 -1.961-1.644 6.124 6.124 0 0 0 -3.216-.785v-3.371a10.291 10.291 0 0 1 4.782 1.253 9.266 9.266 0 0 1 2.976 2.511 10.665 10.665 0 0 1 1.807 3.371 9.43 9.43 0 0 1 .314 3.921 10.561 10.561 0 0 1 -1.177 3.763 9.252 9.252 0 0 1 -2.511 2.982 11.135 11.135 0 0 1 -3.452 1.8 9.408 9.408 0 0 1 -2.724.392 9.262 9.262 0 0 1 -1.195-.075zm-5.962-2.98a13.976 13.976 0 0 1 -.941-1.1l2.666-1.96a5.206 5.206 0 0 0 .628.7l.236.236-2.2 2.508zm-2.273-3.605a5.85 5.85 0 0 1 -.313-1.1l3.216-.785c.078.236.156.472.236.785a3.96 3.96 0 0 1 .234.55l-3.059 1.333c-.078-.236-.241-.55-.314-.783zm7.611.156-2.2-2.2a.3.3 0 0 1 0-.47l.627-.628a.3.3 0 0 1 .47 0l1.021 1.021a.293.293 0 0 0 .469 0l4.315-4.235a.3.3 0 0 1 .47 0l.708.706a.3.3 0 0 1 0 .47l-5.41 5.34a.342.342 0 0 1 -.234.116.348.348 0 0 1 -.237-.116zm-8.238-4.313v-.236c0-.236.078-.392.078-.628l3.294.55a3.425 3.425 0 0 1 -.078.392v.861l-3.294.158zm.7-2.826a6.367 6.367 0 0 1 .633-1.257 3.415 3.415 0 0 0 .314-.549l2.824 1.8a.421.421 0 0 0 -.234.316 4.208 4.208 0 0 0 -.392.861zm2.2-3.369a8.273 8.273 0 0 1 1.257-1.1c.078-.08.155-.158.234-.158l1.885 2.746-.158.078a4.083 4.083 0 0 0 -.863.785zm3.218-2.275a8.492 8.492 0 0 1 1.882-.55l.394 1.647.314 1.647a3.327 3.327 0 0 0 -1.255.394z" fill="#f2971b"/></svg>