<svg height="42" viewBox="0 0 35.32 42" width="35.32" xmlns="http://www.w3.org/2000/svg"><g fill="#4da0e6"><path d="m.841 5.046a.841.841 0 0 0 .841-.846v-3.359a.841.841 0 1 0 -1.682 0v3.359a.841.841 0 0 0 .841.846zm0 6.728a.841.841 0 0 0 .841-.841v-3.364a.841.841 0 1 0 -1.682 0v3.364a.841.841 0 0 0 .841.84z" transform="matrix(.97437006 .22495105 -.22495105 .97437006 14.801 26.873)"/><path d="m.841 5.046a.841.841 0 0 0 .841-.846v-3.359a.841.841 0 1 0 -1.682 0v3.359a.841.841 0 0 0 .841.846zm0 6.728a.841.841 0 0 0 .841-.841v-3.364a.841.841 0 0 0 -1.682 0v3.364a.841.841 0 0 0 .841.84z" transform="matrix(.97437006 .22495105 -.22495105 .97437006 19.09 30.15)"/><path d="m.841 5.046a.841.841 0 0 0 .841-.846v-3.359a.841.841 0 1 0 -1.682 0v3.359a.841.841 0 0 0 .841.846zm0 6.728a.841.841 0 0 0 .841-.841v-3.364a.841.841 0 1 0 -1.682 0v3.364a.841.841 0 0 0 .841.84z" transform="matrix(.97437006 .22495105 -.22495105 .97437006 24.893 26.873)"/></g><path d="m27.752 25.229a7.569 7.569 0 0 0 0-15.137 6.914 6.914 0 0 0 -2.681.5 12.617 12.617 0 1 0 -12.457 14.637z" fill="#89959f"/></svg>