<svg height="22" viewBox="0 0 20 22" width="20" xmlns="http://www.w3.org/2000/svg"><path d="m10917.8 2586.6a5.873 5.873 0 0 1 -2.051-1.682h-8.548a1.007 1.007 0 0 1 -1-1.013v-1.519a7.081 7.081 0 0 1 2.054-4.969 6.982 6.982 0 0 1 4.936-2.069h1.959a.664.664 0 0 1 .471.232.7.7 0 0 1 .138.572.826.826 0 0 1 -.751.689h-1.816a5.49 5.49 0 0 0 -3.869 1.623 5.58 5.58 0 0 0 -1.612 3.9v1.012h7.19a5.9 5.9 0 0 1 1.509-6.38 6.4 6.4 0 0 1 1.575-1.043h.008c.086-.039.175-.076.265-.111l.039-.012a.273.273 0 0 0 .07-.029 5.733 5.733 0 0 1 1.985-.354h.029a5.823 5.823 0 0 1 4.942 2.775 5.906 5.906 0 0 1 .278 5.692 5.873 5.873 0 0 1 -1.906 2.23 5.812 5.812 0 0 1 -2.742 1.02 5.7 5.7 0 0 1 -.588.03 5.837 5.837 0 0 1 -2.565-.594zm.911-9.295a4.361 4.361 0 0 0 -2.66 4.035 4.371 4.371 0 0 0 1.282 3.078 4.31 4.31 0 0 0 3.042 1.26 4.332 4.332 0 0 0 3.05-1.282 4.365 4.365 0 0 0 .939-1.409 4.41 4.41 0 0 0 .335-1.663 4.365 4.365 0 0 0 -1.271-3.082 4.307 4.307 0 0 0 -3.055-1.272h-.009a4.249 4.249 0 0 0 -1.649.33zm.91 6.119v-1.342h-1.332a.76.76 0 0 1 0-1.52h1.332v-1.342a.754.754 0 1 1 1.509 0v1.342h1.332a.76.76 0 0 1 0 1.52h-1.332v1.342a.754.754 0 1 1 -1.509 0zm-8.753-10.276a4.682 4.682 0 0 1 0-6.587 4.6 4.6 0 0 1 6.543 0 4.679 4.679 0 0 1 0 6.587 4.6 4.6 0 0 1 -6.543 0zm2.11-6.2a3.1 3.1 0 1 0 1.187-.237 3.083 3.083 0 0 0 -1.183.241z" fill="#005392" transform="translate(-10906.2 -2565.196)"/></svg>