<svg height="42" viewBox="0 0 42 42" width="42" xmlns="http://www.w3.org/2000/svg" xmlns:xlink="http://www.w3.org/1999/xlink"><clipPath id="a"><path d="m0 0h42v42h-42z"/></clipPath><g clip-path="url(#a)"><path d="m163 83.118a11.118 11.118 0 1 0 -11.118-11.118 11.118 11.118 0 0 0 11.118 11.118zm1.235-30.882a1.235 1.235 0 1 0 -2.471 0v2.471a1.235 1.235 0 0 0 2.471 0zm13.614 6.664a1.235 1.235 0 0 0 -1.747-1.747l-1.747 1.747a1.235 1.235 0 0 0 1.747 1.747zm4.915 14.338a1.235 1.235 0 1 0 0-2.471h-2.471a1.235 1.235 0 1 0 0 2.471zm-6.664 13.611a1.235 1.235 0 0 0 1.747-1.747l-1.747-1.747a1.235 1.235 0 0 0 -1.747 1.747zm-14.338 4.915a1.235 1.235 0 1 0 2.471 0v-2.47a1.235 1.235 0 1 0 -2.471 0zm-13.611-6.664a1.235 1.235 0 0 0 1.747 1.747l1.747-1.747a1.235 1.235 0 0 0 -1.747-1.747zm-4.915-14.338a1.235 1.235 0 1 0 0 2.471h2.471a1.235 1.235 0 0 0 0-2.471zm6.664-13.611a1.235 1.235 0 1 0 -1.747 1.747l1.747 1.747a1.235 1.235 0 0 0 1.747-1.747z" fill="#facd68" transform="translate(-142 -51)"/></g></svg>