<svg fill="none" height="26" viewBox="0 0 15 26" width="15" xmlns="http://www.w3.org/2000/svg"><path d="m2.89954 26.0016c-.73878 0-1.44896-.2933-1.971504-.8155-.522543-.5223-.815082-1.2307-.815487-1.9695v-14.85827c.000405-.73878.292944-1.4471.815487-1.96936.522544-.52225 1.232724-.81567 1.971504-.81567h9.28396c.3659-.0002.7284.07175 1.0665.21162.338.13987.6433.34495.9021.60359.2587.25863.4663.5657.6064.9037.14.338.212.70026.212 1.06612v14.85827c0 .3659-.072.7281-.212 1.0661-.1401.338-.3477.6451-.6064.9037-.2588.2587-.5641.4638-.9021.6037-.3381.1399-.7006.2117-1.0665.2115zm2.01632-12.847c-.51959.5198-.87516 1.1819-1.01861 1.9028-.14346.7208-.0689 1.4679.21208 2.147.28084.6785.75482 1.2585 1.36512 1.6669.6103.4083 1.32982.6266 2.06411.6273.98666-.0001 1.93263-.3911 2.63164-1.0874.6944-.6983 1.0842-1.6428 1.0844-2.6275-.0002-.7346-.219-1.4526-.6273-2.0633-.4084-.6106-.98804-1.0865-1.66687-1.3672-.45071-.1876-.9337-.2837-1.42187-.283-.48715.0007-.9691.0974-1.41889.2845s-.85989.461-1.20381.806zm.7647 2.6275c-.0002-.2437.04726-.4851.1404-.7104.09314-.2252.22798-.4299.40027-.6023.17229-.1725.37822-.3092.60341-.4026.22517-.0933.46718-.1414.71093-.1414.24433-.001.48496.0463.71094.1392s.43341.2296.60639.4021c.17298.1726.30981.3776.40326.6033.09345.2258.1408.4678.1404.7121.0002.2443-.04688.4862-.1404.7119-.09352.2256-.23331.4306-.40625.6031s-.37751.3092-.6034.4021c-.22589.093-.46667.1405-.71094.1397-.49043-.0012-.96157-.1966-1.30836-.5434s-.54245-.8168-.54366-1.3072zm-2.784-12.07006v-1.85669c.0004-.49218.19592-.964163.54365-1.312475.34774-.348311.81918-.54459059 1.31135-.54580469h5.57404c.4918.00241811.9638.19906069 1.3113.54711169s.5421.819358.5437 1.311168v1.85669z" fill="#dd8721"/></svg>