<svg height="20" viewBox="0 0 20 20" width="20" xmlns="http://www.w3.org/2000/svg" xmlns:xlink="http://www.w3.org/1999/xlink"><clipPath id="a"><path d="m.5 0h19a.5.5 0 0 1 .5.5v19a.5.5 0 0 1 -.5.5h-19a.5.5 0 0 1 -.5-.5v-19a.5.5 0 0 1 .5-.5z" transform="translate(1.267 1)"/></clipPath><g clip-path="url(#a)" transform="translate(-1.267 -1)"><g fill="#fff" transform="translate(.156 -.111)"><path d="m18.508 2.882v1.141a1.452 1.452 0 0 1 -1.451 1.451h-.257a1.452 1.452 0 0 1 -1.451-1.451v-1.141h-8.439v1.141a1.452 1.452 0 0 1 -1.451 1.45h-.259a1.452 1.452 0 0 1 -1.447-1.45v-1.141h-.49a2.077 2.077 0 0 0 -2.074 2.075v14.08a2.077 2.077 0 0 0 2.075 2.075h13.8v-.026a.8.8 0 0 0 .39-.221l3.276-3.4a.942.942 0 0 0 .306-.486v-12.022a2.077 2.077 0 0 0 -2.075-2.075zm-15.708 16.154v-11.904h16.618v9.018h-1.81a1.27 1.27 0 0 0 -1.266 1.266v2.084h-13.078a.466.466 0 0 1 -.46-.459z"/><path d="m5.2 4.85h.256a.828.828 0 0 0 .827-.827v-2.085a.828.828 0 0 0 -.827-.827h-.256a.828.828 0 0 0 -.827.827v2.085a.829.829 0 0 0 .827.827z"/><path d="m16.8 4.85h.256a.828.828 0 0 0 .827-.827v-2.085a.828.828 0 0 0 -.827-.827h-.256a.828.828 0 0 0 -.827.827v2.085a.829.829 0 0 0 .827.827z"/><path d="m16.286 10.836-1.023-1.023a.372.372 0 0 0 -.521 0l-4.467 4.313a.372.372 0 0 1 -.513 0l-2.2-2.064a.372.372 0 0 0 -.542.036l-1.069 1.302a.371.371 0 0 0 .043.515l3.769 3.317a.371.371 0 0 0 .505-.013l6.015-5.857a.371.371 0 0 0 0-.528z"/></g></g></svg>