<svg height="42" viewBox="0 0 42 42" width="42" xmlns="http://www.w3.org/2000/svg" xmlns:xlink="http://www.w3.org/1999/xlink"><clipPath id="a"><path d="m0 0h42v42h-42z"/></clipPath><g clip-path="url(#a)"><path d="m25.435 14.759a7.075 7.075 0 0 0 -12.675-4.323 10.28 10.28 0 0 1 1.082 1.181 5.5 5.5 0 1 1 9 6.332 5.53 5.53 0 0 1 1.2 1.017 7.043 7.043 0 0 0 1.393-4.207zm-3.209-14.425a.786.786 0 0 0 -.963.556l-1.22 4.555a.786.786 0 0 0 1.519.407l1.22-4.552a.786.786 0 0 0 -.556-.966zm9.068 6.959a.786.786 0 0 0 -1.073-.293l-4.085 2.362a.786.786 0 0 0 .786 1.361l4.084-2.358a.786.786 0 0 0 .288-1.073zm1.492 11.333a.786.786 0 0 0 -.556-.963l-4.556-1.221a.786.786 0 1 0 -.407 1.519l4.556 1.221a.786.786 0 0 0 .963-.557zm-21.893-16.8a.786.786 0 0 0 -.288 1.074l2.358 4.084a.786.786 0 0 0 1.362-.784l-2.358-4.087a.786.786 0 0 0 -1.074-.287z" fill="#facd68" transform="translate(7.597 -.307)"/><g fill="#4da0e6"><path d="m.786 3.144a.786.786 0 0 0 .786-.786v-1.572a.786.786 0 0 0 -1.572 0v1.572a.786.786 0 0 0 .786.786zm0 4.716a.786.786 0 0 0 .786-.786v-1.574a.786.786 0 0 0 -1.572 0v1.574a.786.786 0 0 0 .786.786zm0 3.14a.786.786 0 1 0 -.786-.781.786.786 0 0 0 .786.781z" transform="matrix(.97437006 .22495105 -.22495105 .97437006 15.425 30.924)"/><path d="m1.572.786a.786.786 0 1 0 -.786.786.786.786 0 0 0 .786-.786zm-.786 5.5a.786.786 0 0 0 .786-.786v-1.57a.786.786 0 1 0 -1.572 0v1.57a.786.786 0 0 0 .786.788zm0 4.714a.786.786 0 0 0 .786-.786v-1.568a.786.786 0 1 0 -1.572 0v1.572a.786.786 0 0 0 .786.782z" transform="matrix(.97437006 .22495105 -.22495105 .97437006 20.141 30.924)"/><path d="m1.572 5.5a.786.786 0 1 0 -.786.786.786.786 0 0 0 .786-.786zm-.786-2.356a.786.786 0 0 0 .786-.786v-1.572a.786.786 0 0 0 -1.572 0v1.572a.786.786 0 0 0 .786.786zm0 7.86a.786.786 0 0 0 .786-.786v-1.572a.786.786 0 0 0 -1.572 0v1.572a.786.786 0 0 0 .786.782z" transform="matrix(.97437006 .22495105 -.22495105 .97437006 24.857 30.924)"/></g><path d="m25.939 27.581a7.074 7.074 0 1 0 0-14.149 6.462 6.462 0 0 0 -2.506.466 11.793 11.793 0 1 0 -11.642 13.683z" fill="#89959f" transform="translate(1.59 1.806)"/></g></svg>