<svg height="19.998" viewBox="0 0 20 19.998" width="20" xmlns="http://www.w3.org/2000/svg"><path d="m10904.334 4138.111a1.222 1.222 0 0 1 -1.223-1.223v-17.553a1.22 1.22 0 0 1 1.223-1.223h2.332v6.085a.749.749 0 0 0 .749.749h8.158a.744.744 0 0 0 .748-.749v-6.085h1.56a1.1 1.1 0 0 1 .779.321l4.128 4.128a1.1 1.1 0 0 1 .323.778v13.548a1.22 1.22 0 0 1 -1.223 1.223zm2.552-11.223a.748.748 0 0 0 -.22.529v8.024a.749.749 0 0 0 .749.748h11.393a.749.749 0 0 0 .749-.748v-8.024a.749.749 0 0 0 -.749-.749h-11.393a.747.747 0 0 0 -.529.22zm2.149 6.541a.141.141 0 0 1 -.14-.143v-.828a.14.14 0 0 1 .14-.14h8.149a.14.14 0 0 1 .1.041.148.148 0 0 1 .041.1v.828a.154.154 0 0 1 -.041.1.139.139 0 0 1 -.1.042zm0-2.89a.15.15 0 0 1 -.14-.143v-.828a.14.14 0 0 1 .14-.14h8.149a.153.153 0 0 1 .143.14v.828a.143.143 0 0 1 -.143.143zm2.571-6.6a.215.215 0 0 1 -.217-.216v-5.4a.216.216 0 0 1 .217-.216h2.565a.215.215 0 0 1 .153.063.212.212 0 0 1 .063.153v5.4a.212.212 0 0 1 -.063.153.215.215 0 0 1 -.153.063z" fill="#fff" transform="translate(-10903.111 -4118.113)"/></svg>