<svg height="10" viewBox="0 0 10 10" width="10" xmlns="http://www.w3.org/2000/svg"><g transform="translate(-89 -91)"><path d="m11.8 8.842a.662.662 0 0 1 -.195.482.631.631 0 0 1 -.469.2.639.639 0 0 1 -.471-.2.69.69 0 0 1 0-.964.651.651 0 0 1 .94 0 .667.667 0 0 1 .195.482zm-.162 4.49a.579.579 0 0 1 -.37.208 1.266 1.266 0 0 1 -.405.074.719.719 0 0 1 -.552-.21.753.753 0 0 1 -.2-.534 2.328 2.328 0 0 1 .015-.257c.01-.087.026-.186.047-.3l.244-1.051c.022-.1.04-.2.055-.286a1.485 1.485 0 0 0 .022-.246.436.436 0 0 0 -.068-.281.336.336 0 0 0 -.261-.079.569.569 0 0 0 -.194.036c-.067.024-.106-.256-.106-.256q.24-.119.459-.2a1.153 1.153 0 0 1 .415-.085.7.7 0 0 1 .543.207.763.763 0 0 1 .191.538c0 .045 0 .126-.013.241a1.98 1.98 0 0 1 -.049.317l-.243 1.047c-.02.084-.038.18-.053.288a1.817 1.817 0 0 0 -.024.245.4.4 0 0 0 .077.285.375.375 0 0 0 .266.075.648.648 0 0 0 .2-.038c.075-.025.093.146 0 .264z" fill="#f2971b" transform="translate(83.17 85.114)"/><g fill="none" stroke="#f2971b"><circle cx="94" cy="96" r="5" stroke="none"/><circle cx="94" cy="96" fill="none" r="4.5"/></g></g></svg>