<svg height="22" viewBox="0 0 22 22" width="22" xmlns="http://www.w3.org/2000/svg" xmlns:xlink="http://www.w3.org/1999/xlink"><clipPath id="a"><path d="m.5 0h21a.5.5 0 0 1 .5.5v21a.5.5 0 0 1 -.5.5h-21a.5.5 0 0 1 -.5-.5v-21a.5.5 0 0 1 .5-.5z" transform="translate(1.267 1)"/></clipPath><g clip-path="url(#a)" fill="#fff" transform="translate(-1.267 -1)"><path d="m20.39 2.882v1.266a1.611 1.611 0 0 1 -1.608 1.61h-.282a1.611 1.611 0 0 1 -1.608-1.61v-1.266h-9.361v1.266a1.611 1.611 0 0 1 -1.608 1.61h-.284a1.611 1.611 0 0 1 -1.608-1.61v-1.266h-.542a2.3 2.3 0 0 0 -2.3 2.3v15.627a2.3 2.3 0 0 0 2.3 2.3h15.3v-.029a.891.891 0 0 0 .432-.246l3.632-3.777a1.046 1.046 0 0 0 .339-.539v-13.334a2.3 2.3 0 0 0 -2.3-2.3zm-17.411 17.927v-13.209h18.421v10.006h-2.008a1.409 1.409 0 0 0 -1.4 1.405v2.307h-14.503a.517.517 0 0 1 -.51-.51z" transform="translate(.078 -.111)"/><path d="m5.2 4.85h.256a.828.828 0 0 0 .827-.827v-2.085a.828.828 0 0 0 -.827-.827h-.256a.828.828 0 0 0 -.827.827v2.085a.829.829 0 0 0 .827.827z" transform="translate(.461 -.111)"/><path d="m16.8 4.85h.256a.828.828 0 0 0 .827-.827v-2.085a.828.828 0 0 0 -.827-.827h-.256a.828.828 0 0 0 -.827.827v2.085a.829.829 0 0 0 .827.827z" transform="translate(1.855 -.111)"/></g></svg>