<svg height="48" viewBox="0 0 156.941 48" width="156.941" xmlns="http://www.w3.org/2000/svg"><g fill="#f3972d"><path d="m1471.761 269.313c-.937-.511-1.924-.536-2.711-1.412.351-2.322 2.083-4.088 3.088-6.132-1.793-4.523.147-8.268 2.355-11.959a9.175 9.175 0 0 1 .663-.836 15.1 15.1 0 0 0 -6.7-.967q-11.193 1-15.737 11.331c-.462 1.054-.836 1.148-1.771.474-.439-3.8 6.305-10.729 12.38-12.719a19.87 19.87 0 0 1 17.865 34.915c1.269.241 1.741 1.2 2.257 2.161 1.1 2.035 2.249 4.04 3.359 6.068.7 1.285.486 1.981-.8 2.7-.562.315-1.122.635-1.693.934a1.469 1.469 0 0 1 -2.155-.585c-1.444-2.536-2.82-5.112-4.244-7.66-.262-.469-.069-.964-.215-1.572a21.15 21.15 0 0 1 -9.519 1.69 19.206 19.206 0 0 1 -9.012-2.825c-.186-.6-.233-1.058.226-1.365.543-.363 1-.011 1.475.226q10.011 5 19.233-1.345a5.247 5.247 0 0 0 .421-.354 3.354 3.354 0 0 0 -.242-2.575c-1.253.191-2.511.372-3.764.581a5.406 5.406 0 0 1 -1.7.092c-1.983-.294-2.72-1.373-2.275-3.315.059-.257.1-.517.181-.9-1.493-1.247-1.6-2.913-.974-4.652zm6.113-16.607a3.291 3.291 0 0 0 -3.353 3.381 3.342 3.342 0 1 0 6.685.006 3.271 3.271 0 0 0 -3.331-3.388z" transform="translate(-1332.332 -246.113)"/><path d="m1451.949 457.421-10.125 7.231 10.869 7.906c-.025.082-.05.163-.074.246-1.879 0-3.758.014-5.638-.01-.435-.006-.734-.37-1.068-.614-2.56-1.874-5.118-3.751-7.892-5.786v6.354h-4.231v-15.494h4.161v5.446c.536.2.748-.154 1-.326 2.226-1.514 4.45-3.031 6.645-4.589a3.079 3.079 0 0 1 1.991-.64c1.426.049 2.854.014 4.282.014l.078.262z" transform="translate(-1316.592 -439.896)"/><path d="m1152.864 457.631h4.8l8.132 15.543h-4.765l-1.438-2.812h-8.649l-1.46 2.827h-4.748l8.126-15.559zm-.32 9.493h5.47c-.919-1.869-1.775-3.61-2.713-5.517z" transform="translate(-1051.169 -440.341)"/></g><g fill="#185c98"><path d="m233.755 470.549 8.57-13.47a3.566 3.566 0 0 1 1.542.028v14.756c-.421.258-.832.093-1.354.146v-12.183l-.3-.12-7.823 12.18a2.241 2.241 0 0 1 -1.311.05l-8.064-12.607v12.471a1.628 1.628 0 0 1 -1.453.078v-14.8h1.533l8.661 13.47z" transform="translate(-205.286 -439.77)"/><path d="m758.964 471.5h-1.394v-14.969c3.458.16 6.953-.338 10.4.313a3.97 3.97 0 0 1 3.181 5.549c-.542 1.55-1.834 2.111-3.449 2.531l5.025 6.542h-1.709l-4.749-6.343h-7.306v6.377zm-.011-7.659c3.024-.051 5.949.238 8.833-.343a2.353 2.353 0 0 0 2.185-2.6 2.417 2.417 0 0 0 -2.165-2.742c-2.913-.616-5.864-.306-8.852-.369z" transform="translate(-695.646 -439.301)"/><path d="m.149 467.854v-1.6a14.942 14.942 0 0 0 7.943 1.362 8.383 8.383 0 0 0 3.089-.676 2.214 2.214 0 0 0 1.458-1.873 2.06 2.06 0 0 0 -1.238-2.005 17.963 17.963 0 0 0 -4.84-1.571 28.074 28.074 0 0 1 -3.8-1.128c-1.916-.777-2.85-1.918-2.754-3.347.1-1.523 1.166-2.6 3.122-3.176a17.266 17.266 0 0 1 9.631.512 3 3 0 0 1 .034 1.452 17.5 17.5 0 0 0 -4.019-1.059 14.475 14.475 0 0 0 -4.972.233c-1.539.373-2.306 1.1-2.326 2.124-.028 1.356 1.034 1.739 2.011 2.148a50.536 50.536 0 0 0 5.452 1.55 13.09 13.09 0 0 1 3.467 1.382 3.151 3.151 0 0 1 -.2 5.683 11.548 11.548 0 0 1 -5.745 1.089 18.439 18.439 0 0 1 -6.318-1.1z" transform="translate(.003 -436.435)"/><path d="m526.508 472.493a3.007 3.007 0 0 1 -1.481.02c-.648-1.213-1.322-2.473-2.03-3.8h-10.18l-2.052 3.834h-1.485l7.785-14.9h1.673l7.769 14.843zm-4.216-5.133-4.385-8.413-4.388 8.413z" transform="translate(-467.651 -440.359)"/><path d="m966.359 472.8a2.1 2.1 0 0 1 -1.5-.07v-13.57h-6.789v-1.18h14.983a1.333 1.333 0 0 1 -.044 1.179h-6.649v13.641z" transform="translate(-879.757 -440.662)"/><path d="m1742.883 326.77a3.271 3.271 0 0 1 3.332 3.386 3.342 3.342 0 1 1 -6.685-.006 3.291 3.291 0 0 1 3.353-3.38z" transform="translate(-1597.34 -320.177)"/></g></svg>