<svg fill="none" height="18" viewBox="0 0 27 18" width="27" xmlns="http://www.w3.org/2000/svg"><path d="m24.1212.197266h-21.6941c-.59256.003783-1.15978.244553-1.578695.670112-.418913.425562-.655759 1.001612-.659196 1.603282v13.19684c.003437.6016.240283 1.1777.659196 1.6032.418915.4256.986135.6664 1.578695.6702h21.7345c.5924-.0032 1.1597-.2433 1.579-.6682s.6568-1.0004.6611-1.6019v-13.20014c-.0201-.60371-.2681-1.17644-.6926-1.599635-.4245-.423192-.993-.664426-1.5879-.673759zm-18.61304 3.129524c.42608-.00043.8427.12745 1.19718.36748s.63087.58143.79422.98099c.16336.39957.20632.83935.12346 1.26371s-.28781.81424-.58894 1.1203c-.30112.30607-.68489.51457-1.10275.59913-.41785.08457-.85102.04139-1.2447-.12407s-.73019-.44575-.96695-.80543c-.23675-.35969-.36313-.78259-.36313-1.21521.0023-.5789.22965-1.13346.6326-1.54301.40295-.40956.94888-.64097 1.51901-.64389zm3.37705 10.88461c.00179.0791-.01224.1578-.04125.2313-.029.0735-.07238.1402-.12751.1962-.05512.0559-.12086.1-.19322.1294-.07237.0295-.14986.0437-.2278.0419h-5.53084c-.07794.0018-.15544-.0124-.22781-.0419-.07236-.0294-.1381-.0735-.19322-.1294-.05513-.056-.09851-.1227-.12751-.1962-.02901-.0735-.04304-.1522-.04124-.2313v-1.9707c.03124-.8758.39588-1.7052 1.01718-2.31366.6213-.60841 1.45082-.94839 2.31399-.94839s1.69268.33998 2.31398.94839c.62131.60846.98595 1.43786 1.01719 2.31366v1.9718zm13.67529-1.4561h-8.7375c-.1566 0-.3067-.0632-.4174-.1756s-.1729-.2648-.1729-.4238.0622-.3114.1729-.4238c.1107-.1125.2608-.1756.4174-.1756h8.7375c.0779-.0018.1554.0124.2278.0419.0724.0294.1381.0735.1932.1294.0551.056.0985.1228.1275.1962.029.0735.0431.1522.0413.2313-.0031.1583-.0663.3092-.1764.4212s-.2587.1765-.4145.1799zm0-3.12842h-8.7375c-.1566 0-.3067-.06316-.4174-.17557-.1107-.1124-.1729-.26486-.1729-.42383 0-.15898.0622-.31143.1729-.42384s.2608-.17557.4174-.17557h8.7375c.0779-.00182.1554.01243.2278.04188s.1381.07349.1932.12947c.0551.05597.0985.12272.1275.1962.029.07347.0431.15216.0413.2313-.0031.15806-.0661.30882-.176.42081s-.2582.17546-.4138.17915zm0-3.08517h-8.7375c-.1566 0-.3067-.06315-.4174-.17556s-.1729-.26487-.1729-.42384.0622-.31143.1729-.42384.2608-.17556.4174-.17556h8.7375c.0779-.00182.1554.01242.2278.04187s.1381.0735.1932.12947c.0551.05598.0985.12272.1275.1962s.0431.15216.0413.2313c-.0034.15806-.0667.30869-.1768.42048s-.2584.17608-.4141.17948z" fill="#005392"/></svg>