<svg height="20.276" viewBox="0 0 25.573 20.276" width="24.2" xmlns="http://www.w3.org/2000/svg"><path d="m3.823 32.552h20.834a1.389 1.389 0 0 0 1.4-1.4v-.591a.567.567 0 0 0 -.134-.35l-1.048-1.291a1.2 1.2 0 0 1 -.275-.72v-4.277a6.537 6.537 0 0 1 -2.07.322v4.055h-16.61v-10.587h10.054a6.784 6.784 0 0 1 .322-2.07h-10.349a2.07 2.07 0 0 0 -2.07 2.07v10.457a1.015 1.015 0 0 1 -.269.726l-1.076 1.316a.565.565 0 0 0 -.134.35v.591a1.43 1.43 0 0 0 1.425 1.4zm8.177-2.205h4.489v.162a.722.722 0 0 1 -.726.726h-3.042a.722.722 0 0 1 -.721-.726zm5.43-7.769a.216.216 0 0 0 .054.4 3.039 3.039 0 0 0 2.312-.619 5.467 5.467 0 0 0 6.586-.834 5.418 5.418 0 1 0 -7.877-.241l.054.054a2.613 2.613 0 0 1 -1.129 1.237zm5.349-8.227a.855.855 0 0 1 .86.887.887.887 0 1 1 -1.775 0 .918.918 0 0 1 .915-.887zm-1.5 2.178c.054 0 .134-.027.188-.027h1.667c.215 0 .322.107.322.3a3.352 3.352 0 0 1 -.054.51c-.107.619-.242 1.263-.35 1.882-.027.215-.081.431-.107.619a1 1 0 0 0 .027.3.221.221 0 0 0 .269.188 1.4 1.4 0 0 0 .322-.081 1.089 1.089 0 0 0 .242-.134c.134-.054.242.027.188.162a.37.37 0 0 1 -.134.215 1.732 1.732 0 0 1 -1.156.538 5.086 5.086 0 0 1 -.645-.027.911.911 0 0 1 -.726-.941c.054-.322.081-.645.134-.941.081-.565.188-1.1.3-1.667v-.115c0-.242-.081-.322-.3-.35-.107-.027-.188-.027-.3-.054a.253.253 0 0 1 -.166-.214.452.452 0 0 1 .27-.162z" fill="currentColor" transform="translate(-2.398 -12.276)"/></svg>