<svg height="16.001" viewBox="0 0 24 16.001" width="24" xmlns="http://www.w3.org/2000/svg"><path d="m40.912 33.8h-19.863a2.062 2.062 0 0 0 -2.049 2.05v11.9a2.062 2.062 0 0 0 2.049 2.05h19.9a2.062 2.062 0 0 0 2.051-2.047v-11.903a2.122 2.122 0 0 0 -2.088-2.05zm-17.042 2.822a1.972 1.972 0 1 1 -1.97 1.972 1.98 1.98 0 0 1 1.97-1.972zm3.092 9.815a.528.528 0 0 1 -.54.54h-5.064a.528.528 0 0 1 -.54-.54v-1.777a3.052 3.052 0 0 1 6.1 0v1.778zm12.521-1.313h-8a.54.54 0 0 1 0-1.081h8a.528.528 0 0 1 .54.54.553.553 0 0 1 -.541.542zm0-2.821h-8a.54.54 0 0 1 0-1.081h8a.528.528 0 0 1 .54.54.553.553 0 0 1 -.54.542zm0-2.782h-8a.54.54 0 0 1 0-1.081h8a.528.528 0 0 1 .54.54.553.553 0 0 1 -.541.541z" fill="#fff" transform="translate(-19 -33.801)"/></svg>