<svg height="36" viewBox="0 0 35.99 36" width="35.99" xmlns="http://www.w3.org/2000/svg"><path d="m-4302.516-2970v-8.129h6.968v-8.129h4.064l-4.064-6.967v-1.161a8.131 8.131 0 0 0 -2.38-5.752 8.124 8.124 0 0 0 -5.75-2.384h-1.973c-.315 0-.622.041-.93.041v-3.484a8.417 8.417 0 0 1 .93-.034h1.973a11.605 11.605 0 0 1 8.211 3.4 11.607 11.607 0 0 1 3.4 8.211v.22l3.587 6.167a3.481 3.481 0 0 1 0 3.479 3.479 3.479 0 0 1 -3.01 1.747h-.58v4.645a3.485 3.485 0 0 1 -3.484 3.484h-3.484v4.646zm-15.1-10.452v-6.387h-6.384v-3.484h6.387v-6.387h3.484v6.387h6.387v3.484h-6.387v6.387zm15.1-12.483a2.032 2.032 0 1 1 4.064 0 1.952 1.952 0 0 1 -2.032 2.033 1.953 1.953 0 0 1 -2.032-2.034z" fill="#f2971b" transform="translate(4324 3006)"/></svg>