<svg height="36.996" viewBox="0 0 37 36.996" width="37" xmlns="http://www.w3.org/2000/svg"><path d="m37.477 24.486v-10.586a5.123 5.123 0 0 0 -4.877-5.109v-.172a3.616 3.616 0 0 0 -7.231 0v.157h-8.256v-.157a3.616 3.616 0 0 0 -7.231 0v.172a5.123 5.123 0 0 0 -4.882 5.109v18.459a5.129 5.129 0 0 0 5.123 5.123h14.358a9.453 9.453 0 1 0 13-13zm-9.646-15.867a1.149 1.149 0 0 1 2.3 0v2.781a1.149 1.149 0 0 1 -2.3 0zm-15.484 0a1.149 1.149 0 0 1 2.3 0v2.781a1.149 1.149 0 0 1 -2.3 0zm-2.467 2.637v.144a3.616 3.616 0 0 0 7.231 0v-.159h8.251v.159a3.616 3.616 0 0 0 7.231 0v-.146a2.657 2.657 0 0 1 2.418 2.646v2.894h-27.544v-2.894a2.658 2.658 0 0 1 2.415-2.643zm.242 23.759a2.659 2.659 0 0 1 -2.656-2.656v-13.1h27.545v4.161a9.45 9.45 0 0 0 -11.593 11.595zm22.421 4.522a7 7 0 1 1 4.94-2.049 6.99 6.99 0 0 1 -4.94 2.049zm4.057-10.828 1.744 1.744-6.61 6.61-3.43-3.43 1.744-1.744 1.686 1.686z" fill="#f2971b" transform="translate(-5 -5.008)"/></svg>