<svg height="19" viewBox="0 0 19 19" width="19" xmlns="http://www.w3.org/2000/svg" xmlns:xlink="http://www.w3.org/1999/xlink"><clipPath id="a"><path d="m0 0h19v19h-19z"/></clipPath><g clip-path="url(#a)" fill="#005392"><path d="m19.438 9.3c-.168-.225-4.218-5.476-9.371-5.476s-9.203 5.252-9.367 5.476a.633.633 0 0 0 0 .766c.168.225 4.218 5.476 9.371 5.476s9.2-5.251 9.371-5.476a.633.633 0 0 0 -.004-.766zm-9.371 4.975c-3.769 0-7.043-3.427-8.047-4.592 1-1.169 4.269-4.592 8.047-4.592s7.043 3.427 8.047 4.592c-1.003 1.17-4.268 4.593-8.047 4.593z" transform="translate(-.567 -.183)"/><path d="m9.067 6.56a2.508 2.508 0 1 0 2.508 2.508 2.508 2.508 0 0 0 -2.508-2.508zm0 3.882a1.374 1.374 0 1 1 1.374-1.374 1.374 1.374 0 0 1 -1.374 1.374z" transform="translate(.433 .433)"/></g></svg>