<svg height="20.3" viewBox="0 0 20.3 20.3" width="20.3" xmlns="http://www.w3.org/2000/svg"><g fill="#005392" transform="translate(-2.35 -2.35)"><path d="m12.5 2.5a10 10 0 1 0 10 10 10.009 10.009 0 0 0 -10-10zm0 18.715a8.715 8.715 0 1 1 8.715-8.715 8.732 8.732 0 0 1 -8.715 8.715z" stroke="#005392" stroke-width=".3"/><path d="m38.392 36.6a.189.189 0 0 1 .071-.212l1.75-1.588a.466.466 0 0 0 -.26-.8l-2.34-.26c-.071 0-.142-.071-.189-.142l-.97-2.152a.474.474 0 0 0 -.852 0l-.97 2.152a.246.246 0 0 1 -.189.142l-2.364.236a.466.466 0 0 0 -.26.8l1.749 1.584a.191.191 0 0 1 .071.212l-.473 2.317a.47.47 0 0 0 .685.5l2.057-1.158a.215.215 0 0 1 .236 0l2.056 1.155a.464.464 0 0 0 .685-.5z" transform="translate(-23.505 -23.093)"/></g></svg>