<svg height="20" viewBox="0 0 17 24" width="24.2" xmlns="http://www.w3.org/2000/svg"><path d="m-18193.07 12219.119h-1.414a1.6 1.6 0 0 1 -1.617-1.591v-15.437a1.6 1.6 0 0 1 1.617-1.591h13.764a1.6 1.6 0 0 1 1.619 1.591v15.437a1.6 1.6 0 0 1 -1.619 1.591h-1.41a5.449 5.449 0 0 1 -5.471 5.382 5.43 5.43 0 0 1 -5.469-5.382zm1.488-.025a3.952 3.952 0 0 0 3.98 3.916 3.953 3.953 0 0 0 3.98-3.916 3.933 3.933 0 0 0 -3.98-3.915 3.951 3.951 0 0 0 -3.98 3.915zm-1.488-7.376a.74.74 0 0 0 .744.732h9.447a.741.741 0 0 0 .748-.732.74.74 0 0 0 -.746-.732h-9.449a.738.738 0 0 0 -.744.732zm0-3.639a.74.74 0 0 0 .744.732h9.447a.739.739 0 0 0 .748-.732.739.739 0 0 0 -.746-.731h-9.449a.739.739 0 0 0 -.744.731zm0-3.638a.739.739 0 0 0 .744.732h9.447a.74.74 0 0 0 .748-.732.74.74 0 0 0 -.746-.731h-9.449a.739.739 0 0 0 -.744.731zm4.262 16.445-1.129-1.111a.742.742 0 0 1 0-1.036.768.768 0 0 1 1.053 0l.617.606 1.77-1.742a.77.77 0 0 1 1.055 0 .737.737 0 0 1 0 1.035l-2.287 2.248a.745.745 0 0 1 -.537.227.806.806 0 0 1 -.543-.226z" fill="currentColor" transform="translate(18196.102 -12200.501)"/></svg>