<svg height="16.003" viewBox="0 0 15.998 16.003" width="15.998" xmlns="http://www.w3.org/2000/svg" xmlns:xlink="http://www.w3.org/1999/xlink"><linearGradient id="a" gradientUnits="objectBoundingBox" x1=".5" x2=".5" y2="1"><stop offset="0" stop-color="#f79818"/><stop offset="1" stop-color="#ffa324"/></linearGradient><path d="m20913-2220a8.009 8.009 0 0 1 -8-8 8.009 8.009 0 0 1 8-8 8.011 8.011 0 0 1 8 8 8.011 8.011 0 0 1 -8 8zm-.262-13.5a1.188 1.188 0 0 0 -1.234 1.134v4.5a1.1 1.1 0 0 0 .615 1.034l2.8 1.659a1.317 1.317 0 0 0 .619.152 1.271 1.271 0 0 0 1.072-.572 1.062 1.062 0 0 0 .127-.843 1.145 1.145 0 0 0 -.584-.706l-2.18-1.286v-3.943a1.19 1.19 0 0 0 -1.237-1.129z" fill="url(#a)" transform="translate(-20905.002 2236.001)"/></svg>