<svg height="20" viewBox="0 0 24.2 28.195" width="24.2" xmlns="http://www.w3.org/2000/svg"><g fill="currentColor" stroke="currentColor" stroke-width=".2"><path d="m445.333 348.416a6.709 6.709 0 1 0 -4.743-1.965 6.49 6.49 0 0 0 4.743 1.965zm-3.589-10.3a5.073 5.073 0 1 1 -1.487 3.589 4.849 4.849 0 0 1 1.487-3.589zm0 0" transform="translate(-433.107 -334.9)"/><path d="m392.942 541.077a17.116 17.116 0 0 0 -.233-1.818 14.306 14.306 0 0 0 -.447-1.828 9.053 9.053 0 0 0 -.752-1.7 6.42 6.42 0 0 0 -1.133-1.476 5 5 0 0 0 -1.627-1.023 5.625 5.625 0 0 0 -2.078-.376 2.107 2.107 0 0 0 -1.126.477c-.337.22-.732.475-1.173.756a6.724 6.724 0 0 1 -1.518.669 5.893 5.893 0 0 1 -3.713 0 6.7 6.7 0 0 1 -1.517-.668c-.436-.279-.832-.534-1.174-.757a2.108 2.108 0 0 0 -1.126-.478 5.619 5.619 0 0 0 -2.077.376 4.99 4.99 0 0 0 -1.628 1.023 6.43 6.43 0 0 0 -1.132 1.476 9.04 9.04 0 0 0 -.751 1.7 14.273 14.273 0 0 0 -.447 1.827 16.979 16.979 0 0 0 -.233 1.818c-.038.549-.057 1.121-.057 1.7a4.777 4.777 0 0 0 1.419 3.614 5.107 5.107 0 0 0 3.656 1.333h13.851a5.108 5.108 0 0 0 3.656-1.333 4.775 4.775 0 0 0 1.418-3.613c0-.58-.02-1.151-.058-1.7zm-2.523 4.092a3.438 3.438 0 0 1 -2.493.869h-13.852a3.437 3.437 0 0 1 -2.493-.869 3.119 3.119 0 0 1 -.9-2.393c0-.539.018-1.071.053-1.582a15.3 15.3 0 0 1 .211-1.637 12.629 12.629 0 0 1 .393-1.611 7.352 7.352 0 0 1 .611-1.386 4.758 4.758 0 0 1 .833-1.091 3.3 3.3 0 0 1 1.083-.673 3.881 3.881 0 0 1 1.327-.256c.059.031.164.091.335.2.346.226.746.484 1.187.766a8.37 8.37 0 0 0 1.905.851 7.579 7.579 0 0 0 4.75 0 8.367 8.367 0 0 0 1.906-.852c.452-.289.84-.539 1.187-.765.17-.111.275-.171.334-.2a3.883 3.883 0 0 1 1.328.256 3.316 3.316 0 0 1 1.083.673 4.747 4.747 0 0 1 .832 1.091 7.342 7.342 0 0 1 .612 1.386 12.638 12.638 0 0 1 .393 1.611 15.38 15.38 0 0 1 .211 1.637c.036.509.054 1.041.054 1.581a3.12 3.12 0 0 1 -.9 2.393zm0 0" transform="translate(-368.9 -519.628)"/></g></svg>