<svg xmlns="http://www.w3.org/2000/svg" width="20" height="20.001" viewBox="0 0 20 20.001"><path id="ic_cancel" d="M10,20A10,10,0,1,1,20,10,10.011,10.011,0,0,1,10,20ZM7.127,5.124a.5.5,0,0,0-.354.146l-1.5,1.5a.5.5,0,0,0,0,.707L7.79,10,5.272,12.518a.5.5,0,0,0,0,.707l1.5,1.5a.5.5,0,0,0,.707,0L10,12.209l2.518,2.518a.5.5,0,0,0,.707,0l1.5-1.5a.5.5,0,0,0,0-.707L12.21,10l2.519-2.52a.5.5,0,0,0,0-.707l-1.5-1.5a.5.5,0,0,0-.707,0L10,7.79,7.481,5.27A.5.5,0,0,0,7.127,5.124Z" transform="translate(0 0.001)" fill="#f2971b"/></svg>