<svg height="18" viewBox="0 0 20 20" width="18" xmlns="http://www.w3.org/2000/svg" xmlns:xlink="http://www.w3.org/1999/xlink"><clipPath id="a"><path d="m.5 0h19a.5.5 0 0 1 .5.5v19a.5.5 0 0 1 -.5.5h-19a.5.5 0 0 1 -.5-.5v-19a.5.5 0 0 1 .5-.5z"/></clipPath><g clip-path="url(#a)" fill="#fff"><path d="m32.363 21.7a2.685 2.685 0 0 0 2.759-2.6v-3.787a.244.244 0 0 1 .251-.237h.827a1.764 1.764 0 0 0 1.594-.964 1.581 1.581 0 0 0 -.261-1.769l-3.833-4.218a1.89 1.89 0 0 0 -2.667 0l-3.838 4.219a1.581 1.581 0 0 0 -.261 1.769 1.764 1.764 0 0 0 1.594.964h.829a.259.259 0 0 1 .178.069.23.23 0 0 1 .073.168v3.786a2.685 2.685 0 0 0 2.759 2.6z" transform="translate(-22.363 -7.574)"/><path d="m7.293 47.866v4.734a3.127 3.127 0 0 0 3.17 3.073h13.66a3.127 3.127 0 0 0 3.17-3.073v-4.734a3.127 3.127 0 0 0 -3.17-3.073h-.976a1.182 1.182 0 1 0 0 2.364h.976a.724.724 0 0 1 .732.709v4.734a.724.724 0 0 1 -.732.709h-13.66a.724.724 0 0 1 -.732-.709v-4.734a.724.724 0 0 1 .732-.709h.976a1.182 1.182 0 1 0 0-2.364h-.976a3.127 3.127 0 0 0 -3.17 3.073z" transform="translate(-7.293 -35.669)"/></g></svg>