<svg height="20.002" viewBox="0 0 22 20.002" width="22" xmlns="http://www.w3.org/2000/svg"><path d="m-4313.969-16870a3.132 3.132 0 0 1 -2.594-4.742l7.969-13.738a2.98 2.98 0 0 1 2.594-1.52 2.98 2.98 0 0 1 2.594 1.521l7.969 13.738a3.133 3.133 0 0 1 -2.594 4.742zm7.1-17.477-7.969 13.738a1.2 1.2 0 0 0 0 1.213.984.984 0 0 0 .865.525h15.938a.985.985 0 0 0 .865-.525 1.2 1.2 0 0 0 0-1.213l-7.969-13.738a.974.974 0 0 0 -.865-.525.975.975 0 0 0 -.861.527zm-.042 13.107a1 1 0 0 1 1-1 1 1 0 0 1 1 1 1 1 0 0 1 -1 1 1 1 0 0 1 -.996-.997zm-.089-3.63v-6a1 1 0 0 1 1-1 1 1 0 0 1 1 1v6a1 1 0 0 1 -1 1 1 1 0 0 1 -1-1z" fill="#f2971b" transform="translate(4317 16890)"/></svg>