<svg height="31.5" viewBox="0 0 42 31.5" width="42" xmlns="http://www.w3.org/2000/svg"><path d="m31.75 22.5a6.75 6.75 0 0 0 0-13.5 6.166 6.166 0 0 0 -2.391.445 11.252 11.252 0 1 0 -11.109 13.055z" fill="#89959f" transform="translate(3.5)"/><g fill="#1e477f"><path d="m15.75 17.5a2.25 2.25 0 1 1 -2.25 2.25.75.75 0 0 0 -1.5 0 3.75 3.75 0 1 0 3.75-3.75h-15a.75.75 0 0 0 0 1.5z" transform="translate(0 8)"/><path d="m7.5 15.5a1.5 1.5 0 1 0 -1.5-1.5.75.75 0 1 1 -1.5 0 3 3 0 1 1 3 3h-6.75a.75.75 0 1 1 0-1.5z" transform="translate(0 5.5)"/></g></svg>