<svg xmlns="http://www.w3.org/2000/svg" width="288.835" height="77.247" viewBox="0 0 288.835 77.247"><defs><style>.a{fill:#005392}.b{fill:#ff981d}.c{fill:#fff}</style></defs><g transform="translate(-287.303 -165.488)"><path class="a" d="M7.607-3.023a3.988,3.988,0,0,1-.121,1.031,2.681,2.681,0,0,1-.341.784,2.213,2.213,0,0,1-.534.567,2.754,2.754,0,0,1-.7.374,4.1,4.1,0,0,1-.835.2A6.761,6.761,0,0,1,4.131,0H1.015V-6.038H4.122a6.213,6.213,0,0,1,1.38.145A2.9,2.9,0,0,1,6.607-5.4a2.361,2.361,0,0,1,.734.929A3.468,3.468,0,0,1,7.607-3.023Zm-.567,0a3.527,3.527,0,0,0-.1-.87,2.214,2.214,0,0,0-.277-.657,1.742,1.742,0,0,0-.439-.468,2.3,2.3,0,0,0-.584-.305,3.335,3.335,0,0,0-.708-.165,6.488,6.488,0,0,0-.813-.048H1.564V-.505H4.122A5.576,5.576,0,0,0,5.3-.622a2.345,2.345,0,0,0,.921-.4,1.91,1.91,0,0,0,.6-.773A3.028,3.028,0,0,0,7.04-3.023ZM10.413,0V-6.038h.549V0Zm7.345-6.148a6.777,6.777,0,0,1,.778.042,6.151,6.151,0,0,1,.69.119,6.478,6.478,0,0,1,.642.185q.312.108.628.24V-4.9a5.957,5.957,0,0,0-.534-.3,4.427,4.427,0,0,0-.611-.246,4.846,4.846,0,0,0-.7-.167,4.994,4.994,0,0,0-.806-.062,5.683,5.683,0,0,0-1.534.185,3.1,3.1,0,0,0-1.09.527,2.165,2.165,0,0,0-.653.835,2.712,2.712,0,0,0-.218,1.107,2.612,2.612,0,0,0,.213,1.061,2.217,2.217,0,0,0,.646.837,3.153,3.153,0,0,0,1.083.549,5.263,5.263,0,0,0,1.525.2q.343,0,.679-.026t.635-.068q.3-.042.545-.092t.417-.1V-2.492H17.635v-.514h3.006V-.352q-.325.114-.657.2T19.3,0q-.354.059-.734.09t-.8.031a6.227,6.227,0,0,1-1.582-.191,3.727,3.727,0,0,1-1.263-.58,2.752,2.752,0,0,1-.837-.978,2.986,2.986,0,0,1-.3-1.384,3.153,3.153,0,0,1,.141-.969,2.723,2.723,0,0,1,.4-.787,2.747,2.747,0,0,1,.62-.609,3.571,3.571,0,0,1,.8-.428,4.946,4.946,0,0,1,.951-.255A6.408,6.408,0,0,1,17.758-6.148ZM23.6,0V-6.038h.549V0Zm6.238-5.537V0h-.545V-5.537H26.546v-.5h6.038v.5ZM39.6,0l-.831-1.591h-4.1L33.843,0h-.6L36.4-6.038h.646L40.206,0ZM36.726-5.506,34.942-2.1h3.564ZM42.6,0V-6.038h.549V-.514H47.56V0ZM61.3-3.023a3.988,3.988,0,0,1-.121,1.031,2.681,2.681,0,0,1-.341.784,2.213,2.213,0,0,1-.534.567,2.754,2.754,0,0,1-.7.374,4.1,4.1,0,0,1-.835.2A6.761,6.761,0,0,1,57.821,0H54.705V-6.038h3.107a6.213,6.213,0,0,1,1.38.145A2.9,2.9,0,0,1,60.3-5.4a2.361,2.361,0,0,1,.734.929A3.468,3.468,0,0,1,61.3-3.023Zm-.567,0a3.527,3.527,0,0,0-.1-.87,2.214,2.214,0,0,0-.277-.657,1.742,1.742,0,0,0-.439-.468,2.3,2.3,0,0,0-.584-.305,3.335,3.335,0,0,0-.708-.165,6.488,6.488,0,0,0-.813-.048H55.254V-.505h2.558a5.576,5.576,0,0,0,1.182-.116,2.345,2.345,0,0,0,.921-.4,1.91,1.91,0,0,0,.6-.773A3.028,3.028,0,0,0,60.73-3.023ZM69.631,0,68.8-1.591H64.7L63.87,0h-.6l3.16-6.038h.646L70.233,0ZM66.752-5.506,64.968-2.1h3.564Zm7.666,2.949V0h-.549V-2.558l-2.834-3.48h.655l2.457,3.023,2.448-3.023h.659ZM79.8,0V-6.038h.549V-.514h4.412V0Zm7.517,0V-6.038h.549V0Zm7.345-6.148a6.777,6.777,0,0,1,.778.042,6.151,6.151,0,0,1,.69.119,6.478,6.478,0,0,1,.642.185q.312.108.628.24V-4.9a5.957,5.957,0,0,0-.534-.3,4.427,4.427,0,0,0-.611-.246,4.846,4.846,0,0,0-.7-.167,4.994,4.994,0,0,0-.806-.062,5.683,5.683,0,0,0-1.534.185,3.1,3.1,0,0,0-1.09.527,2.165,2.165,0,0,0-.653.835,2.712,2.712,0,0,0-.218,1.107,2.612,2.612,0,0,0,.213,1.061,2.217,2.217,0,0,0,.646.837,3.153,3.153,0,0,0,1.083.549,5.263,5.263,0,0,0,1.525.2q.343,0,.679-.026t.635-.068q.3-.042.545-.092t.417-.1V-2.492H94.538v-.514h3.006V-.352q-.325.114-.657.2T96.2,0q-.354.059-.734.09t-.8.031a6.227,6.227,0,0,1-1.582-.191,3.727,3.727,0,0,1-1.263-.58,2.752,2.752,0,0,1-.837-.978,2.986,2.986,0,0,1-.3-1.384,3.153,3.153,0,0,1,.141-.969,2.723,2.723,0,0,1,.4-.787,2.747,2.747,0,0,1,.62-.609,3.571,3.571,0,0,1,.8-.428,4.946,4.946,0,0,1,.951-.255A6.408,6.408,0,0,1,94.661-6.148ZM106.462,0V-2.927h-5.41V0H100.5V-6.038h.549v2.6h5.41v-2.6h.549V0ZM112.7-5.537V0h-.545V-5.537h-2.747v-.5h6.038v.5Zm15.618,1.354a2.034,2.034,0,0,1-.147.8,1.411,1.411,0,0,1-.464.584,2.215,2.215,0,0,1-.815.358,5.171,5.171,0,0,1-1.2.121h-2.711V0h-.549V-6.038h3.261a5.171,5.171,0,0,1,1.2.121,2.262,2.262,0,0,1,.815.354,1.38,1.38,0,0,1,.464.58A2.034,2.034,0,0,1,128.317-4.184Zm-.567,0a1.457,1.457,0,0,0-.143-.694.951.951,0,0,0-.439-.406,2.3,2.3,0,0,0-.751-.191,10.383,10.383,0,0,0-1.079-.048h-2.36v2.689h2.36l.516,0a4.759,4.759,0,0,0,.543-.026,2.854,2.854,0,0,0,.512-.1,1.253,1.253,0,0,0,.431-.222,1.063,1.063,0,0,0,.3-.391A1.454,1.454,0,0,0,127.751-4.184ZM136.963,0V-2.927h-5.41V0H131V-6.038h.549v2.6h5.41v-2.6h.549V0ZM148-3.015a3.116,3.116,0,0,1-.294,1.4,2.7,2.7,0,0,1-.809.976,3.489,3.489,0,0,1-1.213.569,5.886,5.886,0,0,1-1.507.185,5.956,5.956,0,0,1-1.516-.185,3.533,3.533,0,0,1-1.222-.569,2.687,2.687,0,0,1-.813-.976,3.116,3.116,0,0,1-.294-1.4A3.323,3.323,0,0,1,140.468-4a2.791,2.791,0,0,1,.382-.791,2.59,2.59,0,0,1,.6-.6,3.483,3.483,0,0,1,.778-.424,4.494,4.494,0,0,1,.921-.25,6.332,6.332,0,0,1,1.033-.081,5.886,5.886,0,0,1,1.507.185,3.489,3.489,0,0,1,1.213.569,2.7,2.7,0,0,1,.809.976A3.116,3.116,0,0,1,148-3.015Zm-.567,0a2.883,2.883,0,0,0-.209-1.134,2.137,2.137,0,0,0-.617-.828,2.779,2.779,0,0,0-1.017-.51,5.171,5.171,0,0,0-1.413-.174,5.158,5.158,0,0,0-1.417.176,2.847,2.847,0,0,0-1.026.512,2.135,2.135,0,0,0-.624.831,2.849,2.849,0,0,0-.211,1.127,2.856,2.856,0,0,0,.211,1.134,2.138,2.138,0,0,0,.624.828,2.822,2.822,0,0,0,1.026.51,5.22,5.22,0,0,0,1.417.174,5.171,5.171,0,0,0,1.413-.174,2.779,2.779,0,0,0,1.017-.51,2.137,2.137,0,0,0,.617-.828A2.883,2.883,0,0,0,147.433-3.015Zm5.649-2.522V0h-.545V-5.537H149.79v-.5h6.038v.5Zm12.206,2.522a3.116,3.116,0,0,1-.294,1.4,2.7,2.7,0,0,1-.809.976,3.489,3.489,0,0,1-1.213.569,5.886,5.886,0,0,1-1.507.185,5.956,5.956,0,0,1-1.516-.185,3.533,3.533,0,0,1-1.222-.569,2.687,2.687,0,0,1-.813-.976,3.116,3.116,0,0,1-.294-1.4A3.323,3.323,0,0,1,157.755-4a2.791,2.791,0,0,1,.382-.791,2.59,2.59,0,0,1,.6-.6,3.483,3.483,0,0,1,.778-.424,4.494,4.494,0,0,1,.921-.25,6.332,6.332,0,0,1,1.033-.081,5.886,5.886,0,0,1,1.507.185,3.489,3.489,0,0,1,1.213.569,2.7,2.7,0,0,1,.809.976A3.116,3.116,0,0,1,165.287-3.015Zm-.567,0a2.883,2.883,0,0,0-.209-1.134,2.137,2.137,0,0,0-.617-.828,2.779,2.779,0,0,0-1.017-.51,5.171,5.171,0,0,0-1.413-.174,5.158,5.158,0,0,0-1.417.176,2.847,2.847,0,0,0-1.026.512,2.135,2.135,0,0,0-.624.831,2.849,2.849,0,0,0-.211,1.127,2.856,2.856,0,0,0,.211,1.134,2.138,2.138,0,0,0,.624.828,2.822,2.822,0,0,0,1.026.51,5.22,5.22,0,0,0,1.417.174,5.171,5.171,0,0,0,1.413-.174,2.779,2.779,0,0,0,1.017-.51,2.137,2.137,0,0,0,.617-.828A2.883,2.883,0,0,0,164.721-3.015Zm9.973-.009a3.988,3.988,0,0,1-.121,1.031,2.681,2.681,0,0,1-.341.784,2.213,2.213,0,0,1-.534.567,2.754,2.754,0,0,1-.7.374,4.1,4.1,0,0,1-.835.2,6.761,6.761,0,0,1-.947.064H168.1V-6.038h3.107a6.213,6.213,0,0,1,1.38.145,2.9,2.9,0,0,1,1.105.494,2.361,2.361,0,0,1,.734.929A3.468,3.468,0,0,1,174.694-3.023Zm-.567,0a3.527,3.527,0,0,0-.1-.87,2.214,2.214,0,0,0-.277-.657,1.742,1.742,0,0,0-.439-.468,2.3,2.3,0,0,0-.584-.305,3.335,3.335,0,0,0-.708-.165,6.488,6.488,0,0,0-.813-.048h-2.558V-.505h2.558a5.576,5.576,0,0,0,1.182-.116,2.345,2.345,0,0,0,.921-.4,1.91,1.91,0,0,0,.6-.773A3.028,3.028,0,0,0,174.127-3.023Zm5.8.466V0h-.549V-2.558l-2.834-3.48h.655l2.457,3.023L182.1-6.038h.659ZM191.1,0l-5.247-5.317V0h-.549V-6.038h.606L191.159-.7V-6.038h.541V0Zm9.362,0-.831-1.591h-4.1L194.7,0h-.6l3.16-6.038h.646L201.066,0Zm-2.878-5.506L195.8-2.1h3.564ZM211.136,0V-5.137L207.818,0h-.488l-3.322-5.159V0h-.549V-6.038h.589L207.59-.567l3.5-5.471h.584V0Zm3.781,0V-6.038h.549V0ZM224.9-.479q-.316.132-.626.242a6.2,6.2,0,0,1-.644.189,6.264,6.264,0,0,1-.7.123,6.827,6.827,0,0,1-.8.044,5.879,5.879,0,0,1-1.031-.088,4.452,4.452,0,0,1-.921-.264A3.49,3.49,0,0,1,219.4-.67a2.792,2.792,0,0,1-.6-.609,2.7,2.7,0,0,1-.382-.782,3.227,3.227,0,0,1-.134-.954,3.227,3.227,0,0,1,.134-.954,2.7,2.7,0,0,1,.382-.782,2.792,2.792,0,0,1,.6-.609,3.49,3.49,0,0,1,.773-.437,4.458,4.458,0,0,1,.918-.264,5.868,5.868,0,0,1,1.033-.088,6.827,6.827,0,0,1,.8.044,6.264,6.264,0,0,1,.7.123,6.579,6.579,0,0,1,.644.187q.31.108.626.24V-4.9a5.8,5.8,0,0,0-.536-.3,4.445,4.445,0,0,0-.617-.246,4.986,4.986,0,0,0-.71-.167,5.035,5.035,0,0,0-.809-.062,5.333,5.333,0,0,0-1.507.189,2.929,2.929,0,0,0-1.052.534,2.106,2.106,0,0,0-.615.835,2.878,2.878,0,0,0-.2,1.1,2.861,2.861,0,0,0,.2,1.094,2.109,2.109,0,0,0,.615.833,2.9,2.9,0,0,0,1.052.532,5.392,5.392,0,0,0,1.507.187,5.16,5.16,0,0,0,.815-.062,5.1,5.1,0,0,0,.721-.167,4.439,4.439,0,0,0,.62-.244,4.6,4.6,0,0,0,.516-.292Zm9.874-5.058V0h-.545V-5.537h-2.747v-.5h6.038v.5ZM245.871,0V-2.927h-5.41V0h-.549V-6.038h.549v2.6h5.41v-2.6h.549V0Zm3.79,0V-6.038h5.032v.514h-4.434v2.079h4.21v.51h-4.21V-.514h4.5V0Zm8.549-2.584V0h-.549V-6.038h3.006a5.61,5.61,0,0,1,1.182.108,2.254,2.254,0,0,1,.806.325,1.3,1.3,0,0,1,.459.543,1.853,1.853,0,0,1,.145.76,1.585,1.585,0,0,1-.356,1.083,1.96,1.96,0,0,1-1.147.556L263.818,0h-.69l-1.947-2.6q-.123.009-.25.013t-.264,0ZM262.693-4.3a1.26,1.26,0,0,0-.136-.626.891.891,0,0,0-.444-.371,2.718,2.718,0,0,0-.806-.178q-.5-.046-1.224-.046h-1.872V-3.1h1.854q.725,0,1.226-.042a2.75,2.75,0,0,0,.813-.171.9.9,0,0,0,.45-.365A1.228,1.228,0,0,0,262.693-4.3Zm9.2,4.3-.831-1.591h-4.1L266.131,0h-.6l3.16-6.038h.646L272.495,0Zm-2.878-5.506L267.23-2.1h3.564Zm11.762,1.323a2.034,2.034,0,0,1-.147.8,1.411,1.411,0,0,1-.464.584,2.215,2.215,0,0,1-.815.358,5.171,5.171,0,0,1-1.2.121h-2.711V0h-.549V-6.038h3.261a5.171,5.171,0,0,1,1.2.121,2.262,2.262,0,0,1,.815.354,1.38,1.38,0,0,1,.464.58A2.034,2.034,0,0,1,280.776-4.184Zm-.567,0a1.457,1.457,0,0,0-.143-.694.951.951,0,0,0-.439-.406,2.3,2.3,0,0,0-.751-.191,10.383,10.383,0,0,0-1.079-.048h-2.36v2.689h2.36l.516,0a4.759,4.759,0,0,0,.543-.026,2.854,2.854,0,0,0,.512-.1,1.253,1.253,0,0,0,.431-.222,1.063,1.063,0,0,0,.3-.391A1.454,1.454,0,0,0,280.209-4.184Zm5.948,1.626V0h-.549V-2.558l-2.834-3.48h.655l2.457,3.023,2.448-3.023h.659Z" transform="translate(287.137 242.616)"/><path class="a" d="M288.835,1.75H0v-3.5H288.835Z" transform="translate(287.303 228.19)"/><ellipse class="b" cx="29.126" cy="29.126" rx="29.126" ry="29.126" transform="translate(427.102 165.488)"/><path class="c" d="M634.071,465.618c0-11.841-7.358-21.759-17.566-26.341a13.623,13.623,0,0,0-4.045,4.854c-3.324,6.212-3.5,11.927-3.236,12.945a7.588,7.588,0,0,0,1.618,2.427s-5.166,7.634-4.854,8.9c.332,1.268,3.236,2.427,3.236,2.427s.644.716,0,2.427,1.074,3.349,1.618,4.045-.439,2.847,0,4.045a4.72,4.72,0,0,0,4.854,2.427c2.436-.32,5.389-.616,6.473-.809,2.446,5.709-3.236,8.9-3.236,8.9h0A30.615,30.615,0,0,0,634.071,465.618Z" transform="translate(-148.142 -271.362)"/><path class="a" d="M20.3-17.725q-.59-.288-1.362-.613a12.9,12.9,0,0,0-1.763-.583,19.989,19.989,0,0,0-2.233-.431,19.936,19.936,0,0,0-2.755-.174,22.449,22.449,0,0,0-3.262.212,9.216,9.216,0,0,0-2.422.658,3.847,3.847,0,0,0-1.514,1.128,2.584,2.584,0,0,0-.522,1.62,2.086,2.086,0,0,0,.492,1.377,4.475,4.475,0,0,0,1.332,1.044,12.1,12.1,0,0,0,1.968.825q1.128.371,2.392.7t2.6.658q1.34.333,2.6.719a24.556,24.556,0,0,1,2.392.863,9.15,9.15,0,0,1,1.968,1.113A5.166,5.166,0,0,1,21.547-7.16a3.6,3.6,0,0,1,.492,1.892A4.466,4.466,0,0,1,21.6-3.232a4.7,4.7,0,0,1-1.188,1.5A6.687,6.687,0,0,1,18.656-.689a12.268,12.268,0,0,1-2.149.658A18.6,18.6,0,0,1,14.145.31q-1.219.1-2.4.1A28.041,28.041,0,0,1,6.834.015a28.581,28.581,0,0,1-4.2-1.075V-3.375A13.622,13.622,0,0,0,6.986-1.7a24.779,24.779,0,0,0,4.821.454,23.871,23.871,0,0,0,3.3-.212,10.639,10.639,0,0,0,2.619-.674,4.35,4.35,0,0,0,1.718-1.2,2.757,2.757,0,0,0,.613-1.816,2.441,2.441,0,0,0-.492-1.514A4.469,4.469,0,0,0,18.232-7.8a10.515,10.515,0,0,0-1.968-.87q-1.128-.378-2.384-.7t-2.6-.636q-1.34-.31-2.6-.674A24.889,24.889,0,0,1,6.3-11.5a9.072,9.072,0,0,1-1.968-1.067A4.973,4.973,0,0,1,3-13.986a3.489,3.489,0,0,1-.492-1.862A4.191,4.191,0,0,1,2.906-17.7a4.3,4.3,0,0,1,1.082-1.4A6.335,6.335,0,0,1,5.6-20.094a10.9,10.9,0,0,1,1.975-.636,17.522,17.522,0,0,1,2.187-.341q1.135-.106,2.24-.106,1.211,0,2.293.106t2.089.28q1.007.174,1.968.4T20.3-19.9ZM54.341,0V-17.695L42.913,0h-1.68L29.789-17.771V0H27.9V-20.8h2.028l12.2,18.845L54.189-20.8H56.2V0ZM82.253,0,79.392-5.479H65.27L62.409,0H60.335L71.218-20.8h2.225L84.327,0ZM72.338-18.966,66.193-7.22H78.469ZM90.306-8.9V0H88.414V-20.8H98.767a19.323,19.323,0,0,1,4.072.371,7.763,7.763,0,0,1,2.778,1.12,4.465,4.465,0,0,1,1.582,1.869,6.381,6.381,0,0,1,.5,2.619,5.461,5.461,0,0,1-1.226,3.731,6.75,6.75,0,0,1-3.951,1.915L109.62,0h-2.376l-6.706-8.961q-.424.03-.863.045t-.908.015Zm15.439-5.918a4.34,4.34,0,0,0-.469-2.157,3.07,3.07,0,0,0-1.529-1.279,9.362,9.362,0,0,0-2.778-.613q-1.718-.159-4.216-.159H90.306v8.355h6.388q2.5,0,4.223-.144a9.472,9.472,0,0,0,2.8-.59,3.1,3.1,0,0,0,1.552-1.256A4.231,4.231,0,0,0,105.745-14.819Zm16.923-4.253V0h-1.877V-19.072h-9.46V-20.8h20.8v1.726Z" transform="translate(285.471 217.439)"/><path class="a" d="M27.484-14.141a8.983,8.983,0,0,1-.469,2.961,5.721,5.721,0,0,1-1.508,2.328,7.137,7.137,0,0,1-2.7,1.523,12.96,12.96,0,0,1-4.031.547H9.156V0h-5.8V-21.469H18.781a13.135,13.135,0,0,1,4.031.539,7.058,7.058,0,0,1,2.7,1.516,5.729,5.729,0,0,1,1.508,2.32A8.914,8.914,0,0,1,27.484-14.141Zm-5.859.094a3.537,3.537,0,0,0-.211-1.289,1.923,1.923,0,0,0-.7-.883,3.368,3.368,0,0,0-1.266-.508,9.536,9.536,0,0,0-1.922-.164H9.156v5.531h8.375a11.722,11.722,0,0,0,1.922-.133,3.281,3.281,0,0,0,1.266-.453,1.806,1.806,0,0,0,.7-.836A3.35,3.35,0,0,0,21.625-14.047Zm36.953,3.3a13.486,13.486,0,0,1-.453,3.664A9.34,9.34,0,0,1,56.852-4.3a8.231,8.231,0,0,1-1.969,2.016A10.158,10.158,0,0,1,52.328-.953,15.362,15.362,0,0,1,49.3-.227,24.545,24.545,0,0,1,45.906,0H32.281V-21.469H45.875a24.545,24.545,0,0,1,3.391.227,15.53,15.53,0,0,1,3.039.727,10.415,10.415,0,0,1,2.57,1.32,7.994,7.994,0,0,1,1.977,2.016,9.461,9.461,0,0,1,1.273,2.789A13.335,13.335,0,0,1,58.578-10.75Zm-5.844,0a8.159,8.159,0,0,0-.4-2.687,4.229,4.229,0,0,0-1.281-1.883,5.771,5.771,0,0,0-2.3-1.109,14.073,14.073,0,0,0-3.469-.367h-7.2V-4.672h7.2a14.073,14.073,0,0,0,3.469-.367,5.651,5.651,0,0,0,2.3-1.125,4.337,4.337,0,0,0,1.281-1.9A8.159,8.159,0,0,0,52.734-10.75ZM75.891-16.8V0h-5.8V-16.8H60.984v-4.672H85.016V-16.8Z" transform="translate(490.131 217.439)"/><ellipse class="a" cx="6.068" cy="6.068" rx="6.068" ry="6.068" transform="translate(469.982 177.623)"/></g></svg>