<svg height="106" viewBox="0 0 314 106" width="314" xmlns="http://www.w3.org/2000/svg" xmlns:xlink="http://www.w3.org/1999/xlink"><clipPath id="a"><rect height="106" rx="6" width="314" x="494" y="997"/></clipPath><g clip-path="url(#a)" transform="translate(-494 -997)"><path d="m113.034 18.5h-99.287a11.151 11.151 0 0 0 -11.147 11.145v58.422a11.151 11.151 0 0 0 11.147 11.144h99.287a11.151 11.151 0 0 0 11.145-11.145v-58.421a11.151 11.151 0 0 0 -11.145-11.145zm-5.38 18.191-27.414 24.341 22.165 21.524a1.232 1.232 0 0 1 -1.536 1.922l-27.034-17.678-7.687 6.791a4.278 4.278 0 0 1 -5.635 0l-7.687-6.791-27.034 17.678c-1.281.771-2.692-.9-1.536-1.922l22.164-21.393-27.413-24.342a2 2 0 0 1 2.562-3.073l41.767 31 41.767-31a1.948 1.948 0 1 1 2.552 2.943z" fill="#4da0e6" opacity=".05" transform="matrix(.93358043 -.35836795 .35836795 .93358043 673.456 1020.224)"/></g></svg>