<svg viewBox="0 0 108.67 122.88" xmlns="http://www.w3.org/2000/svg"><path d="m25.14 53.37a2.77 2.77 0 0 0 0 5.54h20.11a2.77 2.77 0 0 0 0-5.54zm60.48-36.9 6.66 6.69-8 8.14 8 8.14-6.67 6.66-8-8.09-8 8.1-6.61-6.68 8-8.14-8-8.15 6.67-6.65 8 8.08 8-8.1zm-7.85-16.47a30.91 30.91 0 0 1 13.23 58.82v57.69a6.38 6.38 0 0 1 -6.37 6.37h-78.26a6.38 6.38 0 0 1 -6.37-6.37v-94.11a6.38 6.38 0 0 1 6.37-6.4h44.3a30.89 30.89 0 0 1 27.1-16zm7.78 60.81a30.92 30.92 0 0 1 -37.23-39.29h-41.95a.9.9 0 0 0 -.63.26.92.92 0 0 0 -.26.63v94.09a.89.89 0 0 0 .89.89h78.28a.9.9 0 0 0 .63-.26.92.92 0 0 0 .26-.63v-55.69zm-60.41 31.41a2.74 2.74 0 0 0 0 5.48h38.47a2.74 2.74 0 1 0 0-5.48zm0-19.41a2.74 2.74 0 0 0 0 5.48h38.47a2.74 2.74 0 0 0 0-5.48z" fill-rule="evenodd" /></svg>