<svg height="188" viewBox="0 0 252 188" width="252" xmlns="http://www.w3.org/2000/svg"><path d="m845.018 247.93h-252v-53.73h252z" fill="#fff" transform="translate(-593.018 -194.199)"/><circle cx="32.574" cy="26.865" fill="#f2971b" r="13.649"/><g fill="#89959f"><path d="m691.942 221.973a2.275 2.275 0 0 0 0 4.55h166.093a2.275 2.275 0 0 0 0-4.55z" transform="translate(-627.229 -204.207)"/><path d="m691.939 243.312a2.275 2.275 0 0 0 -.01 4.55h105.006a2.275 2.275 0 0 0 0-4.55z" transform="translate(-627.574 -211.897)"/><path d="m845.018 247.93h-252v-53.73h252zm-248.153-3.838h244.305v-46.055h-244.305z" transform="translate(-593.018 -194.199)"/></g><path d="m845.018 352.93h-252v-53.73h252z" fill="#fff" transform="translate(-593.018 -232.065)"/><g fill="#c1cad1"><circle cx="32.574" cy="94" r="13.649"/><path d="m691.942 326.973a2.275 2.275 0 0 0 0 4.55h166.093a2.275 2.275 0 0 0 0-4.55z" transform="translate(-627.229 -242.071)"/><path d="m691.939 348.312a2.275 2.275 0 0 0 -.01 4.55h105.006a2.275 2.275 0 0 0 0-4.55z" transform="translate(-627.574 -249.764)"/><path d="m845.018 352.93h-252v-53.73h252zm-248.153-3.838h244.305v-46.055h-244.305z" transform="translate(-593.018 -232.065)"/></g><path d="m845.018 457.93h-252v-53.73h252z" fill="#fff" transform="translate(-593.018 -269.93)"/><g fill="#c1cad1"><circle cx="32.574" cy="161.134" r="13.649"/><path d="m691.942 431.973a2.275 2.275 0 0 0 0 4.55h166.093a2.275 2.275 0 0 0 0-4.55z" transform="translate(-627.229 -279.938)"/><path d="m691.939 453.312a2.275 2.275 0 0 0 -.01 4.55h105.006a2.275 2.275 0 0 0 0-4.55z" transform="translate(-627.574 -287.628)"/><path d="m845.018 457.93h-252v-53.73h252zm-248.153-3.838h244.305v-46.055h-244.305z" transform="translate(-593.018 -269.93)"/></g></svg>