<svg xmlns="http://www.w3.org/2000/svg" width="43" height="43" viewBox="0 0 43 43"><g id="smilepleased" transform="translate(0.5 0.5)"><path id="Path_1" data-name="Path 1" d="M227,499a21,21,0,1,1-21-21,21,21,0,0,1,21,21Zm0,0" transform="translate(-185 -478)" fill="rgba(123,207,52,0.1)" stroke="rgba(123,207,52,0.8)" stroke-width="1"/><g id="Group_5742" data-name="Group 5742" transform="translate(13.228 14.502)"><path id="Path_2" data-name="Path 2" d="M292.738,575.2a2.781,2.781,0,1,1-2.781-2.781,2.781,2.781,0,0,1,2.781,2.781Zm0,0" transform="translate(-287.176 -572.414)" fill="#67cc15"/><path id="Path_3" data-name="Path 3" d="M405.324,575.2a2.781,2.781,0,1,1-2.781-2.781,2.781,2.781,0,0,1,2.781,2.781Zm0,0" transform="translate(-389.78 -572.414)" fill="#67cc15"/></g><path id="Path_4" data-name="Path 4" d="M291.411,728.74a10.2,10.2,0,0,1-14.231-.057c-.56-.553-1.441.291-.882.842a11.508,11.508,0,0,0,15.995.057c.564-.548-.318-1.39-.882-.842Zm0,0" transform="translate(-263.297 -701.228)" fill="#67cc15"/><g id="Group_5741" data-name="Group 5741" transform="translate(12.796 10.441)"><path id="Path_4125" data-name="Path 4125" d="M14.175,48.73s-.353.076-.811.2c-.228.057-.486.153-.751.225a6.44,6.44,0,0,0-.793.335,3.8,3.8,0,0,0-.758.4,3.5,3.5,0,0,1-.356.2,2.109,2.109,0,0,0-.3.219,5.089,5.089,0,0,1-.713.459A3.682,3.682,0,0,1,10,49.962a1.347,1.347,0,0,1,.224-.367,4.816,4.816,0,0,1,.334-.349,2.442,2.442,0,0,1,.391-.344c.158-.086.318-.171.478-.259a2.032,2.032,0,0,1,.507-.187c.172-.047.346-.07.511-.1a2.571,2.571,0,0,1,.485-.006,1.606,1.606,0,0,1,.427.05,2.269,2.269,0,0,1,.61.206A1.412,1.412,0,0,1,14.175,48.73Z" transform="translate(-9.689 -48.338)" fill="#67cc15"/><path id="Path_4126" data-name="Path 4126" d="M22.5,48.73A1.289,1.289,0,0,1,22.7,48.6a2.269,2.269,0,0,1,.61-.206,1.606,1.606,0,0,1,.427-.05,2.571,2.571,0,0,1,.485.006c.164.033.34.055.512.1a2.006,2.006,0,0,1,.506.187l.478.259a2.54,2.54,0,0,1,.393.344c.124.114.231.236.332.349a1.3,1.3,0,0,1,.224.367,3.661,3.661,0,0,1,.312.818,4.992,4.992,0,0,1-.712-.459,2.275,2.275,0,0,0-.3-.219,3.528,3.528,0,0,1-.357-.2,3.775,3.775,0,0,0-.758-.4,6.428,6.428,0,0,0-.792-.335c-.266-.073-.522-.169-.752-.225C22.849,48.806,22.5,48.73,22.5,48.73Z" transform="translate(-10.574 -48.338)" fill="#67cc15"/></g></g></svg>