<svg xmlns="http://www.w3.org/2000/svg" width="43" height="42.997" viewBox="0 0 43 42.997"><g id="smileverysad" transform="translate(0.5 0.5)"><path id="Path_1" data-name="Path 1" d="M227,499a21,21,0,1,1-21-21,21,21,0,0,1,21,21Zm0,0" transform="translate(-185 -478)" fill="rgba(253,90,34,0.1)" stroke="rgba(253,90,34,0.8)" stroke-width="1"/><g id="Group_5736" data-name="Group 5736" transform="translate(11.875 10.253)"><path id="Path_3" data-name="Path 3" d="M293.339,575.5a3.081,3.081,0,1,1-3.081-3.081,3.081,3.081,0,0,1,3.081,3.081Zm0,0" transform="translate(-287.176 -572.414)" fill="#fd6936"/><path id="Path_4" data-name="Path 4" d="M405.925,575.5a3.081,3.081,0,1,1-3.081-3.081,3.081,3.081,0,0,1,3.081,3.081Zm0,0" transform="translate(-387.675 -572.414)" fill="#fd6936"/></g><path id="Path_8728" data-name="Path 8728" d="M294.459,725.047a11.874,11.874,0,0,0-18.142.058c-.634.717.365,1.814,1,1.1a10.531,10.531,0,0,1,16.144-.058c.639.715,1.638-.382,1-1.1Zm0,0" transform="translate(-264.409 -694.691)" fill="#fd6936"/><g id="Group_5737" data-name="Group 5737" transform="translate(11.705 17.236)"><path id="Path_166" data-name="Path 166" d="M438.815,628.89a6.065,6.065,0,0,0-1.295,3.238,1.3,1.3,0,1,0,2.59,0,13.422,13.422,0,0,0-1.3-3.238Zm0,0" transform="translate(-421.52 -628.89)" fill="#5296e3"/><path id="Path_4127" data-name="Path 4127" d="M438.815,628.89a6.065,6.065,0,0,0-1.295,3.238,1.3,1.3,0,1,0,2.59,0,13.422,13.422,0,0,0-1.3-3.238Zm0,0" transform="translate(-437.52 -628.89)" fill="#5296e3"/></g></g></svg>