<svg xmlns="http://www.w3.org/2000/svg" width="43" height="43.001" viewBox="0 0 43 43.001"><g id="smilehappy" transform="translate(0.5 0.5)"><path id="Path_1" data-name="Path 1" d="M227,499a21,21,0,1,1-21-21,21,21,0,0,1,21,21Zm0,0" transform="translate(-185 -478)" fill="rgba(73,165,0,0.1)" stroke="rgba(73,165,0,0.8)" stroke-width="1"/><path id="Path_2" data-name="Path 2" d="M250.113,667.7c0,4.777,4.791,8.65,10.7,8.65s10.7-3.873,10.7-8.65Zm0,0" transform="translate(-239.815 -643.476)" fill="#68b42d"/><g id="Group_5745" data-name="Group 5745" transform="translate(13.287 13.184)"><path id="Path_4" data-name="Path 4" d="M292.737,575.192a2.781,2.781,0,1,1-2.781-2.781,2.78,2.78,0,0,1,2.781,2.781Zm0,0" transform="translate(-287.176 -572.411)" fill="#68b42d"/><path id="Path_5" data-name="Path 5" d="M405.319,575.192a2.781,2.781,0,1,1-2.781-2.781,2.781,2.781,0,0,1,2.781,2.781Zm0,0" transform="translate(-389.893 -572.411)" fill="#68b42d"/></g><g id="Group_5744" data-name="Group 5744" transform="translate(12.257 9.123)"><path id="Path_6550" data-name="Path 6550" d="M22.5,48.73A1.289,1.289,0,0,1,22.7,48.6a2.269,2.269,0,0,1,.61-.206,1.606,1.606,0,0,1,.427-.05,2.571,2.571,0,0,1,.485.006c.164.033.34.055.512.1a2.006,2.006,0,0,1,.506.187l.478.259a2.54,2.54,0,0,1,.393.344c.124.114.231.236.332.349a1.3,1.3,0,0,1,.224.367,3.661,3.661,0,0,1,.312.818,4.992,4.992,0,0,1-.712-.459,2.275,2.275,0,0,0-.3-.219,3.528,3.528,0,0,1-.357-.2,3.775,3.775,0,0,0-.758-.4,6.428,6.428,0,0,0-.792-.335c-.266-.073-.522-.169-.752-.225C22.849,48.806,22.5,48.73,22.5,48.73Z" transform="translate(-9.496 -48.338)" fill="#68b42d"/><path id="Path_8727" data-name="Path 8727" d="M26.982,48.73a1.289,1.289,0,0,0-.208-.127,2.269,2.269,0,0,0-.61-.206,1.606,1.606,0,0,0-.427-.05,2.571,2.571,0,0,0-.485.006c-.164.033-.34.055-.512.1a2.006,2.006,0,0,0-.506.187l-.478.259a2.54,2.54,0,0,0-.393.344c-.124.114-.231.236-.332.349a1.3,1.3,0,0,0-.224.367,3.662,3.662,0,0,0-.312.818,4.992,4.992,0,0,0,.712-.459,2.275,2.275,0,0,1,.3-.219,3.529,3.529,0,0,0,.357-.2,3.774,3.774,0,0,1,.758-.4,6.427,6.427,0,0,1,.792-.335c.266-.073.522-.169.752-.225C26.629,48.806,26.983,48.73,26.982,48.73Z" transform="translate(-22.496 -48.338)" fill="#68b42d"/></g></g></svg>